<svg xmlns="http://www.w3.org/2000/svg" width="87" height="107" shape-rendering="crispEdges"><path fill="#7dc031" d="M53 0h1v1h-1zM54 0h1v1h-1zM55 0h1v1h-1zM56 0h1v1h-1z"/><path fill="#8cc749" d="M57 0h1v1h-1z"/><path fill="#7dc031" d="M51 1h1v1h-1zM52 1h1v1h-1z"/><path fill="#6cb816" d="M53 1h1v1h-1zM54 1h1v1h-1z"/><path fill="#60a314" d="M55 1h1v1h-1zM56 1h1v1h-1z"/><path fill="#6cb816" d="M57 1h1v1h-1z"/><path fill="#8cc749" d="M58 1h1v1h-1z"/><path fill="#7dc031" d="M50 2h1v1h-1z"/><path fill="#6cb816" d="M51 2h1v1h-1zM52 2h1v1h-1z"/><path fill="#60a314" d="M53 2h1v1h-1zM54 2h1v1h-1z"/><path fill="#559012" d="M55 2h1v1h-1zM56 2h1v1h-1z"/><path fill="#60a314" d="M57 2h1v1h-1z"/><path fill="#7dc031" d="M58 2h1v1h-1z"/><path fill="#6cb816" d="M49 3h1v1h-1zM50 3h1v1h-1z"/><path fill="#60a314" d="M51 3h1v1h-1zM52 3h1v1h-1zM53 3h1v1h-1zM54 3h1v1h-1z"/><path fill="#559012" d="M55 3h1v1h-1zM57 3h1v1h-1z"/><path fill="#60a314" d="M58 3h1v1h-1z"/><path fill="#8cc749" d="M59 3h1v1h-1z"/><path fill="#7dc031" d="M28 4h1v1h-1zM29 4h1v1h-1zM30 4h1v1h-1zM31 4h1v1h-1zM32 4h1v1h-1z"/><path fill="#8cc749" d="M33 4h1v1h-1zM34 4h1v1h-1z"/><path fill="#6cb816" d="M48 4h1v1h-1zM49 4h1v1h-1z"/><path fill="#60a314" d="M50 4h1v1h-1zM51 4h1v1h-1zM52 4h1v1h-1z"/><path fill="#559012" d="M53 4h1v1h-1z"/><path fill="#6cb816" d="M26 5h1v1h-1zM27 5h1v1h-1zM28 5h1v1h-1zM29 5h1v1h-1zM30 5h1v1h-1zM31 5h1v1h-1zM32 5h1v1h-1zM33 5h1v1h-1zM34 5h1v1h-1z"/><path fill="#7dc031" d="M35 5h1v1h-1z"/><path fill="#8cc749" d="M36 5h1v1h-1z"/><path fill="#6cb816" d="M47 5h1v1h-1zM48 5h1v1h-1z"/><path fill="#60a314" d="M49 5h1v1h-1zM50 5h1v1h-1zM51 5h1v1h-1zM52 5h1v1h-1z"/><path fill="#6cb816" d="M24 6h1v1h-1zM25 6h1v1h-1zM26 6h1v1h-1zM27 6h1v1h-1z"/><path fill="#60a314" d="M28 6h1v1h-1zM29 6h1v1h-1zM30 6h1v1h-1zM31 6h1v1h-1zM32 6h1v1h-1zM33 6h1v1h-1zM34 6h1v1h-1z"/><path fill="#6cb816" d="M35 6h1v1h-1zM36 6h1v1h-1z"/><path fill="#7dc031" d="M37 6h1v1h-1z"/><path fill="#6cb816" d="M46 6h1v1h-1zM47 6h1v1h-1z"/><path fill="#60a314" d="M48 6h1v1h-1zM49 6h1v1h-1zM50 6h1v1h-1z"/><path fill="#559012" d="M51 6h1v1h-1z"/><path fill="#6cb816" d="M23 7h1v1h-1z"/><path fill="#60a314" d="M24 7h1v1h-1zM25 7h1v1h-1zM26 7h1v1h-1zM27 7h1v1h-1zM28 7h1v1h-1z"/><path fill="#559012" d="M29 7h1v1h-1zM30 7h1v1h-1zM31 7h1v1h-1z"/><path fill="#60a314" d="M32 7h1v1h-1zM33 7h1v1h-1zM34 7h1v1h-1zM35 7h1v1h-1zM36 7h1v1h-1z"/><path fill="#6cb816" d="M37 7h1v1h-1z"/><path fill="#7dc031" d="M38 7h1v1h-1z"/><path fill="#6cb816" d="M46 7h1v1h-1z"/><path fill="#60a314" d="M47 7h1v1h-1zM48 7h1v1h-1zM49 7h1v1h-1zM50 7h1v1h-1z"/><path fill="#7dc031" d="M56 7h1v1h-1zM57 7h1v1h-1zM58 7h1v1h-1zM59 7h1v1h-1z"/><path fill="#8cc749" d="M60 7h1v1h-1z"/><path fill="#6cb816" d="M22 8h1v1h-1z"/><path fill="#60a314" d="M23 8h1v1h-1z"/><path fill="#559012" d="M24 8h1v1h-1zM25 8h1v1h-1zM26 8h1v1h-1zM27 8h1v1h-1zM33 8h1v1h-1z"/><path fill="#60a314" d="M34 8h1v1h-1zM35 8h1v1h-1zM36 8h1v1h-1zM37 8h1v1h-1z"/><path fill="#6cb816" d="M38 8h1v1h-1z"/><path fill="#7dc031" d="M39 8h1v1h-1z"/><path fill="#6cb816" d="M45 8h1v1h-1zM46 8h1v1h-1z"/><path fill="#60a314" d="M47 8h1v1h-1zM48 8h1v1h-1z"/><path fill="#559012" d="M49 8h1v1h-1z"/><path fill="#6cb816" d="M54 8h1v1h-1zM55 8h1v1h-1zM56 8h1v1h-1zM57 8h1v1h-1zM58 8h1v1h-1zM59 8h1v1h-1zM60 8h1v1h-1z"/><path fill="#7dc031" d="M61 8h1v1h-1z"/><path fill="#8cc749" d="M62 8h1v1h-1z"/><path fill="#559012" d="M22 9h1v1h-1zM23 9h1v1h-1zM35 9h1v1h-1z"/><path fill="#60a314" d="M36 9h1v1h-1zM37 9h1v1h-1zM38 9h1v1h-1z"/><path fill="#6cb816" d="M39 9h1v1h-1zM40 9h1v1h-1zM45 9h1v1h-1z"/><path fill="#60a314" d="M46 9h1v1h-1zM47 9h1v1h-1zM48 9h1v1h-1z"/><path fill="#6cb816" d="M51 9h1v1h-1zM52 9h1v1h-1zM53 9h1v1h-1zM54 9h1v1h-1zM55 9h1v1h-1zM56 9h1v1h-1zM57 9h1v1h-1zM58 9h1v1h-1zM59 9h1v1h-1zM60 9h1v1h-1zM61 9h1v1h-1zM62 9h1v1h-1z"/><path fill="#7dc031" d="M63 9h1v1h-1zM64 9h1v1h-1z"/><path fill="#8cc749" d="M65 9h1v1h-1z"/><path fill="#559012" d="M37 10h1v1h-1z"/><path fill="#60a314" d="M38 10h1v1h-1zM39 10h1v1h-1z"/><path fill="#6cb816" d="M40 10h1v1h-1zM41 10h1v1h-1zM44 10h1v1h-1zM45 10h1v1h-1z"/><path fill="#60a314" d="M46 10h1v1h-1zM47 10h1v1h-1z"/><path fill="#559012" d="M48 10h1v1h-1z"/><path fill="#6cb816" d="M50 10h1v1h-1zM51 10h1v1h-1zM52 10h1v1h-1zM53 10h1v1h-1zM54 10h1v1h-1zM55 10h1v1h-1z"/><path fill="#60a314" d="M56 10h1v1h-1zM57 10h1v1h-1zM58 10h1v1h-1zM59 10h1v1h-1zM60 10h1v1h-1z"/><path fill="#6cb816" d="M61 10h1v1h-1zM62 10h1v1h-1zM63 10h1v1h-1zM64 10h1v1h-1zM65 10h1v1h-1z"/><path fill="#7dc031" d="M66 10h1v1h-1z"/><path fill="#559012" d="M38 11h1v1h-1z"/><path fill="#60a314" d="M39 11h1v1h-1zM40 11h1v1h-1z"/><path fill="#6cb816" d="M41 11h1v1h-1zM42 11h1v1h-1zM44 11h1v1h-1z"/><path fill="#60a314" d="M45 11h1v1h-1zM46 11h1v1h-1zM47 11h1v1h-1z"/><path fill="#559012" d="M48 11h1v1h-1z"/><path fill="#6cb816" d="M49 11h1v1h-1zM50 11h1v1h-1zM51 11h1v1h-1zM52 11h1v1h-1z"/><path fill="#60a314" d="M53 11h1v1h-1zM54 11h1v1h-1zM55 11h1v1h-1zM56 11h1v1h-1zM57 11h1v1h-1z"/><path fill="#559012" d="M58 11h1v1h-1zM59 11h1v1h-1z"/><path fill="#60a314" d="M60 11h1v1h-1zM61 11h1v1h-1zM62 11h1v1h-1zM63 11h1v1h-1zM64 11h1v1h-1z"/><path fill="#6cb816" d="M65 11h1v1h-1zM66 11h1v1h-1z"/><path fill="#7dc031" d="M67 11h1v1h-1z"/><path fill="#559012" d="M39 12h1v1h-1zM40 12h1v1h-1z"/><path fill="#60a314" d="M41 12h1v1h-1z"/><path fill="#6cb816" d="M42 12h1v1h-1zM43 12h1v1h-1zM44 12h1v1h-1z"/><path fill="#60a314" d="M45 12h1v1h-1zM46 12h1v1h-1z"/><path fill="#559012" d="M47 12h1v1h-1z"/><path fill="#6cb816" d="M48 12h1v1h-1zM49 12h1v1h-1zM50 12h1v1h-1z"/><path fill="#60a314" d="M51 12h1v1h-1zM52 12h1v1h-1zM53 12h1v1h-1z"/><path fill="#559012" d="M54 12h1v1h-1zM55 12h1v1h-1zM56 12h1v1h-1z"/><path fill="#60a314" d="M60 12h1v1h-1z"/><path fill="#559012" d="M61 12h1v1h-1zM62 12h1v1h-1zM63 12h1v1h-1zM64 12h1v1h-1zM65 12h1v1h-1z"/><path fill="#60a314" d="M66 12h1v1h-1zM67 12h1v1h-1z"/><path fill="#7dc031" d="M68 12h1v1h-1z"/><path fill="#8cc749" d="M69 12h1v1h-1z"/><path fill="#559012" d="M40 13h1v1h-1z"/><path fill="#60a314" d="M41 13h1v1h-1zM42 13h1v1h-1z"/><path fill="#6cb816" d="M43 13h1v1h-1zM44 13h1v1h-1z"/><path fill="#60a314" d="M45 13h1v1h-1z"/><path fill="#6cb816" d="M46 13h1v1h-1zM47 13h1v1h-1zM48 13h1v1h-1z"/><path fill="#60a314" d="M49 13h1v1h-1zM50 13h1v1h-1z"/><path fill="#559012" d="M51 13h1v1h-1zM52 13h1v1h-1zM67 13h1v1h-1zM68 13h1v1h-1z"/><path fill="#60a314" d="M69 13h1v1h-1z"/><path fill="#7dc031" d="M70 13h1v1h-1zM39 14h1v1h-1zM40 14h1v1h-1z"/><path fill="#6cb816" d="M41 14h1v1h-1zM42 14h1v1h-1z"/><path fill="#60a314" d="M43 14h1v1h-1z"/><path fill="#6cb816" d="M44 14h1v1h-1z"/><path fill="#559012" d="M45 14h1v1h-1z"/><path fill="#6cb816" d="M46 14h1v1h-1zM47 14h1v1h-1z"/><path fill="#559012" d="M48 14h1v1h-1zM49 14h1v1h-1zM50 14h1v1h-1z"/><path fill="#7dc031" d="M52 14h1v1h-1zM53 14h1v1h-1z"/><path fill="#8cc749" d="M54 14h1v1h-1z"/><path fill="#7dc031" d="M55 14h1v1h-1z"/><path fill="#8cc749" d="M56 14h1v1h-1zM57 14h1v1h-1z"/><path fill="#7dc031" d="M32 15h1v1h-1zM33 15h1v1h-1zM34 15h1v1h-1zM35 15h1v1h-1z"/><path fill="#6cb816" d="M36 15h1v1h-1zM37 15h1v1h-1zM38 15h1v1h-1zM39 15h1v1h-1z"/><path fill="#60a314" d="M40 15h1v1h-1zM41 15h1v1h-1z"/><path fill="#559012" d="M42 15h1v1h-1z"/><path fill="#60a314" d="M43 15h1v1h-1z"/><path fill="#559012" d="M44 15h1v1h-1z"/><path fill="#60a314" d="M45 15h1v1h-1z"/><path fill="#6cb816" d="M46 15h1v1h-1z"/><path fill="#60a314" d="M47 15h1v1h-1z"/><path fill="#6cb816" d="M48 15h1v1h-1z"/><path fill="#7dc031" d="M49 15h1v1h-1zM50 15h1v1h-1zM51 15h1v1h-1z"/><path fill="#6cb816" d="M52 15h1v1h-1zM53 15h1v1h-1zM54 15h1v1h-1zM55 15h1v1h-1zM56 15h1v1h-1zM57 15h1v1h-1z"/><path fill="#7dc031" d="M58 15h1v1h-1zM59 15h1v1h-1z"/><path fill="#8cc749" d="M60 15h1v1h-1z"/><path fill="#7dc031" d="M29 16h1v1h-1zM30 16h1v1h-1z"/><path fill="#6cb816" d="M31 16h1v1h-1zM32 16h1v1h-1z"/><path fill="#60a314" d="M33 16h1v1h-1zM34 16h1v1h-1zM35 16h1v1h-1zM36 16h1v1h-1zM37 16h1v1h-1zM38 16h1v1h-1zM39 16h1v1h-1zM40 16h1v1h-1zM41 16h1v1h-1zM42 16h1v1h-1z"/><path fill="#559012" d="M43 16h1v1h-1zM44 16h1v1h-1z"/><path fill="#60a314" d="M45 16h1v1h-1zM46 16h1v1h-1z"/><path fill="#6cb816" d="M47 16h1v1h-1zM48 16h1v1h-1zM49 16h1v1h-1zM50 16h1v1h-1zM51 16h1v1h-1zM52 16h1v1h-1zM53 16h1v1h-1zM54 16h1v1h-1zM55 16h1v1h-1zM56 16h1v1h-1zM57 16h1v1h-1zM58 16h1v1h-1zM59 16h1v1h-1zM60 16h1v1h-1z"/><path fill="#7dc031" d="M61 16h1v1h-1zM62 16h1v1h-1z"/><path fill="#8cc749" d="M63 16h1v1h-1zM64 16h1v1h-1z"/><path fill="#7dc031" d="M27 17h1v1h-1z"/><path fill="#6cb816" d="M28 17h1v1h-1z"/><path fill="#60a314" d="M29 17h1v1h-1zM30 17h1v1h-1zM31 17h1v1h-1zM32 17h1v1h-1zM33 17h1v1h-1zM34 17h1v1h-1zM35 17h1v1h-1zM36 17h1v1h-1zM37 17h1v1h-1zM38 17h1v1h-1z"/><path fill="#559012" d="M39 17h1v1h-1zM40 17h1v1h-1zM41 17h1v1h-1z"/><path fill="#60a314" d="M42 17h1v1h-1zM43 17h1v1h-1z"/><path fill="#559012" d="M44 17h1v1h-1z"/><path fill="#6cb816" d="M45 17h1v1h-1zM46 17h1v1h-1z"/><path fill="#60a314" d="M47 17h1v1h-1zM48 17h1v1h-1zM49 17h1v1h-1zM50 17h1v1h-1zM51 17h1v1h-1zM52 17h1v1h-1zM53 17h1v1h-1zM54 17h1v1h-1zM55 17h1v1h-1zM56 17h1v1h-1zM57 17h1v1h-1zM58 17h1v1h-1zM59 17h1v1h-1zM60 17h1v1h-1z"/><path fill="#6cb816" d="M61 17h1v1h-1zM62 17h1v1h-1zM63 17h1v1h-1zM64 17h1v1h-1z"/><path fill="#7dc031" d="M65 17h1v1h-1z"/><path fill="#8cc749" d="M66 17h1v1h-1z"/><path fill="#7dc031" d="M26 18h1v1h-1z"/><path fill="#60a314" d="M27 18h1v1h-1zM28 18h1v1h-1zM29 18h1v1h-1zM30 18h1v1h-1zM31 18h1v1h-1z"/><path fill="#559012" d="M32 18h1v1h-1z"/><path fill="#60a314" d="M33 18h1v1h-1z"/><path fill="#559012" d="M34 18h1v1h-1zM35 18h1v1h-1zM36 18h1v1h-1zM37 18h1v1h-1z"/><path fill="#7f6036" d="M38 18h1v1h-1z"/><path fill="#89673a" d="M39 18h1v1h-1zM40 18h1v1h-1zM41 18h1v1h-1zM42 18h1v1h-1z"/><path fill="#559012" d="M43 18h1v1h-1z"/><path fill="#60a314" d="M44 18h1v1h-1zM45 18h1v1h-1zM46 18h1v1h-1z"/><path fill="#6cb816" d="M47 18h1v1h-1z"/><path fill="#7dc031" d="M48 18h1v1h-1zM49 18h1v1h-1z"/><path fill="#559012" d="M50 18h1v1h-1zM51 18h1v1h-1zM52 18h1v1h-1zM53 18h1v1h-1zM54 18h1v1h-1zM55 18h1v1h-1zM56 18h1v1h-1zM57 18h1v1h-1z"/><path fill="#60a314" d="M58 18h1v1h-1zM59 18h1v1h-1z"/><path fill="#559012" d="M60 18h1v1h-1z"/><path fill="#60a314" d="M61 18h1v1h-1zM62 18h1v1h-1zM63 18h1v1h-1zM64 18h1v1h-1z"/><path fill="#6cb816" d="M65 18h1v1h-1zM66 18h1v1h-1z"/><path fill="#7dc031" d="M67 18h1v1h-1z"/><path fill="#6cb816" d="M25 19h1v1h-1z"/><path fill="#60a314" d="M26 19h1v1h-1zM27 19h1v1h-1zM28 19h1v1h-1zM29 19h1v1h-1zM30 19h1v1h-1z"/><path fill="#559012" d="M31 19h1v1h-1z"/><path fill="#89673a" d="M32 19h1v1h-1z"/><path fill="#7f6036" d="M33 19h1v1h-1z"/><path fill="#89673a" d="M34 19h1v1h-1zM35 19h1v1h-1zM36 19h1v1h-1zM37 19h1v1h-1zM38 19h1v1h-1z"/><path fill="#7f6036" d="M39 19h1v1h-1z"/><path fill="#b0854a" d="M40 19h1v1h-1zM41 19h1v1h-1z"/><path fill="#9b7542" d="M42 19h1v1h-1zM43 19h1v1h-1z"/><path fill="#559012" d="M44 19h1v1h-1z"/><path fill="#60a314" d="M45 19h1v1h-1zM46 19h1v1h-1zM47 19h1v1h-1z"/><path fill="#6cb816" d="M48 19h1v1h-1zM49 19h1v1h-1z"/><path fill="#7dc031" d="M50 19h1v1h-1z"/><path fill="#8cc749" d="M51 19h1v1h-1z"/><path fill="#559012" d="M62 19h1v1h-1zM63 19h1v1h-1z"/><path fill="#60a314" d="M64 19h1v1h-1zM65 19h1v1h-1zM66 19h1v1h-1z"/><path fill="#6cb816" d="M67 19h1v1h-1z"/><path fill="#7dc031" d="M68 19h1v1h-1z"/><path fill="#6cb816" d="M24 20h1v1h-1z"/><path fill="#60a314" d="M25 20h1v1h-1zM26 20h1v1h-1zM27 20h1v1h-1zM28 20h1v1h-1z"/><path fill="#559012" d="M29 20h1v1h-1z"/><path fill="#89673a" d="M31 20h1v1h-1z"/><path fill="#9b7542" d="M32 20h1v1h-1z"/><path fill="#7f6036" d="M33 20h1v1h-1z"/><path fill="#b0854a" d="M34 20h1v1h-1zM35 20h1v1h-1zM36 20h1v1h-1zM37 20h1v1h-1z"/><path fill="#9b7542" d="M38 20h1v1h-1z"/><path fill="#7f6036" d="M39 20h1v1h-1z"/><path fill="#b0854a" d="M40 20h1v1h-1z"/><path fill="#bb9764" d="M41 20h1v1h-1zM42 20h1v1h-1zM43 20h1v1h-1z"/><path fill="#559012" d="M46 20h1v1h-1zM47 20h1v1h-1z"/><path fill="#60a314" d="M48 20h1v1h-1zM49 20h1v1h-1z"/><path fill="#6cb816" d="M50 20h1v1h-1zM51 20h1v1h-1z"/><path fill="#7dc031" d="M52 20h1v1h-1z"/><path fill="#559012" d="M65 20h1v1h-1zM66 20h1v1h-1z"/><path fill="#60a314" d="M67 20h1v1h-1zM68 20h1v1h-1z"/><path fill="#7dc031" d="M69 20h1v1h-1z"/><path fill="#6cb816" d="M23 21h1v1h-1z"/><path fill="#60a314" d="M24 21h1v1h-1zM25 21h1v1h-1z"/><path fill="#559012" d="M26 21h1v1h-1zM27 21h1v1h-1z"/><path fill="#89673a" d="M30 21h1v1h-1z"/><path fill="#9b7542" d="M31 21h1v1h-1zM32 21h1v1h-1zM33 21h1v1h-1z"/><path fill="#7f6036" d="M34 21h1v1h-1z"/><path fill="#b0854a" d="M35 21h1v1h-1zM36 21h1v1h-1zM37 21h1v1h-1zM38 21h1v1h-1z"/><path fill="#9b7542" d="M39 21h1v1h-1z"/><path fill="#7f6036" d="M40 21h1v1h-1z"/><path fill="#559012" d="M48 21h1v1h-1z"/><path fill="#60a314" d="M49 21h1v1h-1zM50 21h1v1h-1z"/><path fill="#6cb816" d="M51 21h1v1h-1zM52 21h1v1h-1z"/><path fill="#8cc749" d="M53 21h1v1h-1z"/><path fill="#559012" d="M67 21h1v1h-1z"/><path fill="#60a314" d="M68 21h1v1h-1zM69 21h1v1h-1z"/><path fill="#7dc031" d="M70 21h1v1h-1z"/><path fill="#6cb816" d="M23 22h1v1h-1z"/><path fill="#60a314" d="M24 22h1v1h-1z"/><path fill="#559012" d="M25 22h1v1h-1z"/><path fill="#89673a" d="M29 22h1v1h-1z"/><path fill="#9b7542" d="M30 22h1v1h-1zM31 22h1v1h-1z"/><path fill="#b0854a" d="M32 22h1v1h-1zM33 22h1v1h-1z"/><path fill="#9b7542" d="M34 22h1v1h-1z"/><path fill="#7f6036" d="M35 22h1v1h-1zM36 22h1v1h-1z"/><path fill="#bb9764" d="M37 22h1v1h-1zM38 22h1v1h-1z"/><path fill="#60a314" d="M50 22h1v1h-1zM51 22h1v1h-1z"/><path fill="#6cb816" d="M52 22h1v1h-1zM53 22h1v1h-1z"/><path fill="#7dc031" d="M54 22h1v1h-1z"/><path fill="#60a314" d="M23 23h1v1h-1z"/><path fill="#559012" d="M24 23h1v1h-1z"/><path fill="#7f6036" d="M28 23h1v1h-1zM29 23h1v1h-1z"/><path fill="#9b7542" d="M30 23h1v1h-1z"/><path fill="#b0854a" d="M31 23h1v1h-1zM32 23h1v1h-1zM33 23h1v1h-1zM34 23h1v1h-1z"/><path fill="#9b7542" d="M35 23h1v1h-1zM36 23h1v1h-1z"/><path fill="#559012" d="M50 23h1v1h-1z"/><path fill="#60a314" d="M51 23h1v1h-1z"/><path fill="#6cb816" d="M52 23h1v1h-1zM53 23h1v1h-1zM54 23h1v1h-1z"/><path fill="#8cc749" d="M55 23h1v1h-1z"/><path fill="#559012" d="M23 24h1v1h-1z"/><path fill="#89673a" d="M27 24h1v1h-1z"/><path fill="#9b7542" d="M28 24h1v1h-1zM29 24h1v1h-1z"/><path fill="#7f6036" d="M30 24h1v1h-1zM31 24h1v1h-1z"/><path fill="#b0854a" d="M32 24h1v1h-1zM33 24h1v1h-1z"/><path fill="#bb9764" d="M34 24h1v1h-1zM35 24h1v1h-1z"/><path fill="#559012" d="M51 24h1v1h-1z"/><path fill="#60a314" d="M52 24h1v1h-1z"/><path fill="#6cb816" d="M53 24h1v1h-1zM54 24h1v1h-1z"/><path fill="#8cc749" d="M55 24h1v1h-1z"/><path fill="#89673a" d="M26 25h1v1h-1z"/><path fill="#9b7542" d="M27 25h1v1h-1z"/><path fill="#b0854a" d="M28 25h1v1h-1zM29 25h1v1h-1z"/><path fill="#9b7542" d="M30 25h1v1h-1zM31 25h1v1h-1z"/><path fill="#7f6036" d="M32 25h1v1h-1z"/><path fill="#bb9764" d="M33 25h1v1h-1zM34 25h1v1h-1z"/><path fill="#60a314" d="M52 25h1v1h-1z"/><path fill="#6cb816" d="M53 25h1v1h-1zM54 25h1v1h-1z"/><path fill="#7dc031" d="M55 25h1v1h-1z"/><path fill="#89673a" d="M25 26h1v1h-1z"/><path fill="#9b7542" d="M26 26h1v1h-1z"/><path fill="#b0854a" d="M27 26h1v1h-1zM28 26h1v1h-1zM29 26h1v1h-1zM30 26h1v1h-1zM31 26h1v1h-1z"/><path fill="#9b7542" d="M32 26h1v1h-1z"/><path fill="#7f6036" d="M33 26h1v1h-1z"/><path fill="#60a314" d="M52 26h1v1h-1zM53 26h1v1h-1z"/><path fill="#6cb816" d="M54 26h1v1h-1zM55 26h1v1h-1z"/><path fill="#8cc749" d="M56 26h1v1h-1z"/><path fill="#7f6036" d="M25 27h1v1h-1zM26 27h1v1h-1zM27 27h1v1h-1zM28 27h1v1h-1zM29 27h1v1h-1z"/><path fill="#b0854a" d="M30 27h1v1h-1z"/><path fill="#bb9764" d="M31 27h1v1h-1zM32 27h1v1h-1z"/><path fill="#559012" d="M52 27h1v1h-1z"/><path fill="#60a314" d="M53 27h1v1h-1z"/><path fill="#6cb816" d="M54 27h1v1h-1zM55 27h1v1h-1z"/><path fill="#8cc749" d="M56 27h1v1h-1z"/><path fill="#89673a" d="M24 28h1v1h-1z"/><path fill="#9b7542" d="M25 28h1v1h-1z"/><path fill="#b0854a" d="M26 28h1v1h-1z"/><path fill="#9b7542" d="M27 28h1v1h-1zM28 28h1v1h-1zM29 28h1v1h-1z"/><path fill="#7f6036" d="M30 28h1v1h-1z"/><path fill="#bb9764" d="M31 28h1v1h-1z"/><path fill="#60a314" d="M53 28h1v1h-1z"/><path fill="#6cb816" d="M54 28h1v1h-1zM55 28h1v1h-1z"/><path fill="#7dc031" d="M56 28h1v1h-1z"/><path fill="#89673a" d="M24 29h1v1h-1z"/><path fill="#9b7542" d="M25 29h1v1h-1z"/><path fill="#b0854a" d="M26 29h1v1h-1zM27 29h1v1h-1zM28 29h1v1h-1z"/><path fill="#9b7542" d="M29 29h1v1h-1zM30 29h1v1h-1z"/><path fill="#559012" d="M53 29h1v1h-1z"/><path fill="#60a314" d="M54 29h1v1h-1z"/><path fill="#6cb816" d="M55 29h1v1h-1zM56 29h1v1h-1z"/><path fill="#8cc749" d="M57 29h1v1h-1z"/><path fill="#89673a" d="M23 30h1v1h-1z"/><path fill="#9b7542" d="M24 30h1v1h-1zM25 30h1v1h-1z"/><path fill="#b0854a" d="M26 30h1v1h-1zM27 30h1v1h-1zM28 30h1v1h-1z"/><path fill="#bb9764" d="M29 30h1v1h-1zM30 30h1v1h-1z"/><path fill="#60a314" d="M53 30h1v1h-1zM54 30h1v1h-1z"/><path fill="#6cb816" d="M55 30h1v1h-1zM56 30h1v1h-1z"/><path fill="#8cc749" d="M57 30h1v1h-1z"/><path fill="#89673a" d="M23 31h1v1h-1z"/><path fill="#9b7542" d="M24 31h1v1h-1z"/><path fill="#b0854a" d="M25 31h1v1h-1zM26 31h1v1h-1zM27 31h1v1h-1zM28 31h1v1h-1z"/><path fill="#bb9764" d="M29 31h1v1h-1z"/><path fill="#559012" d="M53 31h1v1h-1z"/><path fill="#60a314" d="M54 31h1v1h-1z"/><path fill="#6cb816" d="M55 31h1v1h-1zM56 31h1v1h-1z"/><path fill="#7dc031" d="M57 31h1v1h-1z"/><path fill="#7f6036" d="M22 32h1v1h-1zM23 32h1v1h-1zM24 32h1v1h-1zM25 32h1v1h-1zM26 32h1v1h-1zM27 32h1v1h-1z"/><path fill="#b0854a" d="M28 32h1v1h-1z"/><path fill="#bb9764" d="M29 32h1v1h-1z"/><path fill="#559012" d="M53 32h1v1h-1z"/><path fill="#60a314" d="M54 32h1v1h-1z"/><path fill="#6cb816" d="M55 32h1v1h-1zM56 32h1v1h-1z"/><path fill="#8cc749" d="M57 32h1v1h-1z"/><path fill="#89673a" d="M22 33h1v1h-1z"/><path fill="#9b7542" d="M23 33h1v1h-1zM24 33h1v1h-1zM25 33h1v1h-1zM26 33h1v1h-1zM27 33h1v1h-1z"/><path fill="#7f6036" d="M28 33h1v1h-1z"/><path fill="#60a314" d="M54 33h1v1h-1z"/><path fill="#6cb816" d="M55 33h1v1h-1z"/><path fill="#8cc749" d="M56 33h1v1h-1z"/><path fill="#89673a" d="M21 34h1v1h-1z"/><path fill="#9b7542" d="M22 34h1v1h-1zM23 34h1v1h-1z"/><path fill="#b0854a" d="M24 34h1v1h-1zM25 34h1v1h-1zM26 34h1v1h-1z"/><path fill="#9b7542" d="M27 34h1v1h-1z"/><path fill="#7f6036" d="M28 34h1v1h-1z"/><path fill="#559012" d="M54 34h1v1h-1z"/><path fill="#60a314" d="M55 34h1v1h-1z"/><path fill="#7dc031" d="M56 34h1v1h-1z"/><path fill="#89673a" d="M21 35h1v1h-1z"/><path fill="#9b7542" d="M22 35h1v1h-1z"/><path fill="#b0854a" d="M23 35h1v1h-1zM24 35h1v1h-1zM25 35h1v1h-1zM26 35h1v1h-1z"/><path fill="#bb9764" d="M27 35h1v1h-1z"/><path fill="#559012" d="M54 35h1v1h-1z"/><path fill="#60a314" d="M55 35h1v1h-1z"/><path fill="#8cc749" d="M56 35h1v1h-1z"/><path fill="#89673a" d="M20 36h1v1h-1z"/><path fill="#7f6036" d="M21 36h1v1h-1zM22 36h1v1h-1zM23 36h1v1h-1zM24 36h1v1h-1zM25 36h1v1h-1z"/><path fill="#b0854a" d="M26 36h1v1h-1z"/><path fill="#bb9764" d="M27 36h1v1h-1z"/><path fill="#60a314" d="M55 36h1v1h-1z"/><path fill="#8cc749" d="M56 36h1v1h-1z"/><path fill="#7f6036" d="M20 37h1v1h-1z"/><path fill="#9b7542" d="M21 37h1v1h-1zM22 37h1v1h-1zM23 37h1v1h-1zM24 37h1v1h-1zM25 37h1v1h-1z"/><path fill="#7f6036" d="M26 37h1v1h-1zM27 37h1v1h-1z"/><path fill="#8cc749" d="M56 37h1v1h-1z"/><path fill="#89673a" d="M19 38h1v1h-1z"/><path fill="#9b7542" d="M20 38h1v1h-1z"/><path fill="#b0854a" d="M21 38h1v1h-1zM22 38h1v1h-1zM23 38h1v1h-1zM24 38h1v1h-1z"/><path fill="#9b7542" d="M25 38h1v1h-1zM26 38h1v1h-1z"/><path fill="#89673a" d="M19 39h1v1h-1z"/><path fill="#9b7542" d="M20 39h1v1h-1z"/><path fill="#b0854a" d="M21 39h1v1h-1zM22 39h1v1h-1zM23 39h1v1h-1zM24 39h1v1h-1zM25 39h1v1h-1z"/><path fill="#9b7542" d="M26 39h1v1h-1z"/><path fill="#89673a" d="M18 40h1v1h-1z"/><path fill="#9b7542" d="M19 40h1v1h-1zM20 40h1v1h-1z"/><path fill="#b0854a" d="M21 40h1v1h-1zM22 40h1v1h-1zM23 40h1v1h-1zM24 40h1v1h-1z"/><path fill="#bb9764" d="M25 40h1v1h-1zM26 40h1v1h-1z"/><path fill="#89673a" d="M18 41h1v1h-1z"/><path fill="#7f6036" d="M19 41h1v1h-1zM20 41h1v1h-1zM21 41h1v1h-1zM22 41h1v1h-1zM23 41h1v1h-1z"/><path fill="#b0854a" d="M24 41h1v1h-1z"/><path fill="#bb9764" d="M25 41h1v1h-1z"/><path fill="#7f6036" d="M18 42h1v1h-1z"/><path fill="#9b7542" d="M19 42h1v1h-1zM20 42h1v1h-1zM21 42h1v1h-1zM22 42h1v1h-1zM23 42h1v1h-1z"/><path fill="#7f6036" d="M24 42h1v1h-1zM25 42h1v1h-1z"/><path fill="#89673a" d="M17 43h1v1h-1z"/><path fill="#9b7542" d="M18 43h1v1h-1z"/><path fill="#b0854a" d="M19 43h1v1h-1zM20 43h1v1h-1zM21 43h1v1h-1zM22 43h1v1h-1z"/><path fill="#9b7542" d="M23 43h1v1h-1zM24 43h1v1h-1zM25 43h1v1h-1z"/><path fill="#89673a" d="M17 44h1v1h-1z"/><path fill="#9b7542" d="M18 44h1v1h-1z"/><path fill="#b0854a" d="M19 44h1v1h-1zM20 44h1v1h-1zM21 44h1v1h-1zM22 44h1v1h-1zM23 44h1v1h-1z"/><path fill="#9b7542" d="M24 44h1v1h-1z"/><path fill="#89673a" d="M17 45h1v1h-1z"/><path fill="#9b7542" d="M18 45h1v1h-1z"/><path fill="#b0854a" d="M19 45h1v1h-1zM20 45h1v1h-1zM21 45h1v1h-1zM22 45h1v1h-1zM23 45h1v1h-1z"/><path fill="#bb9764" d="M24 45h1v1h-1z"/><path fill="#7f6036" d="M17 46h1v1h-1zM18 46h1v1h-1zM19 46h1v1h-1zM20 46h1v1h-1zM21 46h1v1h-1zM22 46h1v1h-1z"/><path fill="#bb9764" d="M23 46h1v1h-1zM24 46h1v1h-1z"/><path fill="#7f6036" d="M16 47h1v1h-1z"/><path fill="#9b7542" d="M17 47h1v1h-1zM18 47h1v1h-1zM19 47h1v1h-1zM20 47h1v1h-1zM21 47h1v1h-1zM22 47h1v1h-1z"/><path fill="#7f6036" d="M23 47h1v1h-1zM24 47h1v1h-1z"/><path fill="#89673a" d="M16 48h1v1h-1z"/><path fill="#9b7542" d="M17 48h1v1h-1z"/><path fill="#b0854a" d="M18 48h1v1h-1zM19 48h1v1h-1zM20 48h1v1h-1zM21 48h1v1h-1z"/><path fill="#9b7542" d="M22 48h1v1h-1zM23 48h1v1h-1z"/><path fill="#89673a" d="M16 49h1v1h-1z"/><path fill="#9b7542" d="M17 49h1v1h-1z"/><path fill="#b0854a" d="M18 49h1v1h-1zM19 49h1v1h-1zM20 49h1v1h-1zM21 49h1v1h-1zM22 49h1v1h-1z"/><path fill="#9b7542" d="M23 49h1v1h-1z"/><path fill="#89673a" d="M16 50h1v1h-1z"/><path fill="#9b7542" d="M17 50h1v1h-1z"/><path fill="#b0854a" d="M18 50h1v1h-1zM19 50h1v1h-1zM20 50h1v1h-1zM21 50h1v1h-1zM22 50h1v1h-1z"/><path fill="#bb9764" d="M23 50h1v1h-1z"/><path fill="#89673a" d="M15 51h1v1h-1z"/><path fill="#9b7542" d="M16 51h1v1h-1zM17 51h1v1h-1z"/><path fill="#b0854a" d="M18 51h1v1h-1zM19 51h1v1h-1zM20 51h1v1h-1zM21 51h1v1h-1zM22 51h1v1h-1z"/><path fill="#bb9764" d="M23 51h1v1h-1z"/><path fill="#7f6036" d="M15 52h1v1h-1zM16 52h1v1h-1zM17 52h1v1h-1zM18 52h1v1h-1zM19 52h1v1h-1zM20 52h1v1h-1zM21 52h1v1h-1z"/><path fill="#bb9764" d="M22 52h1v1h-1zM23 52h1v1h-1z"/><path fill="#89673a" d="M15 53h1v1h-1z"/><path fill="#9b7542" d="M16 53h1v1h-1zM17 53h1v1h-1zM18 53h1v1h-1zM19 53h1v1h-1zM20 53h1v1h-1zM21 53h1v1h-1z"/><path fill="#7f6036" d="M22 53h1v1h-1z"/><path fill="#361909" d="M68 53h1v1h-1z"/><path fill="#3b1b09" d="M69 53h1v1h-1z"/><path fill="#462817" d="M70 53h1v1h-1zM71 53h1v1h-1z"/><path fill="#89673a" d="M15 54h1v1h-1z"/><path fill="#9b7542" d="M16 54h1v1h-1z"/><path fill="#b0854a" d="M17 54h1v1h-1zM18 54h1v1h-1zM19 54h1v1h-1zM20 54h1v1h-1z"/><path fill="#9b7542" d="M21 54h1v1h-1zM22 54h1v1h-1z"/><path fill="#361909" d="M67 54h1v1h-1z"/><path fill="#3b1b09" d="M68 54h1v1h-1zM69 54h1v1h-1zM70 54h1v1h-1zM71 54h1v1h-1z"/><path fill="#462817" d="M72 54h1v1h-1z"/><path fill="#89673a" d="M14 55h1v1h-1z"/><path fill="#9b7542" d="M15 55h1v1h-1zM16 55h1v1h-1z"/><path fill="#b0854a" d="M17 55h1v1h-1zM18 55h1v1h-1zM19 55h1v1h-1zM20 55h1v1h-1zM21 55h1v1h-1z"/><path fill="#bb9764" d="M22 55h1v1h-1z"/><path fill="#361909" d="M67 55h1v1h-1z"/><path fill="#3b1b09" d="M68 55h1v1h-1z"/><path fill="#e7b394" d="M69 55h1v1h-1z"/><path fill="#f5be9d" d="M70 55h1v1h-1zM71 55h1v1h-1z"/><path fill="#f6c5a8" d="M72 55h1v1h-1z"/><path fill="#89673a" d="M14 56h1v1h-1z"/><path fill="#7f6036" d="M15 56h1v1h-1zM16 56h1v1h-1zM17 56h1v1h-1zM18 56h1v1h-1zM19 56h1v1h-1zM20 56h1v1h-1z"/><path fill="#bb9764" d="M21 56h1v1h-1zM22 56h1v1h-1z"/><path fill="#361909" d="M67 56h1v1h-1z"/><path fill="#3b1b09" d="M68 56h1v1h-1z"/><path fill="#f5be9d" d="M69 56h1v1h-1zM70 56h1v1h-1zM71 56h1v1h-1z"/><path fill="#f6c5a8" d="M72 56h1v1h-1z"/><path fill="#7f6036" d="M14 57h1v1h-1z"/><path fill="#9b7542" d="M15 57h1v1h-1zM16 57h1v1h-1zM17 57h1v1h-1zM18 57h1v1h-1zM19 57h1v1h-1zM20 57h1v1h-1z"/><path fill="#7f6036" d="M21 57h1v1h-1z"/><path fill="#e7b394" d="M67 57h1v1h-1zM68 57h1v1h-1z"/><path fill="#f5be9d" d="M69 57h1v1h-1zM70 57h1v1h-1zM71 57h1v1h-1zM72 57h1v1h-1z"/><path fill="#89673a" d="M14 58h1v1h-1z"/><path fill="#9b7542" d="M15 58h1v1h-1z"/><path fill="#b0854a" d="M16 58h1v1h-1zM17 58h1v1h-1zM18 58h1v1h-1zM19 58h1v1h-1zM20 58h1v1h-1z"/><path fill="#9b7542" d="M21 58h1v1h-1z"/><path fill="#361909" d="M67 58h1v1h-1z"/><path fill="#f5be9d" d="M68 58h1v1h-1zM69 58h1v1h-1zM70 58h1v1h-1zM71 58h1v1h-1zM72 58h1v1h-1z"/><path fill="#89673a" d="M13 59h1v1h-1z"/><path fill="#9b7542" d="M14 59h1v1h-1zM15 59h1v1h-1z"/><path fill="#b0854a" d="M16 59h1v1h-1zM17 59h1v1h-1zM18 59h1v1h-1zM19 59h1v1h-1zM20 59h1v1h-1z"/><path fill="#bb9764" d="M21 59h1v1h-1z"/><path fill="#f5be9d" d="M68 59h1v1h-1zM69 59h1v1h-1zM70 59h1v1h-1zM71 59h1v1h-1zM72 59h1v1h-1z"/><path fill="#89673a" d="M13 60h1v1h-1z"/><path fill="#9b7542" d="M14 60h1v1h-1z"/><path fill="#b0854a" d="M15 60h1v1h-1zM16 60h1v1h-1zM17 60h1v1h-1zM18 60h1v1h-1zM19 60h1v1h-1z"/><path fill="#bb9764" d="M20 60h1v1h-1zM21 60h1v1h-1z"/><path fill="#2e785b" d="M65 60h1v1h-1z"/><path fill="#b4202a" d="M66 60h1v1h-1zM67 60h1v1h-1zM68 60h1v1h-1z"/><path fill="#ebb696" d="M69 60h1v1h-1zM70 60h1v1h-1zM71 60h1v1h-1z"/><path fill="#bd3b44" d="M72 60h1v1h-1zM73 60h1v1h-1zM74 60h1v1h-1z"/><path fill="#7f6036" d="M13 61h1v1h-1zM14 61h1v1h-1zM15 61h1v1h-1zM16 61h1v1h-1zM17 61h1v1h-1zM18 61h1v1h-1zM19 61h1v1h-1zM20 61h1v1h-1z"/><path fill="#9e1c25" d="M64 61h1v1h-1z"/><path fill="#b4202a" d="M65 61h1v1h-1z"/><path fill="#328464" d="M66 61h1v1h-1z"/><path fill="#b4202a" d="M67 61h1v1h-1zM68 61h1v1h-1z"/><path fill="#e0ad8f" d="M69 61h1v1h-1z"/><path fill="#ebb696" d="M70 61h1v1h-1z"/><path fill="#b4202a" d="M71 61h1v1h-1zM72 61h1v1h-1z"/><path fill="#328464" d="M73 61h1v1h-1z"/><path fill="#bd3b44" d="M74 61h1v1h-1zM75 61h1v1h-1z"/><path fill="#7f6036" d="M12 62h1v1h-1z"/><path fill="#9b7542" d="M13 62h1v1h-1zM14 62h1v1h-1zM15 62h1v1h-1zM16 62h1v1h-1zM17 62h1v1h-1zM18 62h1v1h-1zM19 62h1v1h-1zM20 62h1v1h-1z"/><path fill="#9e1c25" d="M64 62h1v1h-1z"/><path fill="#b4202a" d="M65 62h1v1h-1zM66 62h1v1h-1zM67 62h1v1h-1zM68 62h1v1h-1zM69 62h1v1h-1z"/><path fill="#e0ad8f" d="M70 62h1v1h-1z"/><path fill="#b4202a" d="M71 62h1v1h-1zM72 62h1v1h-1z"/><path fill="#328464" d="M73 62h1v1h-1z"/><path fill="#b4202a" d="M74 62h1v1h-1z"/><path fill="#bd3b44" d="M75 62h1v1h-1z"/><path fill="#89673a" d="M12 63h1v1h-1z"/><path fill="#9b7542" d="M13 63h1v1h-1z"/><path fill="#b0854a" d="M14 63h1v1h-1zM15 63h1v1h-1zM16 63h1v1h-1zM17 63h1v1h-1zM18 63h1v1h-1zM19 63h1v1h-1z"/><path fill="#9b7542" d="M20 63h1v1h-1z"/><path fill="#9e1c25" d="M64 63h1v1h-1z"/><path fill="#b4202a" d="M65 63h1v1h-1zM66 63h1v1h-1zM67 63h1v1h-1zM68 63h1v1h-1zM69 63h1v1h-1z"/><path fill="#422433" d="M70 63h1v1h-1z"/><path fill="#328464" d="M71 63h1v1h-1z"/><path fill="#b4202a" d="M72 63h1v1h-1zM73 63h1v1h-1zM74 63h1v1h-1z"/><path fill="#bd3b44" d="M75 63h1v1h-1z"/><path fill="#89673a" d="M12 64h1v1h-1z"/><path fill="#9b7542" d="M13 64h1v1h-1z"/><path fill="#b0854a" d="M14 64h1v1h-1zM15 64h1v1h-1zM16 64h1v1h-1zM17 64h1v1h-1zM18 64h1v1h-1zM19 64h1v1h-1z"/><path fill="#bb9764" d="M20 64h1v1h-1z"/><path fill="#e7b394" d="M64 64h1v1h-1z"/><path fill="#f5be9d" d="M65 64h1v1h-1z"/><path fill="#b4202a" d="M66 64h1v1h-1z"/><path fill="#328464" d="M67 64h1v1h-1z"/><path fill="#b4202a" d="M68 64h1v1h-1zM69 64h1v1h-1z"/><path fill="#2e785b" d="M70 64h1v1h-1z"/><path fill="#cf5808" d="M71 64h1v1h-1z"/><path fill="#b4202a" d="M72 64h1v1h-1z"/><path fill="#9e1c25" d="M73 64h1v1h-1z"/><path fill="#f5be9d" d="M74 64h1v1h-1z"/><path fill="#f6c5a8" d="M75 64h1v1h-1z"/><path fill="#89673a" d="M12 65h1v1h-1z"/><path fill="#9b7542" d="M13 65h1v1h-1z"/><path fill="#b0854a" d="M14 65h1v1h-1zM15 65h1v1h-1zM16 65h1v1h-1zM17 65h1v1h-1zM18 65h1v1h-1z"/><path fill="#bb9764" d="M19 65h1v1h-1zM20 65h1v1h-1z"/><path fill="#e7b394" d="M64 65h1v1h-1z"/><path fill="#f5be9d" d="M65 65h1v1h-1z"/><path fill="#cf5808" d="M66 65h1v1h-1z"/><path fill="#328464" d="M67 65h1v1h-1z"/><path fill="#b4202a" d="M68 65h1v1h-1zM69 65h1v1h-1z"/><path fill="#9e1c25" d="M70 65h1v1h-1z"/><path fill="#b4202a" d="M71 65h1v1h-1zM72 65h1v1h-1z"/><path fill="#9e1c25" d="M73 65h1v1h-1z"/><path fill="#f5be9d" d="M74 65h1v1h-1z"/><path fill="#f6c5a8" d="M75 65h1v1h-1z"/><path fill="#7f6036" d="M12 66h1v1h-1zM13 66h1v1h-1zM14 66h1v1h-1zM15 66h1v1h-1zM16 66h1v1h-1zM17 66h1v1h-1zM18 66h1v1h-1zM19 66h1v1h-1z"/><path fill="#e7b394" d="M64 66h1v1h-1z"/><path fill="#f5be9d" d="M65 66h1v1h-1z"/><path fill="#328464" d="M66 66h1v1h-1z"/><path fill="#b4202a" d="M67 66h1v1h-1zM68 66h1v1h-1zM69 66h1v1h-1z"/><path fill="#422433" d="M70 66h1v1h-1z"/><path fill="#b4202a" d="M71 66h1v1h-1zM72 66h1v1h-1z"/><path fill="#2e785b" d="M73 66h1v1h-1z"/><path fill="#f5be9d" d="M74 66h1v1h-1z"/><path fill="#f6c5a8" d="M75 66h1v1h-1z"/><path fill="#7f6036" d="M11 67h1v1h-1z"/><path fill="#9b7542" d="M12 67h1v1h-1zM13 67h1v1h-1zM14 67h1v1h-1zM15 67h1v1h-1zM16 67h1v1h-1zM17 67h1v1h-1zM18 67h1v1h-1zM19 67h1v1h-1z"/><path fill="#e7b394" d="M64 67h1v1h-1z"/><path fill="#f5be9d" d="M65 67h1v1h-1z"/><path fill="#b4202a" d="M66 67h1v1h-1zM67 67h1v1h-1zM68 67h1v1h-1zM69 67h1v1h-1z"/><path fill="#9e1c25" d="M70 67h1v1h-1z"/><path fill="#328464" d="M71 67h1v1h-1zM72 67h1v1h-1z"/><path fill="#b74e08" d="M73 67h1v1h-1z"/><path fill="#f5be9d" d="M74 67h1v1h-1z"/><path fill="#f6c5a8" d="M75 67h1v1h-1z"/><path fill="#89673a" d="M11 68h1v1h-1z"/><path fill="#9b7542" d="M12 68h1v1h-1z"/><path fill="#b0854a" d="M13 68h1v1h-1zM14 68h1v1h-1zM15 68h1v1h-1zM16 68h1v1h-1zM17 68h1v1h-1zM18 68h1v1h-1z"/><path fill="#9b7542" d="M19 68h1v1h-1z"/><path fill="#e7b394" d="M65 68h1v1h-1z"/><path fill="#b4202a" d="M66 68h1v1h-1zM67 68h1v1h-1zM68 68h1v1h-1zM69 68h1v1h-1zM70 68h1v1h-1zM71 68h1v1h-1zM72 68h1v1h-1z"/><path fill="#328464" d="M73 68h1v1h-1z"/><path fill="#f6c5a8" d="M74 68h1v1h-1z"/><path fill="#89673a" d="M11 69h1v1h-1z"/><path fill="#9b7542" d="M12 69h1v1h-1z"/><path fill="#7f6036" d="M13 69h1v1h-1zM14 69h1v1h-1zM15 69h1v1h-1zM16 69h1v1h-1zM17 69h1v1h-1zM18 69h1v1h-1z"/><path fill="#bb9764" d="M19 69h1v1h-1z"/><path fill="#e7b394" d="M65 69h1v1h-1z"/><path fill="#143464" d="M66 69h1v1h-1z"/><path fill="#b4202a" d="M67 69h1v1h-1zM68 69h1v1h-1zM69 69h1v1h-1z"/><path fill="#9e1c25" d="M70 69h1v1h-1z"/><path fill="#b4202a" d="M71 69h1v1h-1zM72 69h1v1h-1z"/><path fill="#143464" d="M73 69h1v1h-1z"/><path fill="#e7b394" d="M74 69h1v1h-1z"/><path fill="#7f6036" d="M11 70h1v1h-1zM12 70h1v1h-1z"/><path fill="#9b7542" d="M13 70h1v1h-1zM14 70h1v1h-1zM15 70h1v1h-1zM16 70h1v1h-1zM17 70h1v1h-1zM18 70h1v1h-1z"/><path fill="#7f6036" d="M19 70h1v1h-1z"/><path fill="#143464" d="M66 70h1v1h-1zM67 70h1v1h-1zM68 70h1v1h-1zM69 70h1v1h-1zM70 70h1v1h-1zM71 70h1v1h-1zM72 70h1v1h-1zM73 70h1v1h-1z"/><path fill="#89673a" d="M11 71h1v1h-1z"/><path fill="#9b7542" d="M12 71h1v1h-1z"/><path fill="#b0854a" d="M13 71h1v1h-1zM14 71h1v1h-1zM15 71h1v1h-1zM16 71h1v1h-1zM17 71h1v1h-1z"/><path fill="#bb9764" d="M18 71h1v1h-1z"/><path fill="#64c351" d="M64 71h1v1h-1z"/><path fill="#143464" d="M66 71h1v1h-1zM67 71h1v1h-1zM68 71h1v1h-1zM69 71h1v1h-1zM70 71h1v1h-1zM71 71h1v1h-1zM72 71h1v1h-1zM73 71h1v1h-1z"/><path fill="#64c351" d="M9 72h1v1H9z"/><path fill="#89673a" d="M10 72h1v1h-1z"/><path fill="#9b7542" d="M11 72h1v1h-1zM12 72h1v1h-1z"/><path fill="#b0854a" d="M13 72h1v1h-1z"/><path fill="#64c351" d="M14 72h1v1h-1z"/><path fill="#b0854a" d="M15 72h1v1h-1zM16 72h1v1h-1zM17 72h1v1h-1z"/><path fill="#bb9764" d="M18 72h1v1h-1z"/><path fill="#64c351" d="M19 72h1v1h-1zM26 72h1v1h-1zM33 72h1v1h-1zM38 72h1v1h-1zM45 72h1v1h-1zM52 72h1v1h-1zM53 72h1v1h-1zM62 72h1v1h-1z"/><path fill="#50bb3a" d="M64 72h1v1h-1z"/><path fill="#64c351" d="M65 72h1v1h-1z"/><path fill="#143464" d="M66 72h1v1h-1zM67 72h1v1h-1zM68 72h1v1h-1zM69 72h1v1h-1zM70 72h1v1h-1zM71 72h1v1h-1zM72 72h1v1h-1zM73 72h1v1h-1z"/><path fill="#64c351" d="M76 72h1v1h-1zM77 72h1v1h-1z"/><path fill="#50bb3a" d="M8 73h1v1H8zM9 73h1v1H9z"/><path fill="#89673a" d="M10 73h1v1h-1z"/><path fill="#7f6036" d="M11 73h1v1h-1z"/><path fill="#64c351" d="M12 73h1v1h-1z"/><path fill="#7f6036" d="M13 73h1v1h-1z"/><path fill="#50bb3a" d="M14 73h1v1h-1z"/><path fill="#64c351" d="M15 73h1v1h-1z"/><path fill="#7f6036" d="M16 73h1v1h-1z"/><path fill="#bb9764" d="M17 73h1v1h-1zM18 73h1v1h-1z"/><path fill="#64c351" d="M19 73h1v1h-1zM20 73h1v1h-1z"/><path fill="#50bb3a" d="M26 73h1v1h-1z"/><path fill="#64c351" d="M27 73h1v1h-1z"/><path fill="#50bb3a" d="M32 73h1v1h-1zM33 73h1v1h-1zM38 73h1v1h-1zM39 73h1v1h-1z"/><path fill="#64c351" d="M40 73h1v1h-1z"/><path fill="#50bb3a" d="M45 73h1v1h-1z"/><path fill="#64c351" d="M46 73h1v1h-1z"/><path fill="#50bb3a" d="M51 73h1v1h-1zM52 73h1v1h-1zM53 73h1v1h-1z"/><path fill="#64c351" d="M54 73h1v1h-1z"/><path fill="#50bb3a" d="M62 73h1v1h-1zM63 73h1v1h-1zM64 73h1v1h-1zM65 73h1v1h-1z"/><path fill="#143464" d="M66 73h1v1h-1zM67 73h1v1h-1zM68 73h1v1h-1zM69 73h1v1h-1zM70 73h1v1h-1zM71 73h1v1h-1zM72 73h1v1h-1zM73 73h1v1h-1z"/><path fill="#50bb3a" d="M75 73h1v1h-1zM76 73h1v1h-1zM5 74h1v1H5z"/><path fill="#64c351" d="M6 74h1v1H6zM7 74h1v1H7z"/><path fill="#39b320" d="M8 74h1v1H8zM9 74h1v1H9z"/><path fill="#7f6036" d="M10 74h1v1h-1z"/><path fill="#9b7542" d="M11 74h1v1h-1z"/><path fill="#50bb3a" d="M12 74h1v1h-1z"/><path fill="#9b7542" d="M13 74h1v1h-1z"/><path fill="#50bb3a" d="M14 74h1v1h-1zM15 74h1v1h-1zM16 74h1v1h-1z"/><path fill="#64c351" d="M17 74h1v1h-1z"/><path fill="#7f6036" d="M18 74h1v1h-1z"/><path fill="#64c351" d="M19 74h1v1h-1z"/><path fill="#50bb3a" d="M20 74h1v1h-1z"/><path fill="#64c351" d="M21 74h1v1h-1zM22 74h1v1h-1zM23 74h1v1h-1z"/><path fill="#50bb3a" d="M24 74h1v1h-1zM25 74h1v1h-1zM26 74h1v1h-1zM27 74h1v1h-1z"/><path fill="#64c351" d="M28 74h1v1h-1zM29 74h1v1h-1zM30 74h1v1h-1z"/><path fill="#50bb3a" d="M31 74h1v1h-1zM32 74h1v1h-1zM33 74h1v1h-1z"/><path fill="#64c351" d="M34 74h1v1h-1zM35 74h1v1h-1zM36 74h1v1h-1z"/><path fill="#50bb3a" d="M37 74h1v1h-1zM38 74h1v1h-1zM39 74h1v1h-1zM40 74h1v1h-1zM41 74h1v1h-1z"/><path fill="#64c351" d="M42 74h1v1h-1z"/><path fill="#141013" d="M43 74h1v1h-1z"/><path fill="#50bb3a" d="M44 74h1v1h-1z"/><path fill="#141013" d="M45 74h1v1h-1z"/><path fill="#50bb3a" d="M46 74h1v1h-1zM47 74h1v1h-1z"/><path fill="#64c351" d="M48 74h1v1h-1zM49 74h1v1h-1z"/><path fill="#50bb3a" d="M50 74h1v1h-1zM51 74h1v1h-1zM52 74h1v1h-1zM53 74h1v1h-1zM54 74h1v1h-1z"/><path fill="#64c351" d="M55 74h1v1h-1zM56 74h1v1h-1zM57 74h1v1h-1zM58 74h1v1h-1z"/><path fill="#50bb3a" d="M59 74h1v1h-1z"/><path fill="#64c351" d="M60 74h1v1h-1z"/><path fill="#50bb3a" d="M61 74h1v1h-1zM62 74h1v1h-1zM63 74h1v1h-1zM64 74h1v1h-1zM65 74h1v1h-1z"/><path fill="#143464" d="M66 74h1v1h-1zM67 74h1v1h-1zM68 74h1v1h-1z"/><path fill="#50bb3a" d="M69 74h1v1h-1z"/><path fill="#64c351" d="M70 74h1v1h-1z"/><path fill="#143464" d="M71 74h1v1h-1zM72 74h1v1h-1zM73 74h1v1h-1z"/><path fill="#50bb3a" d="M74 74h1v1h-1zM75 74h1v1h-1zM76 74h1v1h-1z"/><path fill="#64c351" d="M77 74h1v1h-1z"/><path fill="#50bb3a" d="M3 75h1v1H3zM4 75h1v1H4z"/><path fill="#39b320" d="M5 75h1v1H5z"/><path fill="#50bb3a" d="M6 75h1v1H6zM7 75h1v1H7z"/><path fill="#39b320" d="M8 75h1v1H8z"/><path fill="#50bb3a" d="M9 75h1v1H9z"/><path fill="#64c351" d="M10 75h1v1h-1z"/><path fill="#9b7542" d="M11 75h1v1h-1z"/><path fill="#50bb3a" d="M12 75h1v1h-1zM13 75h1v1h-1zM14 75h1v1h-1zM15 75h1v1h-1zM16 75h1v1h-1zM17 75h1v1h-1zM18 75h1v1h-1z"/><path fill="#64c351" d="M19 75h1v1h-1z"/><path fill="#39b320" d="M20 75h1v1h-1zM21 75h1v1h-1zM22 75h1v1h-1zM23 75h1v1h-1zM24 75h1v1h-1zM25 75h1v1h-1zM26 75h1v1h-1zM27 75h1v1h-1z"/><path fill="#50bb3a" d="M28 75h1v1h-1zM29 75h1v1h-1zM30 75h1v1h-1zM31 75h1v1h-1z"/><path fill="#39b320" d="M32 75h1v1h-1zM33 75h1v1h-1zM34 75h1v1h-1zM35 75h1v1h-1zM36 75h1v1h-1z"/><path fill="#50bb3a" d="M37 75h1v1h-1zM38 75h1v1h-1zM39 75h1v1h-1zM40 75h1v1h-1zM41 75h1v1h-1z"/><path fill="#141013" d="M42 75h1v1h-1z"/><path fill="#704d48" d="M43 75h1v1h-1z"/><path fill="#141013" d="M44 75h1v1h-1z"/><path fill="#704d48" d="M45 75h1v1h-1z"/><path fill="#141013" d="M46 75h1v1h-1z"/><path fill="#50bb3a" d="M47 75h1v1h-1z"/><path fill="#39b320" d="M48 75h1v1h-1zM49 75h1v1h-1zM50 75h1v1h-1z"/><path fill="#50bb3a" d="M51 75h1v1h-1zM52 75h1v1h-1zM53 75h1v1h-1zM54 75h1v1h-1zM55 75h1v1h-1zM56 75h1v1h-1z"/><path fill="#39b320" d="M57 75h1v1h-1zM58 75h1v1h-1z"/><path fill="#50bb3a" d="M59 75h1v1h-1z"/><path fill="#39b320" d="M60 75h1v1h-1zM61 75h1v1h-1zM62 75h1v1h-1zM63 75h1v1h-1z"/><path fill="#50bb3a" d="M64 75h1v1h-1z"/><path fill="#39b320" d="M65 75h1v1h-1z"/><path fill="#143464" d="M66 75h1v1h-1zM67 75h1v1h-1zM68 75h1v1h-1z"/><path fill="#50bb3a" d="M69 75h1v1h-1z"/><path fill="#39b320" d="M70 75h1v1h-1z"/><path fill="#143464" d="M71 75h1v1h-1zM72 75h1v1h-1zM73 75h1v1h-1z"/><path fill="#50bb3a" d="M74 75h1v1h-1zM75 75h1v1h-1zM76 75h1v1h-1z"/><path fill="#39b320" d="M77 75h1v1h-1z"/><path fill="#50bb3a" d="M78 75h1v1h-1z"/><path fill="#64c351" d="M79 75h1v1h-1z"/><path fill="#50bb3a" d="M2 76h1v1H2z"/><path fill="#39b320" d="M3 76h1v1H3zM4 76h1v1H4zM5 76h1v1H5zM6 76h1v1H6zM7 76h1v1H7z"/><path fill="#64c351" d="M8 76h1v1H8z"/><path fill="#39b320" d="M9 76h1v1H9z"/><path fill="#50bb3a" d="M10 76h1v1h-1zM11 76h1v1h-1zM12 76h1v1h-1zM13 76h1v1h-1z"/><path fill="#39b320" d="M14 76h1v1h-1zM15 76h1v1h-1z"/><path fill="#50bb3a" d="M16 76h1v1h-1z"/><path fill="#39b320" d="M17 76h1v1h-1zM18 76h1v1h-1z"/><path fill="#50bb3a" d="M19 76h1v1h-1z"/><path fill="#39b320" d="M20 76h1v1h-1z"/><path fill="#50bb3a" d="M21 76h1v1h-1z"/><path fill="#64c351" d="M22 76h1v1h-1z"/><path fill="#39b320" d="M23 76h1v1h-1z"/><path fill="#64c351" d="M24 76h1v1h-1zM25 76h1v1h-1z"/><path fill="#39b320" d="M26 76h1v1h-1zM27 76h1v1h-1zM28 76h1v1h-1zM29 76h1v1h-1zM30 76h1v1h-1zM31 76h1v1h-1z"/><path fill="#64c351" d="M32 76h1v1h-1z"/><path fill="#39b320" d="M33 76h1v1h-1zM34 76h1v1h-1zM35 76h1v1h-1z"/><path fill="#64c351" d="M36 76h1v1h-1z"/><path fill="#39b320" d="M37 76h1v1h-1zM38 76h1v1h-1zM39 76h1v1h-1zM40 76h1v1h-1zM41 76h1v1h-1z"/><path fill="#141013" d="M42 76h1v1h-1z"/><path fill="#704d48" d="M43 76h1v1h-1z"/><path fill="#141013" d="M44 76h1v1h-1z"/><path fill="#704d48" d="M45 76h1v1h-1z"/><path fill="#141013" d="M46 76h1v1h-1z"/><path fill="#39b320" d="M47 76h1v1h-1zM48 76h1v1h-1zM49 76h1v1h-1zM50 76h1v1h-1zM51 76h1v1h-1zM52 76h1v1h-1zM53 76h1v1h-1zM54 76h1v1h-1zM55 76h1v1h-1zM56 76h1v1h-1zM57 76h1v1h-1zM58 76h1v1h-1zM59 76h1v1h-1z"/><path fill="#50bb3a" d="M60 76h1v1h-1zM61 76h1v1h-1zM62 76h1v1h-1zM63 76h1v1h-1zM64 76h1v1h-1z"/><path fill="#39b320" d="M65 76h1v1h-1z"/><path fill="#143464" d="M66 76h1v1h-1zM67 76h1v1h-1zM68 76h1v1h-1z"/><path fill="#39b320" d="M69 76h1v1h-1zM70 76h1v1h-1z"/><path fill="#143464" d="M71 76h1v1h-1zM72 76h1v1h-1zM73 76h1v1h-1z"/><path fill="#39b320" d="M74 76h1v1h-1zM75 76h1v1h-1zM76 76h1v1h-1zM77 76h1v1h-1zM78 76h1v1h-1zM79 76h1v1h-1z"/><path fill="#64c351" d="M80 76h1v1h-1zM81 76h1v1h-1z"/><path fill="#50bb3a" d="M2 77h1v1H2z"/><path fill="#39b320" d="M3 77h1v1H3zM4 77h1v1H4zM5 77h1v1H5zM6 77h1v1H6zM7 77h1v1H7z"/><path fill="#50bb3a" d="M8 77h1v1H8zM9 77h1v1H9zM10 77h1v1h-1z"/><path fill="#39b320" d="M11 77h1v1h-1z"/><path fill="#50bb3a" d="M12 77h1v1h-1z"/><path fill="#39b320" d="M13 77h1v1h-1zM14 77h1v1h-1z"/><path fill="#339e1d" d="M15 77h1v1h-1z"/><path fill="#39b320" d="M16 77h1v1h-1zM17 77h1v1h-1z"/><path fill="#50bb3a" d="M18 77h1v1h-1zM19 77h1v1h-1z"/><path fill="#39b320" d="M20 77h1v1h-1z"/><path fill="#50bb3a" d="M21 77h1v1h-1z"/><path fill="#39b320" d="M22 77h1v1h-1z"/><path fill="#50bb3a" d="M23 77h1v1h-1zM24 77h1v1h-1z"/><path fill="#39b320" d="M25 77h1v1h-1zM26 77h1v1h-1zM27 77h1v1h-1zM28 77h1v1h-1zM29 77h1v1h-1zM30 77h1v1h-1z"/><path fill="#50bb3a" d="M31 77h1v1h-1z"/><path fill="#39b320" d="M32 77h1v1h-1zM33 77h1v1h-1zM34 77h1v1h-1zM35 77h1v1h-1zM36 77h1v1h-1z"/><path fill="#50bb3a" d="M37 77h1v1h-1z"/><path fill="#39b320" d="M38 77h1v1h-1zM39 77h1v1h-1zM40 77h1v1h-1z"/><path fill="#141013" d="M41 77h1v1h-1z"/><path fill="#704d48" d="M42 77h1v1h-1zM43 77h1v1h-1z"/><path fill="#dae0cc" d="M44 77h1v1h-1z"/><path fill="#704d48" d="M45 77h1v1h-1z"/><path fill="#dae0cc" d="M46 77h1v1h-1z"/><path fill="#141013" d="M47 77h1v1h-1z"/><path fill="#39b320" d="M48 77h1v1h-1z"/><path fill="#64c351" d="M49 77h1v1h-1z"/><path fill="#39b320" d="M50 77h1v1h-1z"/><path fill="#64c351" d="M51 77h1v1h-1z"/><path fill="#39b320" d="M52 77h1v1h-1zM53 77h1v1h-1zM54 77h1v1h-1zM55 77h1v1h-1zM56 77h1v1h-1z"/><path fill="#64c351" d="M57 77h1v1h-1zM58 77h1v1h-1z"/><path fill="#39b320" d="M59 77h1v1h-1zM60 77h1v1h-1zM61 77h1v1h-1zM62 77h1v1h-1zM63 77h1v1h-1zM64 77h1v1h-1zM65 77h1v1h-1z"/><path fill="#143464" d="M66 77h1v1h-1zM67 77h1v1h-1z"/><path fill="#39b320" d="M68 77h1v1h-1zM69 77h1v1h-1zM70 77h1v1h-1zM71 77h1v1h-1z"/><path fill="#143464" d="M72 77h1v1h-1zM73 77h1v1h-1z"/><path fill="#39b320" d="M74 77h1v1h-1zM75 77h1v1h-1z"/><path fill="#50bb3a" d="M76 77h1v1h-1z"/><path fill="#39b320" d="M77 77h1v1h-1zM78 77h1v1h-1zM79 77h1v1h-1z"/><path fill="#50bb3a" d="M80 77h1v1h-1zM81 77h1v1h-1z"/><path fill="#64c351" d="M82 77h1v1h-1zM83 77h1v1h-1z"/><path fill="#50bb3a" d="M1 78h1v1H1z"/><path fill="#39b320" d="M2 78h1v1H2zM3 78h1v1H3zM4 78h1v1H4zM5 78h1v1H5z"/><path fill="#64c351" d="M6 78h1v1H6zM7 78h1v1H7z"/><path fill="#39b320" d="M8 78h1v1H8z"/><path fill="#50bb3a" d="M9 78h1v1H9z"/><path fill="#39b320" d="M10 78h1v1h-1z"/><path fill="#339e1d" d="M11 78h1v1h-1z"/><path fill="#39b320" d="M12 78h1v1h-1z"/><path fill="#339e1d" d="M13 78h1v1h-1z"/><path fill="#39b320" d="M14 78h1v1h-1z"/><path fill="#339e1d" d="M15 78h1v1h-1z"/><path fill="#39b320" d="M16 78h1v1h-1z"/><path fill="#339e1d" d="M17 78h1v1h-1z"/><path fill="#39b320" d="M18 78h1v1h-1z"/><path fill="#339e1d" d="M19 78h1v1h-1z"/><path fill="#39b320" d="M20 78h1v1h-1z"/><path fill="#50bb3a" d="M21 78h1v1h-1zM22 78h1v1h-1zM23 78h1v1h-1z"/><path fill="#39b320" d="M24 78h1v1h-1z"/><path fill="#64c351" d="M25 78h1v1h-1zM26 78h1v1h-1z"/><path fill="#39b320" d="M27 78h1v1h-1zM28 78h1v1h-1zM29 78h1v1h-1zM30 78h1v1h-1zM31 78h1v1h-1zM32 78h1v1h-1zM33 78h1v1h-1zM34 78h1v1h-1zM35 78h1v1h-1z"/><path fill="#141013" d="M36 78h1v1h-1z"/><path fill="#39b320" d="M37 78h1v1h-1z"/><path fill="#141013" d="M38 78h1v1h-1zM39 78h1v1h-1zM40 78h1v1h-1zM41 78h1v1h-1z"/><path fill="#dae0cc" d="M42 78h1v1h-1z"/><path fill="#060608" d="M43 78h1v1h-1z"/><path fill="#704d48" d="M44 78h1v1h-1z"/><path fill="#060608" d="M45 78h1v1h-1z"/><path fill="#704d48" d="M46 78h1v1h-1z"/><path fill="#141013" d="M47 78h1v1h-1z"/><path fill="#39b320" d="M48 78h1v1h-1z"/><path fill="#50bb3a" d="M49 78h1v1h-1z"/><path fill="#39b320" d="M50 78h1v1h-1zM51 78h1v1h-1zM52 78h1v1h-1zM53 78h1v1h-1z"/><path fill="#64c351" d="M54 78h1v1h-1z"/><path fill="#39b320" d="M55 78h1v1h-1zM56 78h1v1h-1zM57 78h1v1h-1z"/><path fill="#50bb3a" d="M58 78h1v1h-1z"/><path fill="#39b320" d="M59 78h1v1h-1zM60 78h1v1h-1zM61 78h1v1h-1zM62 78h1v1h-1zM63 78h1v1h-1zM64 78h1v1h-1zM65 78h1v1h-1z"/><path fill="#143464" d="M66 78h1v1h-1zM67 78h1v1h-1z"/><path fill="#39b320" d="M68 78h1v1h-1zM69 78h1v1h-1zM70 78h1v1h-1zM71 78h1v1h-1z"/><path fill="#143464" d="M72 78h1v1h-1zM73 78h1v1h-1z"/><path fill="#39b320" d="M74 78h1v1h-1zM75 78h1v1h-1z"/><path fill="#50bb3a" d="M76 78h1v1h-1z"/><path fill="#39b320" d="M77 78h1v1h-1zM78 78h1v1h-1zM79 78h1v1h-1zM80 78h1v1h-1zM81 78h1v1h-1z"/><path fill="#50bb3a" d="M82 78h1v1h-1zM83 78h1v1h-1z"/><path fill="#64c351" d="M84 78h1v1h-1z"/><path fill="#339e1d" d="M0 79h1v1H0z"/><path fill="#39b320" d="M1 79h1v1H1zM2 79h1v1H2zM3 79h1v1H3z"/><path fill="#64c351" d="M4 79h1v1H4z"/><path fill="#39b320" d="M5 79h1v1H5zM6 79h1v1H6z"/><path fill="#50bb3a" d="M7 79h1v1H7z"/><path fill="#339e1d" d="M8 79h1v1H8z"/><path fill="#39b320" d="M9 79h1v1H9z"/><path fill="#339e1d" d="M10 79h1v1h-1z"/><path fill="#39b320" d="M11 79h1v1h-1zM12 79h1v1h-1zM13 79h1v1h-1z"/><path fill="#339e1d" d="M14 79h1v1h-1z"/><path fill="#39b320" d="M15 79h1v1h-1zM16 79h1v1h-1zM17 79h1v1h-1z"/><path fill="#339e1d" d="M18 79h1v1h-1zM19 79h1v1h-1z"/><path fill="#39b320" d="M20 79h1v1h-1z"/><path fill="#50bb3a" d="M21 79h1v1h-1z"/><path fill="#339e1d" d="M22 79h1v1h-1zM23 79h1v1h-1z"/><path fill="#50bb3a" d="M24 79h1v1h-1z"/><path fill="#64c351" d="M25 79h1v1h-1z"/><path fill="#39b320" d="M26 79h1v1h-1zM27 79h1v1h-1z"/><path fill="#64c351" d="M28 79h1v1h-1z"/><path fill="#39b320" d="M29 79h1v1h-1zM30 79h1v1h-1zM31 79h1v1h-1zM32 79h1v1h-1z"/><path fill="#64c351" d="M33 79h1v1h-1z"/><path fill="#39b320" d="M34 79h1v1h-1z"/><path fill="#141013" d="M35 79h1v1h-1z"/><path fill="#dae0cc" d="M36 79h1v1h-1z"/><path fill="#141013" d="M37 79h1v1h-1z"/><path fill="#704d48" d="M38 79h1v1h-1zM39 79h1v1h-1zM40 79h1v1h-1z"/><path fill="#141013" d="M41 79h1v1h-1z"/><path fill="#dae0cc" d="M42 79h1v1h-1zM43 79h1v1h-1z"/><path fill="#704d48" d="M44 79h1v1h-1z"/><path fill="#dae0cc" d="M45 79h1v1h-1zM46 79h1v1h-1z"/><path fill="#141013" d="M47 79h1v1h-1z"/><path fill="#39b320" d="M48 79h1v1h-1zM49 79h1v1h-1zM50 79h1v1h-1zM51 79h1v1h-1zM52 79h1v1h-1zM53 79h1v1h-1z"/><path fill="#50bb3a" d="M54 79h1v1h-1z"/><path fill="#39b320" d="M55 79h1v1h-1zM56 79h1v1h-1zM57 79h1v1h-1zM58 79h1v1h-1z"/><path fill="#50bb3a" d="M59 79h1v1h-1z"/><path fill="#39b320" d="M60 79h1v1h-1zM61 79h1v1h-1z"/><path fill="#64c351" d="M62 79h1v1h-1z"/><path fill="#39b320" d="M63 79h1v1h-1zM64 79h1v1h-1z"/><path fill="#141013" d="M65 79h1v1h-1zM66 79h1v1h-1zM67 79h1v1h-1z"/><path fill="#39b320" d="M68 79h1v1h-1z"/><path fill="#64c351" d="M69 79h1v1h-1z"/><path fill="#39b320" d="M70 79h1v1h-1z"/><path fill="#64c351" d="M71 79h1v1h-1z"/><path fill="#141013" d="M72 79h1v1h-1zM73 79h1v1h-1zM74 79h1v1h-1z"/><path fill="#39b320" d="M75 79h1v1h-1zM76 79h1v1h-1z"/><path fill="#64c351" d="M77 79h1v1h-1z"/><path fill="#39b320" d="M78 79h1v1h-1zM79 79h1v1h-1z"/><path fill="#64c351" d="M80 79h1v1h-1z"/><path fill="#39b320" d="M81 79h1v1h-1zM82 79h1v1h-1z"/><path fill="#50bb3a" d="M83 79h1v1h-1zM84 79h1v1h-1z"/><path fill="#64c351" d="M85 79h1v1h-1z"/><path fill="#339e1d" d="M0 80h1v1H0z"/><path fill="#39b320" d="M1 80h1v1H1zM2 80h1v1H2z"/><path fill="#50bb3a" d="M3 80h1v1H3z"/><path fill="#39b320" d="M4 80h1v1H4zM5 80h1v1H5zM6 80h1v1H6zM7 80h1v1H7zM8 80h1v1H8z"/><path fill="#339e1d" d="M9 80h1v1H9zM10 80h1v1h-1z"/><path fill="#39b320" d="M11 80h1v1h-1zM12 80h1v1h-1zM13 80h1v1h-1z"/><path fill="#339e1d" d="M14 80h1v1h-1zM15 80h1v1h-1z"/><path fill="#39b320" d="M16 80h1v1h-1zM17 80h1v1h-1zM18 80h1v1h-1z"/><path fill="#339e1d" d="M19 80h1v1h-1zM20 80h1v1h-1z"/><path fill="#50bb3a" d="M21 80h1v1h-1z"/><path fill="#39b320" d="M22 80h1v1h-1z"/><path fill="#339e1d" d="M23 80h1v1h-1z"/><path fill="#39b320" d="M24 80h1v1h-1zM25 80h1v1h-1zM26 80h1v1h-1zM27 80h1v1h-1z"/><path fill="#50bb3a" d="M28 80h1v1h-1z"/><path fill="#39b320" d="M29 80h1v1h-1zM30 80h1v1h-1zM31 80h1v1h-1zM32 80h1v1h-1z"/><path fill="#50bb3a" d="M33 80h1v1h-1z"/><path fill="#64c351" d="M34 80h1v1h-1z"/><path fill="#39b320" d="M35 80h1v1h-1z"/><path fill="#141013" d="M36 80h1v1h-1z"/><path fill="#dae0cc" d="M37 80h1v1h-1z"/><path fill="#704d48" d="M38 80h1v1h-1z"/><path fill="#dae0cc" d="M39 80h1v1h-1z"/><path fill="#704d48" d="M40 80h1v1h-1zM41 80h1v1h-1z"/><path fill="#141013" d="M42 80h1v1h-1zM43 80h1v1h-1zM44 80h1v1h-1zM45 80h1v1h-1zM46 80h1v1h-1z"/><path fill="#39b320" d="M47 80h1v1h-1zM48 80h1v1h-1z"/><path fill="#64c351" d="M49 80h1v1h-1z"/><path fill="#39b320" d="M50 80h1v1h-1zM51 80h1v1h-1z"/><path fill="#64c351" d="M52 80h1v1h-1z"/><path fill="#39b320" d="M53 80h1v1h-1zM54 80h1v1h-1zM55 80h1v1h-1zM56 80h1v1h-1z"/><path fill="#64c351" d="M57 80h1v1h-1z"/><path fill="#39b320" d="M58 80h1v1h-1zM59 80h1v1h-1zM60 80h1v1h-1zM61 80h1v1h-1z"/><path fill="#50bb3a" d="M62 80h1v1h-1zM63 80h1v1h-1z"/><path fill="#141013" d="M64 80h1v1h-1zM65 80h1v1h-1zM66 80h1v1h-1zM67 80h1v1h-1z"/><path fill="#339e1d" d="M68 80h1v1h-1z"/><path fill="#50bb3a" d="M69 80h1v1h-1z"/><path fill="#39b320" d="M70 80h1v1h-1z"/><path fill="#50bb3a" d="M71 80h1v1h-1z"/><path fill="#141013" d="M72 80h1v1h-1zM73 80h1v1h-1zM74 80h1v1h-1zM75 80h1v1h-1z"/><path fill="#50bb3a" d="M76 80h1v1h-1z"/><path fill="#64c351" d="M77 80h1v1h-1z"/><path fill="#39b320" d="M78 80h1v1h-1zM79 80h1v1h-1zM80 80h1v1h-1zM81 80h1v1h-1zM82 80h1v1h-1zM83 80h1v1h-1z"/><path fill="#50bb3a" d="M84 80h1v1h-1z"/><path fill="#64c351" d="M85 80h1v1h-1z"/><path fill="#339e1d" d="M0 81h1v1H0z"/><path fill="#39b320" d="M1 81h1v1H1zM2 81h1v1H2zM3 81h1v1H3zM4 81h1v1H4zM5 81h1v1H5zM6 81h1v1H6zM7 81h1v1H7zM8 81h1v1H8zM9 81h1v1H9zM10 81h1v1h-1zM11 81h1v1h-1zM12 81h1v1h-1zM13 81h1v1h-1zM14 81h1v1h-1zM15 81h1v1h-1zM16 81h1v1h-1zM17 81h1v1h-1zM18 81h1v1h-1zM19 81h1v1h-1zM20 81h1v1h-1zM21 81h1v1h-1zM22 81h1v1h-1zM23 81h1v1h-1zM24 81h1v1h-1zM25 81h1v1h-1zM26 81h1v1h-1zM27 81h1v1h-1zM28 81h1v1h-1zM29 81h1v1h-1zM30 81h1v1h-1zM31 81h1v1h-1zM32 81h1v1h-1zM33 81h1v1h-1z"/><path fill="#50bb3a" d="M34 81h1v1h-1z"/><path fill="#339e1d" d="M35 81h1v1h-1z"/><path fill="#141013" d="M36 81h1v1h-1z"/><path fill="#dae0cc" d="M37 81h1v1h-1zM38 81h1v1h-1z"/><path fill="#704d48" d="M39 81h1v1h-1zM40 81h1v1h-1z"/><path fill="#dae0cc" d="M41 81h1v1h-1z"/><path fill="#704d48" d="M42 81h1v1h-1z"/><path fill="#dae0cc" d="M43 81h1v1h-1zM44 81h1v1h-1zM45 81h1v1h-1zM46 81h1v1h-1z"/><path fill="#141013" d="M47 81h1v1h-1z"/><path fill="#39b320" d="M48 81h1v1h-1z"/><path fill="#50bb3a" d="M49 81h1v1h-1z"/><path fill="#39b320" d="M50 81h1v1h-1zM51 81h1v1h-1z"/><path fill="#50bb3a" d="M52 81h1v1h-1z"/><path fill="#39b320" d="M53 81h1v1h-1zM54 81h1v1h-1zM55 81h1v1h-1zM56 81h1v1h-1z"/><path fill="#50bb3a" d="M57 81h1v1h-1z"/><path fill="#39b320" d="M58 81h1v1h-1zM59 81h1v1h-1zM60 81h1v1h-1z"/><path fill="#50bb3a" d="M61 81h1v1h-1z"/><path fill="#39b320" d="M62 81h1v1h-1z"/><path fill="#339e1d" d="M63 81h1v1h-1z"/><path fill="#141013" d="M64 81h1v1h-1zM65 81h1v1h-1zM66 81h1v1h-1zM67 81h1v1h-1z"/><path fill="#50bb3a" d="M68 81h1v1h-1zM69 81h1v1h-1z"/><path fill="#339e1d" d="M70 81h1v1h-1z"/><path fill="#50bb3a" d="M71 81h1v1h-1z"/><path fill="#141013" d="M72 81h1v1h-1zM73 81h1v1h-1zM74 81h1v1h-1zM75 81h1v1h-1z"/><path fill="#39b320" d="M76 81h1v1h-1zM77 81h1v1h-1zM78 81h1v1h-1z"/><path fill="#64c351" d="M79 81h1v1h-1z"/><path fill="#39b320" d="M80 81h1v1h-1zM81 81h1v1h-1z"/><path fill="#64c351" d="M82 81h1v1h-1z"/><path fill="#39b320" d="M83 81h1v1h-1z"/><path fill="#50bb3a" d="M84 81h1v1h-1zM85 81h1v1h-1z"/><path fill="#64c351" d="M86 81h1v1h-1z"/><path fill="#339e1d" d="M0 82h1v1H0z"/><path fill="#39b320" d="M1 82h1v1H1zM2 82h1v1H2zM3 82h1v1H3z"/><path fill="#64c351" d="M4 82h1v1H4z"/><path fill="#39b320" d="M5 82h1v1H5zM6 82h1v1H6zM7 82h1v1H7zM8 82h1v1H8zM9 82h1v1H9z"/><path fill="#64c351" d="M10 82h1v1h-1z"/><path fill="#39b320" d="M11 82h1v1h-1z"/><path fill="#64c351" d="M12 82h1v1h-1z"/><path fill="#39b320" d="M13 82h1v1h-1zM14 82h1v1h-1zM15 82h1v1h-1zM16 82h1v1h-1zM17 82h1v1h-1zM18 82h1v1h-1z"/><path fill="#64c351" d="M19 82h1v1h-1z"/><path fill="#39b320" d="M20 82h1v1h-1zM21 82h1v1h-1zM22 82h1v1h-1zM23 82h1v1h-1zM24 82h1v1h-1z"/><path fill="#64c351" d="M25 82h1v1h-1z"/><path fill="#39b320" d="M26 82h1v1h-1zM27 82h1v1h-1zM28 82h1v1h-1z"/><path fill="#64c351" d="M29 82h1v1h-1z"/><path fill="#39b320" d="M30 82h1v1h-1zM31 82h1v1h-1zM32 82h1v1h-1z"/><path fill="#64c351" d="M33 82h1v1h-1z"/><path fill="#39b320" d="M34 82h1v1h-1z"/><path fill="#50bb3a" d="M35 82h1v1h-1z"/><path fill="#141013" d="M36 82h1v1h-1z"/><path fill="#dae0cc" d="M37 82h1v1h-1zM38 82h1v1h-1zM39 82h1v1h-1z"/><path fill="#141013" d="M40 82h1v1h-1z"/><path fill="#dae0cc" d="M41 82h1v1h-1zM42 82h1v1h-1z"/><path fill="#141013" d="M43 82h1v1h-1z"/><path fill="#dae0cc" d="M44 82h1v1h-1z"/><path fill="#141013" d="M45 82h1v1h-1zM46 82h1v1h-1zM47 82h1v1h-1z"/><path fill="#339e1d" d="M48 82h1v1h-1z"/><path fill="#39b320" d="M49 82h1v1h-1z"/><path fill="#64c351" d="M50 82h1v1h-1z"/><path fill="#50bb3a" d="M51 82h1v1h-1z"/><path fill="#39b320" d="M52 82h1v1h-1zM53 82h1v1h-1zM54 82h1v1h-1z"/><path fill="#339e1d" d="M55 82h1v1h-1z"/><path fill="#50bb3a" d="M56 82h1v1h-1z"/><path fill="#39b320" d="M57 82h1v1h-1zM58 82h1v1h-1zM59 82h1v1h-1zM60 82h1v1h-1z"/><path fill="#50bb3a" d="M61 82h1v1h-1z"/><path fill="#39b320" d="M62 82h1v1h-1z"/><path fill="#50bb3a" d="M63 82h1v1h-1z"/><path fill="#339e1d" d="M64 82h1v1h-1zM65 82h1v1h-1zM66 82h1v1h-1zM67 82h1v1h-1z"/><path fill="#50bb3a" d="M68 82h1v1h-1z"/><path fill="#339e1d" d="M69 82h1v1h-1zM70 82h1v1h-1zM71 82h1v1h-1zM72 82h1v1h-1zM73 82h1v1h-1zM74 82h1v1h-1zM75 82h1v1h-1z"/><path fill="#50bb3a" d="M76 82h1v1h-1z"/><path fill="#39b320" d="M77 82h1v1h-1z"/><path fill="#50bb3a" d="M78 82h1v1h-1z"/><path fill="#39b320" d="M79 82h1v1h-1zM80 82h1v1h-1zM81 82h1v1h-1zM82 82h1v1h-1z"/><path fill="#50bb3a" d="M83 82h1v1h-1z"/><path fill="#39b320" d="M84 82h1v1h-1z"/><path fill="#50bb3a" d="M85 82h1v1h-1z"/><path fill="#64c351" d="M86 82h1v1h-1z"/><path fill="#339e1d" d="M0 83h1v1H0z"/><path fill="#39b320" d="M1 83h1v1H1zM2 83h1v1H2zM3 83h1v1H3z"/><path fill="#50bb3a" d="M4 83h1v1H4z"/><path fill="#39b320" d="M5 83h1v1H5zM6 83h1v1H6zM7 83h1v1H7zM8 83h1v1H8z"/><path fill="#50bb3a" d="M9 83h1v1H9z"/><path fill="#39b320" d="M10 83h1v1h-1zM11 83h1v1h-1z"/><path fill="#50bb3a" d="M12 83h1v1h-1z"/><path fill="#39b320" d="M13 83h1v1h-1z"/><path fill="#64c351" d="M14 83h1v1h-1z"/><path fill="#39b320" d="M15 83h1v1h-1zM16 83h1v1h-1zM17 83h1v1h-1z"/><path fill="#50bb3a" d="M18 83h1v1h-1z"/><path fill="#39b320" d="M19 83h1v1h-1zM20 83h1v1h-1zM21 83h1v1h-1zM22 83h1v1h-1zM23 83h1v1h-1z"/><path fill="#50bb3a" d="M24 83h1v1h-1z"/><path fill="#39b320" d="M25 83h1v1h-1zM26 83h1v1h-1zM27 83h1v1h-1z"/><path fill="#50bb3a" d="M28 83h1v1h-1z"/><path fill="#64c351" d="M29 83h1v1h-1z"/><path fill="#39b320" d="M30 83h1v1h-1zM31 83h1v1h-1zM32 83h1v1h-1z"/><path fill="#50bb3a" d="M33 83h1v1h-1z"/><path fill="#39b320" d="M34 83h1v1h-1z"/><path fill="#339e1d" d="M35 83h1v1h-1zM36 83h1v1h-1z"/><path fill="#141013" d="M37 83h1v1h-1zM38 83h1v1h-1z"/><path fill="#dae0cc" d="M39 83h1v1h-1z"/><path fill="#141013" d="M40 83h1v1h-1zM41 83h1v1h-1zM42 83h1v1h-1zM43 83h1v1h-1z"/><path fill="#dae0cc" d="M44 83h1v1h-1zM45 83h1v1h-1z"/><path fill="#141013" d="M46 83h1v1h-1z"/><path fill="#339e1d" d="M47 83h1v1h-1z"/><path fill="#39b320" d="M48 83h1v1h-1z"/><path fill="#50bb3a" d="M49 83h1v1h-1z"/><path fill="#39b320" d="M50 83h1v1h-1zM51 83h1v1h-1zM52 83h1v1h-1zM53 83h1v1h-1zM54 83h1v1h-1zM55 83h1v1h-1z"/><path fill="#339e1d" d="M56 83h1v1h-1z"/><path fill="#39b320" d="M57 83h1v1h-1zM58 83h1v1h-1zM59 83h1v1h-1zM60 83h1v1h-1zM61 83h1v1h-1zM62 83h1v1h-1zM63 83h1v1h-1zM64 83h1v1h-1zM65 83h1v1h-1zM66 83h1v1h-1zM67 83h1v1h-1zM68 83h1v1h-1zM69 83h1v1h-1zM70 83h1v1h-1z"/><path fill="#50bb3a" d="M71 83h1v1h-1zM72 83h1v1h-1zM73 83h1v1h-1zM74 83h1v1h-1zM75 83h1v1h-1z"/><path fill="#39b320" d="M76 83h1v1h-1zM77 83h1v1h-1z"/><path fill="#50bb3a" d="M78 83h1v1h-1z"/><path fill="#39b320" d="M79 83h1v1h-1zM80 83h1v1h-1zM81 83h1v1h-1zM82 83h1v1h-1zM83 83h1v1h-1zM84 83h1v1h-1z"/><path fill="#50bb3a" d="M85 83h1v1h-1z"/><path fill="#64c351" d="M86 83h1v1h-1z"/><path fill="#2d8c1a" d="M0 84h1v1H0z"/><path fill="#339e1d" d="M1 84h1v1H1z"/><path fill="#39b320" d="M2 84h1v1H2zM3 84h1v1H3zM4 84h1v1H4z"/><path fill="#50bb3a" d="M5 84h1v1H5z"/><path fill="#39b320" d="M6 84h1v1H6zM7 84h1v1H7zM8 84h1v1H8zM9 84h1v1H9zM10 84h1v1h-1zM11 84h1v1h-1zM12 84h1v1h-1z"/><path fill="#50bb3a" d="M13 84h1v1h-1z"/><path fill="#39b320" d="M14 84h1v1h-1zM15 84h1v1h-1zM16 84h1v1h-1zM17 84h1v1h-1z"/><path fill="#50bb3a" d="M18 84h1v1h-1z"/><path fill="#39b320" d="M19 84h1v1h-1z"/><path fill="#64c351" d="M20 84h1v1h-1z"/><path fill="#39b320" d="M21 84h1v1h-1zM22 84h1v1h-1zM23 84h1v1h-1zM24 84h1v1h-1zM25 84h1v1h-1zM26 84h1v1h-1zM27 84h1v1h-1zM28 84h1v1h-1zM29 84h1v1h-1zM30 84h1v1h-1z"/><path fill="#64c351" d="M31 84h1v1h-1z"/><path fill="#39b320" d="M32 84h1v1h-1zM33 84h1v1h-1zM34 84h1v1h-1z"/><path fill="#50bb3a" d="M35 84h1v1h-1z"/><path fill="#339e1d" d="M36 84h1v1h-1zM37 84h1v1h-1zM38 84h1v1h-1z"/><path fill="#141013" d="M39 84h1v1h-1z"/><path fill="#339e1d" d="M40 84h1v1h-1zM41 84h1v1h-1zM42 84h1v1h-1zM43 84h1v1h-1z"/><path fill="#141013" d="M44 84h1v1h-1zM45 84h1v1h-1z"/><path fill="#339e1d" d="M46 84h1v1h-1zM47 84h1v1h-1zM48 84h1v1h-1zM49 84h1v1h-1z"/><path fill="#39b320" d="M50 84h1v1h-1zM51 84h1v1h-1zM52 84h1v1h-1zM53 84h1v1h-1zM54 84h1v1h-1zM55 84h1v1h-1zM56 84h1v1h-1zM57 84h1v1h-1zM58 84h1v1h-1zM59 84h1v1h-1z"/><path fill="#64c351" d="M60 84h1v1h-1z"/><path fill="#39b320" d="M61 84h1v1h-1zM62 84h1v1h-1z"/><path fill="#64c351" d="M63 84h1v1h-1z"/><path fill="#39b320" d="M64 84h1v1h-1zM65 84h1v1h-1zM66 84h1v1h-1zM67 84h1v1h-1zM68 84h1v1h-1z"/><path fill="#64c351" d="M69 84h1v1h-1z"/><path fill="#39b320" d="M70 84h1v1h-1zM71 84h1v1h-1zM72 84h1v1h-1z"/><path fill="#64c351" d="M73 84h1v1h-1z"/><path fill="#39b320" d="M74 84h1v1h-1zM75 84h1v1h-1z"/><path fill="#64c351" d="M76 84h1v1h-1z"/><path fill="#39b320" d="M77 84h1v1h-1zM78 84h1v1h-1zM79 84h1v1h-1zM80 84h1v1h-1zM81 84h1v1h-1z"/><path fill="#64c351" d="M82 84h1v1h-1z"/><path fill="#39b320" d="M83 84h1v1h-1zM84 84h1v1h-1zM85 84h1v1h-1z"/><path fill="#50bb3a" d="M86 84h1v1h-1z"/><path fill="#2d8c1a" d="M0 85h1v1H0z"/><path fill="#339e1d" d="M1 85h1v1H1zM2 85h1v1H2z"/><path fill="#39b320" d="M3 85h1v1H3zM4 85h1v1H4zM5 85h1v1H5zM6 85h1v1H6zM7 85h1v1H7zM8 85h1v1H8zM9 85h1v1H9zM10 85h1v1h-1zM11 85h1v1h-1zM12 85h1v1h-1zM13 85h1v1h-1zM14 85h1v1h-1zM15 85h1v1h-1zM16 85h1v1h-1zM17 85h1v1h-1zM18 85h1v1h-1zM19 85h1v1h-1z"/><path fill="#50bb3a" d="M20 85h1v1h-1z"/><path fill="#39b320" d="M21 85h1v1h-1zM22 85h1v1h-1zM23 85h1v1h-1zM24 85h1v1h-1zM25 85h1v1h-1zM26 85h1v1h-1zM27 85h1v1h-1z"/><path fill="#50bb3a" d="M28 85h1v1h-1z"/><path fill="#39b320" d="M29 85h1v1h-1zM30 85h1v1h-1zM31 85h1v1h-1z"/><path fill="#50bb3a" d="M32 85h1v1h-1z"/><path fill="#39b320" d="M33 85h1v1h-1zM34 85h1v1h-1zM35 85h1v1h-1zM36 85h1v1h-1zM37 85h1v1h-1zM38 85h1v1h-1zM39 85h1v1h-1z"/><path fill="#64c351" d="M40 85h1v1h-1z"/><path fill="#39b320" d="M41 85h1v1h-1z"/><path fill="#50bb3a" d="M42 85h1v1h-1z"/><path fill="#64c351" d="M43 85h1v1h-1z"/><path fill="#39b320" d="M44 85h1v1h-1zM45 85h1v1h-1z"/><path fill="#64c351" d="M46 85h1v1h-1z"/><path fill="#39b320" d="M47 85h1v1h-1zM48 85h1v1h-1zM49 85h1v1h-1zM50 85h1v1h-1zM51 85h1v1h-1z"/><path fill="#50bb3a" d="M52 85h1v1h-1z"/><path fill="#64c351" d="M53 85h1v1h-1z"/><path fill="#39b320" d="M54 85h1v1h-1zM55 85h1v1h-1zM56 85h1v1h-1z"/><path fill="#64c351" d="M57 85h1v1h-1z"/><path fill="#39b320" d="M58 85h1v1h-1zM59 85h1v1h-1z"/><path fill="#50bb3a" d="M60 85h1v1h-1z"/><path fill="#39b320" d="M61 85h1v1h-1z"/><path fill="#50bb3a" d="M62 85h1v1h-1z"/><path fill="#39b320" d="M63 85h1v1h-1zM64 85h1v1h-1zM65 85h1v1h-1zM66 85h1v1h-1zM67 85h1v1h-1zM68 85h1v1h-1z"/><path fill="#50bb3a" d="M69 85h1v1h-1z"/><path fill="#39b320" d="M70 85h1v1h-1zM71 85h1v1h-1zM72 85h1v1h-1z"/><path fill="#50bb3a" d="M73 85h1v1h-1z"/><path fill="#39b320" d="M74 85h1v1h-1zM75 85h1v1h-1z"/><path fill="#50bb3a" d="M76 85h1v1h-1z"/><path fill="#39b320" d="M77 85h1v1h-1z"/><path fill="#64c351" d="M78 85h1v1h-1z"/><path fill="#39b320" d="M79 85h1v1h-1zM80 85h1v1h-1zM81 85h1v1h-1z"/><path fill="#64c351" d="M82 85h1v1h-1z"/><path fill="#39b320" d="M83 85h1v1h-1zM84 85h1v1h-1zM85 85h1v1h-1z"/><path fill="#50bb3a" d="M86 85h1v1h-1z"/><path fill="#2d8c1a" d="M1 86h1v1H1z"/><path fill="#339e1d" d="M2 86h1v1H2zM3 86h1v1H3z"/><path fill="#39b320" d="M4 86h1v1H4zM5 86h1v1H5zM6 86h1v1H6zM7 86h1v1H7zM8 86h1v1H8zM9 86h1v1H9zM10 86h1v1h-1zM11 86h1v1h-1zM12 86h1v1h-1zM13 86h1v1h-1zM14 86h1v1h-1zM15 86h1v1h-1zM16 86h1v1h-1zM17 86h1v1h-1zM18 86h1v1h-1zM19 86h1v1h-1zM20 86h1v1h-1z"/><path fill="#50bb3a" d="M21 86h1v1h-1z"/><path fill="#39b320" d="M22 86h1v1h-1zM23 86h1v1h-1zM24 86h1v1h-1zM25 86h1v1h-1zM26 86h1v1h-1zM27 86h1v1h-1zM28 86h1v1h-1z"/><path fill="#64c351" d="M29 86h1v1h-1z"/><path fill="#39b320" d="M30 86h1v1h-1zM31 86h1v1h-1zM32 86h1v1h-1zM33 86h1v1h-1zM34 86h1v1h-1zM35 86h1v1h-1zM36 86h1v1h-1zM37 86h1v1h-1zM38 86h1v1h-1z"/><path fill="#50bb3a" d="M39 86h1v1h-1z"/><path fill="#39b320" d="M40 86h1v1h-1zM41 86h1v1h-1zM42 86h1v1h-1zM43 86h1v1h-1zM44 86h1v1h-1z"/><path fill="#50bb3a" d="M45 86h1v1h-1z"/><path fill="#39b320" d="M46 86h1v1h-1zM47 86h1v1h-1zM48 86h1v1h-1zM49 86h1v1h-1zM50 86h1v1h-1z"/><path fill="#50bb3a" d="M51 86h1v1h-1z"/><path fill="#39b320" d="M52 86h1v1h-1zM53 86h1v1h-1zM54 86h1v1h-1zM55 86h1v1h-1z"/><path fill="#50bb3a" d="M56 86h1v1h-1z"/><path fill="#39b320" d="M57 86h1v1h-1zM58 86h1v1h-1zM59 86h1v1h-1zM60 86h1v1h-1zM61 86h1v1h-1zM62 86h1v1h-1zM63 86h1v1h-1zM64 86h1v1h-1zM65 86h1v1h-1zM66 86h1v1h-1zM67 86h1v1h-1zM68 86h1v1h-1zM69 86h1v1h-1zM70 86h1v1h-1zM71 86h1v1h-1z"/><path fill="#50bb3a" d="M72 86h1v1h-1z"/><path fill="#39b320" d="M73 86h1v1h-1zM74 86h1v1h-1zM75 86h1v1h-1zM76 86h1v1h-1z"/><path fill="#50bb3a" d="M77 86h1v1h-1z"/><path fill="#39b320" d="M78 86h1v1h-1zM79 86h1v1h-1zM80 86h1v1h-1z"/><path fill="#50bb3a" d="M81 86h1v1h-1z"/><path fill="#39b320" d="M82 86h1v1h-1zM83 86h1v1h-1zM84 86h1v1h-1zM85 86h1v1h-1z"/><path fill="#50bb3a" d="M86 86h1v1h-1z"/><path fill="#2d8c1a" d="M1 87h1v1H1z"/><path fill="#339e1d" d="M2 87h1v1H2z"/><path fill="#7e4949" d="M3 87h1v1H3z"/><path fill="#339e1d" d="M4 87h1v1H4z"/><path fill="#39b320" d="M5 87h1v1H5zM6 87h1v1H6z"/><path fill="#339e1d" d="M7 87h1v1H7zM8 87h1v1H8zM9 87h1v1H9z"/><path fill="#39b320" d="M10 87h1v1h-1zM11 87h1v1h-1z"/><path fill="#339e1d" d="M12 87h1v1h-1zM13 87h1v1h-1z"/><path fill="#39b320" d="M14 87h1v1h-1zM15 87h1v1h-1zM16 87h1v1h-1z"/><path fill="#339e1d" d="M17 87h1v1h-1zM18 87h1v1h-1zM19 87h1v1h-1z"/><path fill="#39b320" d="M20 87h1v1h-1zM21 87h1v1h-1zM22 87h1v1h-1zM23 87h1v1h-1z"/><path fill="#339e1d" d="M24 87h1v1h-1zM25 87h1v1h-1zM26 87h1v1h-1z"/><path fill="#39b320" d="M27 87h1v1h-1zM28 87h1v1h-1zM29 87h1v1h-1zM30 87h1v1h-1zM31 87h1v1h-1z"/><path fill="#339e1d" d="M32 87h1v1h-1zM33 87h1v1h-1zM34 87h1v1h-1zM35 87h1v1h-1zM36 87h1v1h-1zM37 87h1v1h-1z"/><path fill="#39b320" d="M38 87h1v1h-1zM39 87h1v1h-1zM40 87h1v1h-1zM41 87h1v1h-1z"/><path fill="#339e1d" d="M42 87h1v1h-1zM43 87h1v1h-1zM44 87h1v1h-1zM45 87h1v1h-1zM46 87h1v1h-1zM47 87h1v1h-1zM48 87h1v1h-1zM49 87h1v1h-1zM50 87h1v1h-1zM51 87h1v1h-1z"/><path fill="#39b320" d="M52 87h1v1h-1zM53 87h1v1h-1zM54 87h1v1h-1zM55 87h1v1h-1z"/><path fill="#339e1d" d="M56 87h1v1h-1zM57 87h1v1h-1zM58 87h1v1h-1zM59 87h1v1h-1z"/><path fill="#39b320" d="M60 87h1v1h-1zM61 87h1v1h-1zM62 87h1v1h-1zM63 87h1v1h-1z"/><path fill="#339e1d" d="M64 87h1v1h-1zM65 87h1v1h-1zM66 87h1v1h-1zM67 87h1v1h-1zM68 87h1v1h-1zM69 87h1v1h-1z"/><path fill="#39b320" d="M70 87h1v1h-1zM71 87h1v1h-1zM72 87h1v1h-1zM73 87h1v1h-1z"/><path fill="#339e1d" d="M74 87h1v1h-1zM75 87h1v1h-1zM76 87h1v1h-1z"/><path fill="#39b320" d="M77 87h1v1h-1zM78 87h1v1h-1zM79 87h1v1h-1z"/><path fill="#339e1d" d="M80 87h1v1h-1zM81 87h1v1h-1zM82 87h1v1h-1z"/><path fill="#39b320" d="M83 87h1v1h-1z"/><path fill="#339e1d" d="M84 87h1v1h-1z"/><path fill="#7e4949" d="M85 87h1v1h-1z"/><path fill="#50bb3a" d="M86 87h1v1h-1z"/><path fill="#2d8c1a" d="M1 88h1v1H1z"/><path fill="#7e4949" d="M2 88h1v1H2zM3 88h1v1H3z"/><path fill="#2d8c1a" d="M4 88h1v1H4z"/><path fill="#339e1d" d="M5 88h1v1H5zM6 88h1v1H6z"/><path fill="#7e4949" d="M7 88h1v1H7zM8 88h1v1H8zM9 88h1v1H9z"/><path fill="#339e1d" d="M10 88h1v1h-1zM11 88h1v1h-1z"/><path fill="#7e4949" d="M12 88h1v1h-1zM13 88h1v1h-1z"/><path fill="#339e1d" d="M14 88h1v1h-1zM15 88h1v1h-1zM16 88h1v1h-1z"/><path fill="#7e4949" d="M17 88h1v1h-1zM18 88h1v1h-1zM19 88h1v1h-1z"/><path fill="#339e1d" d="M20 88h1v1h-1z"/><path fill="#39b320" d="M21 88h1v1h-1zM22 88h1v1h-1z"/><path fill="#339e1d" d="M23 88h1v1h-1z"/><path fill="#7e4949" d="M24 88h1v1h-1zM25 88h1v1h-1zM26 88h1v1h-1z"/><path fill="#339e1d" d="M27 88h1v1h-1zM28 88h1v1h-1z"/><path fill="#39b320" d="M29 88h1v1h-1zM30 88h1v1h-1z"/><path fill="#339e1d" d="M31 88h1v1h-1z"/><path fill="#7e4949" d="M32 88h1v1h-1zM33 88h1v1h-1zM34 88h1v1h-1zM35 88h1v1h-1zM36 88h1v1h-1zM37 88h1v1h-1z"/><path fill="#2d8c1a" d="M38 88h1v1h-1z"/><path fill="#339e1d" d="M39 88h1v1h-1zM40 88h1v1h-1zM41 88h1v1h-1z"/><path fill="#7e4949" d="M42 88h1v1h-1zM43 88h1v1h-1zM44 88h1v1h-1zM45 88h1v1h-1z"/><path fill="#2d8c1a" d="M46 88h1v1h-1z"/><path fill="#339e1d" d="M47 88h1v1h-1z"/><path fill="#7e4949" d="M48 88h1v1h-1zM49 88h1v1h-1zM50 88h1v1h-1zM51 88h1v1h-1z"/><path fill="#339e1d" d="M52 88h1v1h-1zM53 88h1v1h-1zM54 88h1v1h-1zM55 88h1v1h-1z"/><path fill="#7e4949" d="M56 88h1v1h-1zM57 88h1v1h-1zM58 88h1v1h-1zM59 88h1v1h-1z"/><path fill="#339e1d" d="M60 88h1v1h-1zM61 88h1v1h-1z"/><path fill="#39b320" d="M62 88h1v1h-1zM63 88h1v1h-1z"/><path fill="#7e4949" d="M64 88h1v1h-1zM65 88h1v1h-1zM66 88h1v1h-1zM67 88h1v1h-1zM68 88h1v1h-1zM69 88h1v1h-1z"/><path fill="#339e1d" d="M70 88h1v1h-1zM71 88h1v1h-1zM72 88h1v1h-1zM73 88h1v1h-1z"/><path fill="#7e4949" d="M74 88h1v1h-1zM75 88h1v1h-1zM76 88h1v1h-1z"/><path fill="#2d8c1a" d="M77 88h1v1h-1z"/><path fill="#339e1d" d="M78 88h1v1h-1zM79 88h1v1h-1z"/><path fill="#7e4949" d="M80 88h1v1h-1zM81 88h1v1h-1zM82 88h1v1h-1z"/><path fill="#2d8c1a" d="M83 88h1v1h-1z"/><path fill="#339e1d" d="M84 88h1v1h-1z"/><path fill="#864e4e" d="M85 88h1v1h-1z"/><path fill="#915959" d="M86 88h1v1h-1z"/><path fill="#7e4949" d="M1 89h1v1H1zM2 89h1v1H2z"/><path fill="#864e4e" d="M3 89h1v1H3z"/><path fill="#7e4949" d="M4 89h1v1H4z"/><path fill="#339e1d" d="M5 89h1v1H5zM6 89h1v1H6z"/><path fill="#7e4949" d="M7 89h1v1H7z"/><path fill="#864e4e" d="M8 89h1v1H8z"/><path fill="#7e4949" d="M9 89h1v1H9zM10 89h1v1h-1z"/><path fill="#2d8c1a" d="M11 89h1v1h-1z"/><path fill="#864e4e" d="M12 89h1v1h-1z"/><path fill="#7e4949" d="M13 89h1v1h-1z"/><path fill="#2d8c1a" d="M14 89h1v1h-1z"/><path fill="#339e1d" d="M15 89h1v1h-1z"/><path fill="#7e4949" d="M16 89h1v1h-1zM17 89h1v1h-1z"/><path fill="#864e4e" d="M18 89h1v1h-1z"/><path fill="#7e4949" d="M19 89h1v1h-1z"/><path fill="#2d8c1a" d="M20 89h1v1h-1z"/><path fill="#339e1d" d="M21 89h1v1h-1zM22 89h1v1h-1z"/><path fill="#7e4949" d="M23 89h1v1h-1zM24 89h1v1h-1z"/><path fill="#864e4e" d="M25 89h1v1h-1z"/><path fill="#7e4949" d="M26 89h1v1h-1zM27 89h1v1h-1z"/><path fill="#2d8c1a" d="M28 89h1v1h-1z"/><path fill="#339e1d" d="M29 89h1v1h-1zM30 89h1v1h-1z"/><path fill="#7e4949" d="M31 89h1v1h-1zM32 89h1v1h-1z"/><path fill="#864e4e" d="M33 89h1v1h-1z"/><path fill="#7e4949" d="M34 89h1v1h-1z"/><path fill="#864e4e" d="M35 89h1v1h-1zM36 89h1v1h-1z"/><path fill="#7e4949" d="M37 89h1v1h-1zM38 89h1v1h-1z"/><path fill="#2d8c1a" d="M39 89h1v1h-1z"/><path fill="#339e1d" d="M40 89h1v1h-1z"/><path fill="#7e4949" d="M41 89h1v1h-1zM42 89h1v1h-1z"/><path fill="#864e4e" d="M43 89h1v1h-1z"/><path fill="#7e4949" d="M44 89h1v1h-1zM45 89h1v1h-1z"/><path fill="#2d8c1a" d="M46 89h1v1h-1z"/><path fill="#7e4949" d="M47 89h1v1h-1z"/><path fill="#864e4e" d="M48 89h1v1h-1zM49 89h1v1h-1zM50 89h1v1h-1z"/><path fill="#7e4949" d="M51 89h1v1h-1zM52 89h1v1h-1z"/><path fill="#2d8c1a" d="M53 89h1v1h-1z"/><path fill="#339e1d" d="M54 89h1v1h-1z"/><path fill="#7e4949" d="M55 89h1v1h-1zM56 89h1v1h-1z"/><path fill="#864e4e" d="M57 89h1v1h-1zM58 89h1v1h-1z"/><path fill="#7e4949" d="M59 89h1v1h-1z"/><path fill="#2d8c1a" d="M60 89h1v1h-1z"/><path fill="#339e1d" d="M61 89h1v1h-1zM62 89h1v1h-1z"/><path fill="#39b320" d="M63 89h1v1h-1z"/><path fill="#7e4949" d="M64 89h1v1h-1z"/><path fill="#864e4e" d="M65 89h1v1h-1zM66 89h1v1h-1zM67 89h1v1h-1zM68 89h1v1h-1z"/><path fill="#7e4949" d="M69 89h1v1h-1zM70 89h1v1h-1z"/><path fill="#339e1d" d="M71 89h1v1h-1zM72 89h1v1h-1z"/><path fill="#7e4949" d="M73 89h1v1h-1zM74 89h1v1h-1z"/><path fill="#864e4e" d="M75 89h1v1h-1z"/><path fill="#7e4949" d="M76 89h1v1h-1zM77 89h1v1h-1z"/><path fill="#2d8c1a" d="M78 89h1v1h-1z"/><path fill="#339e1d" d="M79 89h1v1h-1z"/><path fill="#7e4949" d="M80 89h1v1h-1z"/><path fill="#864e4e" d="M81 89h1v1h-1z"/><path fill="#7e4949" d="M82 89h1v1h-1z"/><path fill="#2d8c1a" d="M83 89h1v1h-1z"/><path fill="#7e4949" d="M84 89h1v1h-1z"/><path fill="#864e4e" d="M85 89h1v1h-1z"/><path fill="#915959" d="M86 89h1v1h-1z"/><path fill="#7e4949" d="M2 90h1v1H2z"/><path fill="#864e4e" d="M3 90h1v1H3z"/><path fill="#7e4949" d="M4 90h1v1H4z"/><path fill="#339e1d" d="M5 90h1v1H5z"/><path fill="#7e4949" d="M6 90h1v1H6z"/><path fill="#864e4e" d="M7 90h1v1H7zM8 90h1v1H8zM9 90h1v1H9zM10 90h1v1h-1z"/><path fill="#7e4949" d="M11 90h1v1h-1z"/><path fill="#864e4e" d="M12 90h1v1h-1z"/><path fill="#7e4949" d="M13 90h1v1h-1zM14 90h1v1h-1z"/><path fill="#339e1d" d="M15 90h1v1h-1z"/><path fill="#7e4949" d="M16 90h1v1h-1z"/><path fill="#864e4e" d="M17 90h1v1h-1zM18 90h1v1h-1z"/><path fill="#7e4949" d="M19 90h1v1h-1zM20 90h1v1h-1z"/><path fill="#2d8c1a" d="M21 90h1v1h-1z"/><path fill="#339e1d" d="M22 90h1v1h-1z"/><path fill="#7e4949" d="M23 90h1v1h-1z"/><path fill="#864e4e" d="M24 90h1v1h-1zM25 90h1v1h-1zM26 90h1v1h-1z"/><path fill="#7e4949" d="M27 90h1v1h-1zM28 90h1v1h-1z"/><path fill="#2d8c1a" d="M29 90h1v1h-1z"/><path fill="#339e1d" d="M30 90h1v1h-1z"/><path fill="#7e4949" d="M31 90h1v1h-1z"/><path fill="#864e4e" d="M32 90h1v1h-1zM33 90h1v1h-1zM34 90h1v1h-1zM35 90h1v1h-1zM36 90h1v1h-1zM37 90h1v1h-1z"/><path fill="#7e4949" d="M38 90h1v1h-1z"/><path fill="#2d8c1a" d="M39 90h1v1h-1z"/><path fill="#7e4949" d="M40 90h1v1h-1zM41 90h1v1h-1z"/><path fill="#864e4e" d="M42 90h1v1h-1zM43 90h1v1h-1zM44 90h1v1h-1z"/><path fill="#7e4949" d="M45 90h1v1h-1zM46 90h1v1h-1zM47 90h1v1h-1z"/><path fill="#864e4e" d="M48 90h1v1h-1zM49 90h1v1h-1zM50 90h1v1h-1zM51 90h1v1h-1z"/><path fill="#7e4949" d="M52 90h1v1h-1zM53 90h1v1h-1z"/><path fill="#2d8c1a" d="M54 90h1v1h-1z"/><path fill="#7e4949" d="M55 90h1v1h-1z"/><path fill="#864e4e" d="M56 90h1v1h-1zM57 90h1v1h-1zM58 90h1v1h-1z"/><path fill="#7e4949" d="M59 90h1v1h-1z"/><path fill="#2d8c1a" d="M60 90h1v1h-1z"/><path fill="#339e1d" d="M61 90h1v1h-1zM62 90h1v1h-1z"/><path fill="#7e4949" d="M63 90h1v1h-1z"/><path fill="#864e4e" d="M64 90h1v1h-1zM65 90h1v1h-1zM66 90h1v1h-1zM67 90h1v1h-1z"/><path fill="#7e4949" d="M68 90h1v1h-1zM69 90h1v1h-1zM70 90h1v1h-1z"/><path fill="#2d8c1a" d="M71 90h1v1h-1z"/><path fill="#7e4949" d="M72 90h1v1h-1zM73 90h1v1h-1z"/><path fill="#864e4e" d="M74 90h1v1h-1zM75 90h1v1h-1zM76 90h1v1h-1z"/><path fill="#7e4949" d="M77 90h1v1h-1z"/><path fill="#2d8c1a" d="M78 90h1v1h-1z"/><path fill="#7e4949" d="M79 90h1v1h-1zM80 90h1v1h-1z"/><path fill="#864e4e" d="M81 90h1v1h-1z"/><path fill="#7e4949" d="M82 90h1v1h-1zM83 90h1v1h-1z"/><path fill="#864e4e" d="M84 90h1v1h-1z"/><path fill="#915959" d="M85 90h1v1h-1zM86 90h1v1h-1z"/><path fill="#7e4949" d="M2 91h1v1H2z"/><path fill="#864e4e" d="M3 91h1v1H3zM4 91h1v1H4z"/><path fill="#7e4949" d="M5 91h1v1H5zM6 91h1v1H6z"/><path fill="#864e4e" d="M7 91h1v1H7zM8 91h1v1H8zM9 91h1v1H9zM10 91h1v1h-1zM11 91h1v1h-1zM12 91h1v1h-1zM13 91h1v1h-1z"/><path fill="#7e4949" d="M14 91h1v1h-1zM15 91h1v1h-1z"/><path fill="#864e4e" d="M16 91h1v1h-1zM17 91h1v1h-1zM18 91h1v1h-1zM19 91h1v1h-1z"/><path fill="#7e4949" d="M20 91h1v1h-1z"/><path fill="#2d8c1a" d="M21 91h1v1h-1z"/><path fill="#7e4949" d="M22 91h1v1h-1zM23 91h1v1h-1z"/><path fill="#864e4e" d="M24 91h1v1h-1zM25 91h1v1h-1zM26 91h1v1h-1zM27 91h1v1h-1z"/><path fill="#7e4949" d="M28 91h1v1h-1z"/><path fill="#2d8c1a" d="M29 91h1v1h-1z"/><path fill="#7e4949" d="M30 91h1v1h-1zM31 91h1v1h-1z"/><path fill="#864e4e" d="M32 91h1v1h-1zM33 91h1v1h-1zM34 91h1v1h-1z"/><path fill="#8e5252" d="M35 91h1v1h-1zM36 91h1v1h-1z"/><path fill="#864e4e" d="M37 91h1v1h-1zM38 91h1v1h-1z"/><path fill="#7e4949" d="M39 91h1v1h-1zM40 91h1v1h-1z"/><path fill="#864e4e" d="M41 91h1v1h-1zM42 91h1v1h-1zM43 91h1v1h-1zM44 91h1v1h-1zM45 91h1v1h-1zM46 91h1v1h-1zM47 91h1v1h-1zM48 91h1v1h-1zM49 91h1v1h-1zM50 91h1v1h-1zM51 91h1v1h-1zM52 91h1v1h-1zM53 91h1v1h-1z"/><path fill="#7e4949" d="M54 91h1v1h-1zM55 91h1v1h-1z"/><path fill="#864e4e" d="M56 91h1v1h-1zM57 91h1v1h-1zM58 91h1v1h-1zM59 91h1v1h-1z"/><path fill="#7e4949" d="M60 91h1v1h-1z"/><path fill="#2d8c1a" d="M61 91h1v1h-1z"/><path fill="#7e4949" d="M62 91h1v1h-1z"/><path fill="#864e4e" d="M63 91h1v1h-1zM64 91h1v1h-1z"/><path fill="#8e5252" d="M65 91h1v1h-1zM66 91h1v1h-1zM67 91h1v1h-1z"/><path fill="#864e4e" d="M68 91h1v1h-1zM69 91h1v1h-1zM70 91h1v1h-1z"/><path fill="#7e4949" d="M71 91h1v1h-1zM72 91h1v1h-1z"/><path fill="#864e4e" d="M73 91h1v1h-1zM74 91h1v1h-1zM75 91h1v1h-1zM76 91h1v1h-1zM77 91h1v1h-1z"/><path fill="#7e4949" d="M78 91h1v1h-1zM79 91h1v1h-1z"/><path fill="#864e4e" d="M80 91h1v1h-1zM81 91h1v1h-1zM82 91h1v1h-1zM83 91h1v1h-1z"/><path fill="#8e5252" d="M84 91h1v1h-1z"/><path fill="#915959" d="M85 91h1v1h-1zM86 91h1v1h-1z"/><path fill="#864e4e" d="M3 92h1v1H3zM4 92h1v1H4zM5 92h1v1H5zM6 92h1v1H6zM7 92h1v1H7z"/><path fill="#8e5252" d="M8 92h1v1H8zM9 92h1v1H9zM10 92h1v1h-1zM11 92h1v1h-1zM12 92h1v1h-1z"/><path fill="#864e4e" d="M13 92h1v1h-1zM14 92h1v1h-1zM15 92h1v1h-1zM16 92h1v1h-1z"/><path fill="#8e5252" d="M17 92h1v1h-1zM18 92h1v1h-1z"/><path fill="#864e4e" d="M19 92h1v1h-1zM20 92h1v1h-1z"/><path fill="#7e4949" d="M21 92h1v1h-1z"/><path fill="#864e4e" d="M22 92h1v1h-1zM23 92h1v1h-1z"/><path fill="#8e5252" d="M24 92h1v1h-1zM25 92h1v1h-1zM26 92h1v1h-1z"/><path fill="#864e4e" d="M27 92h1v1h-1zM28 92h1v1h-1z"/><path fill="#7e4949" d="M29 92h1v1h-1zM30 92h1v1h-1z"/><path fill="#864e4e" d="M31 92h1v1h-1zM32 92h1v1h-1z"/><path fill="#7e4949" d="M33 92h1v1h-1z"/><path fill="#8e5252" d="M34 92h1v1h-1zM35 92h1v1h-1z"/><path fill="#955c5c" d="M36 92h1v1h-1z"/><path fill="#8e5252" d="M37 92h1v1h-1zM38 92h1v1h-1z"/><path fill="#864e4e" d="M39 92h1v1h-1zM40 92h1v1h-1zM41 92h1v1h-1z"/><path fill="#8e5252" d="M42 92h1v1h-1zM43 92h1v1h-1zM44 92h1v1h-1z"/><path fill="#864e4e" d="M45 92h1v1h-1zM46 92h1v1h-1zM47 92h1v1h-1z"/><path fill="#8e5252" d="M48 92h1v1h-1zM49 92h1v1h-1zM50 92h1v1h-1zM51 92h1v1h-1zM52 92h1v1h-1z"/><path fill="#864e4e" d="M53 92h1v1h-1zM54 92h1v1h-1zM55 92h1v1h-1zM56 92h1v1h-1zM57 92h1v1h-1zM58 92h1v1h-1zM59 92h1v1h-1zM60 92h1v1h-1z"/><path fill="#7e4949" d="M61 92h1v1h-1zM62 92h1v1h-1z"/><path fill="#864e4e" d="M63 92h1v1h-1z"/><path fill="#8e5252" d="M64 92h1v1h-1zM65 92h1v1h-1z"/><path fill="#955c5c" d="M66 92h1v1h-1z"/><path fill="#8e5252" d="M67 92h1v1h-1zM68 92h1v1h-1z"/><path fill="#864e4e" d="M69 92h1v1h-1zM70 92h1v1h-1zM71 92h1v1h-1zM72 92h1v1h-1zM73 92h1v1h-1zM74 92h1v1h-1zM75 92h1v1h-1zM76 92h1v1h-1zM77 92h1v1h-1zM78 92h1v1h-1zM79 92h1v1h-1zM80 92h1v1h-1zM81 92h1v1h-1zM82 92h1v1h-1zM83 92h1v1h-1z"/><path fill="#8e5252" d="M84 92h1v1h-1z"/><path fill="#915959" d="M85 92h1v1h-1z"/><path fill="#9d6a6a" d="M86 92h1v1h-1z"/><path fill="#864e4e" d="M3 93h1v1H3zM4 93h1v1H4zM5 93h1v1H5zM6 93h1v1H6z"/><path fill="#8e5252" d="M7 93h1v1H7zM8 93h1v1H8zM9 93h1v1H9zM10 93h1v1h-1zM11 93h1v1h-1zM12 93h1v1h-1zM13 93h1v1h-1zM14 93h1v1h-1z"/><path fill="#864e4e" d="M15 93h1v1h-1z"/><path fill="#8e5252" d="M16 93h1v1h-1zM17 93h1v1h-1zM18 93h1v1h-1zM19 93h1v1h-1z"/><path fill="#864e4e" d="M20 93h1v1h-1zM21 93h1v1h-1zM22 93h1v1h-1z"/><path fill="#8e5252" d="M23 93h1v1h-1zM24 93h1v1h-1zM25 93h1v1h-1zM26 93h1v1h-1zM27 93h1v1h-1z"/><path fill="#864e4e" d="M28 93h1v1h-1zM29 93h1v1h-1zM30 93h1v1h-1zM31 93h1v1h-1z"/><path fill="#8e5252" d="M32 93h1v1h-1z"/><path fill="#7e4949" d="M33 93h1v1h-1z"/><path fill="#864e4e" d="M34 93h1v1h-1z"/><path fill="#8e5252" d="M35 93h1v1h-1zM36 93h1v1h-1zM37 93h1v1h-1zM38 93h1v1h-1zM39 93h1v1h-1zM40 93h1v1h-1zM41 93h1v1h-1zM42 93h1v1h-1z"/><path fill="#955c5c" d="M43 93h1v1h-1z"/><path fill="#8e5252" d="M44 93h1v1h-1zM45 93h1v1h-1zM46 93h1v1h-1zM47 93h1v1h-1zM48 93h1v1h-1zM49 93h1v1h-1z"/><path fill="#955c5c" d="M50 93h1v1h-1zM51 93h1v1h-1z"/><path fill="#8e5252" d="M52 93h1v1h-1zM53 93h1v1h-1z"/><path fill="#864e4e" d="M54 93h1v1h-1zM55 93h1v1h-1z"/><path fill="#8e5252" d="M56 93h1v1h-1zM57 93h1v1h-1z"/><path fill="#864e4e" d="M58 93h1v1h-1zM59 93h1v1h-1zM60 93h1v1h-1zM61 93h1v1h-1z"/><path fill="#7e4949" d="M62 93h1v1h-1z"/><path fill="#864e4e" d="M63 93h1v1h-1z"/><path fill="#8e5252" d="M64 93h1v1h-1z"/><path fill="#925858" d="M65 93h1v1h-1z"/><path fill="#955c5c" d="M66 93h1v1h-1zM67 93h1v1h-1z"/><path fill="#8e5252" d="M68 93h1v1h-1z"/><path fill="#864e4e" d="M69 93h1v1h-1zM70 93h1v1h-1zM71 93h1v1h-1zM72 93h1v1h-1z"/><path fill="#8e5252" d="M73 93h1v1h-1zM74 93h1v1h-1zM75 93h1v1h-1zM76 93h1v1h-1z"/><path fill="#864e4e" d="M77 93h1v1h-1zM78 93h1v1h-1zM79 93h1v1h-1z"/><path fill="#8e5252" d="M80 93h1v1h-1zM81 93h1v1h-1zM82 93h1v1h-1zM83 93h1v1h-1zM84 93h1v1h-1z"/><path fill="#915959" d="M85 93h1v1h-1zM86 93h1v1h-1z"/><path fill="#7e4949" d="M3 94h1v1H3z"/><path fill="#864e4e" d="M4 94h1v1H4zM5 94h1v1H5zM6 94h1v1H6z"/><path fill="#8e5252" d="M7 94h1v1H7zM8 94h1v1H8zM9 94h1v1H9zM10 94h1v1h-1z"/><path fill="#955c5c" d="M11 94h1v1h-1z"/><path fill="#925858" d="M12 94h1v1h-1z"/><path fill="#8e5252" d="M13 94h1v1h-1zM14 94h1v1h-1zM15 94h1v1h-1zM16 94h1v1h-1zM17 94h1v1h-1zM18 94h1v1h-1zM19 94h1v1h-1zM20 94h1v1h-1zM21 94h1v1h-1zM22 94h1v1h-1zM23 94h1v1h-1z"/><path fill="#925858" d="M24 94h1v1h-1z"/><path fill="#955c5c" d="M25 94h1v1h-1z"/><path fill="#8e5252" d="M26 94h1v1h-1zM27 94h1v1h-1zM28 94h1v1h-1zM29 94h1v1h-1zM30 94h1v1h-1zM31 94h1v1h-1zM32 94h1v1h-1zM33 94h1v1h-1z"/><path fill="#7e4949" d="M34 94h1v1h-1z"/><path fill="#864e4e" d="M35 94h1v1h-1zM36 94h1v1h-1z"/><path fill="#8e5252" d="M37 94h1v1h-1zM38 94h1v1h-1zM39 94h1v1h-1zM40 94h1v1h-1zM41 94h1v1h-1z"/><path fill="#925858" d="M42 94h1v1h-1zM43 94h1v1h-1z"/><path fill="#955c5c" d="M44 94h1v1h-1z"/><path fill="#8e5252" d="M45 94h1v1h-1zM46 94h1v1h-1zM47 94h1v1h-1zM48 94h1v1h-1z"/><path fill="#925858" d="M49 94h1v1h-1zM50 94h1v1h-1z"/><path fill="#955c5c" d="M51 94h1v1h-1z"/><path fill="#8e5252" d="M52 94h1v1h-1zM53 94h1v1h-1zM54 94h1v1h-1zM55 94h1v1h-1zM56 94h1v1h-1zM57 94h1v1h-1zM58 94h1v1h-1z"/><path fill="#864e4e" d="M59 94h1v1h-1zM60 94h1v1h-1zM61 94h1v1h-1zM62 94h1v1h-1z"/><path fill="#8e5252" d="M63 94h1v1h-1zM64 94h1v1h-1z"/><path fill="#925858" d="M65 94h1v1h-1zM66 94h1v1h-1z"/><path fill="#8e5252" d="M67 94h1v1h-1zM68 94h1v1h-1zM69 94h1v1h-1z"/><path fill="#864e4e" d="M70 94h1v1h-1z"/><path fill="#8e5252" d="M71 94h1v1h-1zM72 94h1v1h-1zM73 94h1v1h-1zM74 94h1v1h-1z"/><path fill="#955c5c" d="M75 94h1v1h-1z"/><path fill="#8e5252" d="M76 94h1v1h-1zM77 94h1v1h-1z"/><path fill="#864e4e" d="M78 94h1v1h-1z"/><path fill="#8e5252" d="M79 94h1v1h-1zM80 94h1v1h-1zM81 94h1v1h-1zM82 94h1v1h-1zM83 94h1v1h-1z"/><path fill="#915959" d="M84 94h1v1h-1zM85 94h1v1h-1z"/><path fill="#9d6a6a" d="M86 94h1v1h-1z"/><path fill="#864e4e" d="M4 95h1v1H4zM5 95h1v1H5zM6 95h1v1H6z"/><path fill="#8e5252" d="M7 95h1v1H7zM8 95h1v1H8zM9 95h1v1H9zM10 95h1v1h-1zM11 95h1v1h-1zM12 95h1v1h-1zM13 95h1v1h-1z"/><path fill="#864e4e" d="M14 95h1v1h-1z"/><path fill="#8e5252" d="M15 95h1v1h-1zM16 95h1v1h-1zM17 95h1v1h-1z"/><path fill="#955c5c" d="M18 95h1v1h-1z"/><path fill="#8e5252" d="M19 95h1v1h-1zM20 95h1v1h-1zM21 95h1v1h-1zM22 95h1v1h-1zM23 95h1v1h-1z"/><path fill="#925858" d="M24 95h1v1h-1zM25 95h1v1h-1z"/><path fill="#8e5252" d="M26 95h1v1h-1zM27 95h1v1h-1zM28 95h1v1h-1zM29 95h1v1h-1zM30 95h1v1h-1zM31 95h1v1h-1zM32 95h1v1h-1zM33 95h1v1h-1zM34 95h1v1h-1zM35 95h1v1h-1zM36 95h1v1h-1zM37 95h1v1h-1zM38 95h1v1h-1zM39 95h1v1h-1zM40 95h1v1h-1zM41 95h1v1h-1z"/><path fill="#925858" d="M42 95h1v1h-1zM43 95h1v1h-1z"/><path fill="#955c5c" d="M44 95h1v1h-1z"/><path fill="#8e5252" d="M45 95h1v1h-1zM46 95h1v1h-1zM47 95h1v1h-1z"/><path fill="#925858" d="M48 95h1v1h-1zM49 95h1v1h-1zM50 95h1v1h-1z"/><path fill="#955c5c" d="M51 95h1v1h-1zM52 95h1v1h-1z"/><path fill="#8e5252" d="M53 95h1v1h-1zM54 95h1v1h-1zM55 95h1v1h-1z"/><path fill="#925858" d="M56 95h1v1h-1z"/><path fill="#955c5c" d="M57 95h1v1h-1z"/><path fill="#8e5252" d="M58 95h1v1h-1zM59 95h1v1h-1zM60 95h1v1h-1zM61 95h1v1h-1zM62 95h1v1h-1zM63 95h1v1h-1zM64 95h1v1h-1zM65 95h1v1h-1zM66 95h1v1h-1zM67 95h1v1h-1zM68 95h1v1h-1z"/><path fill="#864e4e" d="M69 95h1v1h-1zM70 95h1v1h-1z"/><path fill="#8e5252" d="M71 95h1v1h-1zM72 95h1v1h-1zM73 95h1v1h-1z"/><path fill="#925858" d="M74 95h1v1h-1z"/><path fill="#955c5c" d="M75 95h1v1h-1zM76 95h1v1h-1z"/><path fill="#8e5252" d="M77 95h1v1h-1zM78 95h1v1h-1zM79 95h1v1h-1zM80 95h1v1h-1zM81 95h1v1h-1zM82 95h1v1h-1zM83 95h1v1h-1z"/><path fill="#915959" d="M84 95h1v1h-1zM85 95h1v1h-1z"/><path fill="#9d6a6a" d="M86 95h1v1h-1z"/><path fill="#7e4949" d="M4 96h1v1H4z"/><path fill="#864e4e" d="M5 96h1v1H5zM6 96h1v1H6z"/><path fill="#7e4949" d="M7 96h1v1H7zM8 96h1v1H8z"/><path fill="#8e5252" d="M9 96h1v1H9zM10 96h1v1h-1zM11 96h1v1h-1zM12 96h1v1h-1z"/><path fill="#864e4e" d="M13 96h1v1h-1zM14 96h1v1h-1z"/><path fill="#8e5252" d="M15 96h1v1h-1zM16 96h1v1h-1z"/><path fill="#925858" d="M17 96h1v1h-1z"/><path fill="#955c5c" d="M18 96h1v1h-1z"/><path fill="#8e5252" d="M19 96h1v1h-1zM20 96h1v1h-1zM21 96h1v1h-1z"/><path fill="#864e4e" d="M22 96h1v1h-1z"/><path fill="#8e5252" d="M23 96h1v1h-1zM24 96h1v1h-1zM25 96h1v1h-1zM26 96h1v1h-1zM27 96h1v1h-1zM28 96h1v1h-1zM29 96h1v1h-1zM30 96h1v1h-1zM31 96h1v1h-1zM32 96h1v1h-1zM33 96h1v1h-1zM34 96h1v1h-1zM35 96h1v1h-1zM36 96h1v1h-1zM37 96h1v1h-1zM38 96h1v1h-1zM39 96h1v1h-1z"/><path fill="#7e4949" d="M40 96h1v1h-1z"/><path fill="#864e4e" d="M41 96h1v1h-1z"/><path fill="#8e5252" d="M42 96h1v1h-1zM43 96h1v1h-1zM44 96h1v1h-1z"/><path fill="#864e4e" d="M45 96h1v1h-1z"/><path fill="#8e5252" d="M46 96h1v1h-1zM47 96h1v1h-1zM48 96h1v1h-1z"/><path fill="#925858" d="M49 96h1v1h-1z"/><path fill="#955c5c" d="M50 96h1v1h-1z"/><path fill="#925858" d="M51 96h1v1h-1z"/><path fill="#955c5c" d="M52 96h1v1h-1z"/><path fill="#8e5252" d="M53 96h1v1h-1z"/><path fill="#864e4e" d="M54 96h1v1h-1z"/><path fill="#8e5252" d="M55 96h1v1h-1z"/><path fill="#925858" d="M56 96h1v1h-1zM57 96h1v1h-1z"/><path fill="#8e5252" d="M58 96h1v1h-1zM59 96h1v1h-1zM60 96h1v1h-1zM61 96h1v1h-1zM62 96h1v1h-1z"/><path fill="#7e4949" d="M63 96h1v1h-1z"/><path fill="#8e5252" d="M64 96h1v1h-1zM65 96h1v1h-1zM66 96h1v1h-1z"/><path fill="#864e4e" d="M67 96h1v1h-1zM68 96h1v1h-1zM69 96h1v1h-1z"/><path fill="#8e5252" d="M70 96h1v1h-1zM71 96h1v1h-1z"/><path fill="#7e4949" d="M72 96h1v1h-1z"/><path fill="#8e5252" d="M73 96h1v1h-1z"/><path fill="#925858" d="M74 96h1v1h-1zM75 96h1v1h-1z"/><path fill="#8e5252" d="M76 96h1v1h-1zM77 96h1v1h-1z"/><path fill="#864e4e" d="M78 96h1v1h-1z"/><path fill="#8e5252" d="M79 96h1v1h-1zM80 96h1v1h-1zM81 96h1v1h-1zM82 96h1v1h-1z"/><path fill="#915959" d="M83 96h1v1h-1zM84 96h1v1h-1zM85 96h1v1h-1z"/><path fill="#9d6a6a" d="M86 96h1v1h-1z"/><path fill="#7e4949" d="M5 97h1v1H5z"/><path fill="#864e4e" d="M6 97h1v1H6zM7 97h1v1H7z"/><path fill="#7e4949" d="M8 97h1v1H8zM9 97h1v1H9z"/><path fill="#8e5252" d="M10 97h1v1h-1zM11 97h1v1h-1z"/><path fill="#7e4949" d="M12 97h1v1h-1z"/><path fill="#864e4e" d="M13 97h1v1h-1z"/><path fill="#8e5252" d="M14 97h1v1h-1zM15 97h1v1h-1z"/><path fill="#864e4e" d="M16 97h1v1h-1z"/><path fill="#925858" d="M17 97h1v1h-1zM18 97h1v1h-1z"/><path fill="#955c5c" d="M19 97h1v1h-1z"/><path fill="#8e5252" d="M20 97h1v1h-1zM21 97h1v1h-1z"/><path fill="#7e4949" d="M22 97h1v1h-1z"/><path fill="#864e4e" d="M23 97h1v1h-1z"/><path fill="#8e5252" d="M24 97h1v1h-1z"/><path fill="#864e4e" d="M25 97h1v1h-1zM26 97h1v1h-1z"/><path fill="#8e5252" d="M27 97h1v1h-1zM28 97h1v1h-1zM29 97h1v1h-1zM30 97h1v1h-1zM31 97h1v1h-1zM32 97h1v1h-1zM33 97h1v1h-1zM34 97h1v1h-1zM35 97h1v1h-1zM36 97h1v1h-1zM37 97h1v1h-1zM38 97h1v1h-1zM39 97h1v1h-1zM40 97h1v1h-1z"/><path fill="#7e4949" d="M41 97h1v1h-1zM42 97h1v1h-1z"/><path fill="#864e4e" d="M43 97h1v1h-1zM44 97h1v1h-1z"/><path fill="#8e5252" d="M45 97h1v1h-1zM46 97h1v1h-1zM47 97h1v1h-1zM48 97h1v1h-1z"/><path fill="#925858" d="M49 97h1v1h-1z"/><path fill="#955c5c" d="M50 97h1v1h-1z"/><path fill="#925858" d="M51 97h1v1h-1zM52 97h1v1h-1z"/><path fill="#8e5252" d="M53 97h1v1h-1z"/><path fill="#7e4949" d="M54 97h1v1h-1z"/><path fill="#864e4e" d="M55 97h1v1h-1z"/><path fill="#8e5252" d="M56 97h1v1h-1zM57 97h1v1h-1zM58 97h1v1h-1z"/><path fill="#864e4e" d="M59 97h1v1h-1z"/><path fill="#8e5252" d="M60 97h1v1h-1zM61 97h1v1h-1zM62 97h1v1h-1zM63 97h1v1h-1z"/><path fill="#7e4949" d="M64 97h1v1h-1zM65 97h1v1h-1z"/><path fill="#864e4e" d="M66 97h1v1h-1zM67 97h1v1h-1z"/><path fill="#8e5252" d="M68 97h1v1h-1zM69 97h1v1h-1zM70 97h1v1h-1zM71 97h1v1h-1z"/><path fill="#864e4e" d="M72 97h1v1h-1zM73 97h1v1h-1z"/><path fill="#8e5252" d="M74 97h1v1h-1zM75 97h1v1h-1zM76 97h1v1h-1z"/><path fill="#864e4e" d="M77 97h1v1h-1zM78 97h1v1h-1z"/><path fill="#8e5252" d="M79 97h1v1h-1zM80 97h1v1h-1zM81 97h1v1h-1zM82 97h1v1h-1z"/><path fill="#915959" d="M83 97h1v1h-1zM84 97h1v1h-1z"/><path fill="#9d6a6a" d="M85 97h1v1h-1z"/><path fill="#7e4949" d="M6 98h1v1H6z"/><path fill="#864e4e" d="M7 98h1v1H7zM8 98h1v1H8zM9 98h1v1H9z"/><path fill="#7e4949" d="M10 98h1v1h-1zM11 98h1v1h-1z"/><path fill="#8e5252" d="M12 98h1v1h-1zM13 98h1v1h-1zM14 98h1v1h-1zM15 98h1v1h-1z"/><path fill="#7e4949" d="M16 98h1v1h-1z"/><path fill="#925858" d="M17 98h1v1h-1zM18 98h1v1h-1z"/><path fill="#8e5252" d="M19 98h1v1h-1zM20 98h1v1h-1zM21 98h1v1h-1zM22 98h1v1h-1z"/><path fill="#7e4949" d="M23 98h1v1h-1zM24 98h1v1h-1z"/><path fill="#864e4e" d="M25 98h1v1h-1z"/><path fill="#8e5252" d="M26 98h1v1h-1zM27 98h1v1h-1zM28 98h1v1h-1zM29 98h1v1h-1zM30 98h1v1h-1zM31 98h1v1h-1z"/><path fill="#864e4e" d="M32 98h1v1h-1zM33 98h1v1h-1zM34 98h1v1h-1zM35 98h1v1h-1z"/><path fill="#8e5252" d="M36 98h1v1h-1zM37 98h1v1h-1zM38 98h1v1h-1zM39 98h1v1h-1zM40 98h1v1h-1zM41 98h1v1h-1zM42 98h1v1h-1zM43 98h1v1h-1zM44 98h1v1h-1zM45 98h1v1h-1zM46 98h1v1h-1zM47 98h1v1h-1zM48 98h1v1h-1z"/><path fill="#925858" d="M49 98h1v1h-1zM50 98h1v1h-1z"/><path fill="#955c5c" d="M51 98h1v1h-1z"/><path fill="#8e5252" d="M52 98h1v1h-1zM53 98h1v1h-1zM54 98h1v1h-1z"/><path fill="#7e4949" d="M55 98h1v1h-1zM56 98h1v1h-1z"/><path fill="#864e4e" d="M57 98h1v1h-1zM58 98h1v1h-1z"/><path fill="#8e5252" d="M59 98h1v1h-1zM60 98h1v1h-1zM61 98h1v1h-1zM62 98h1v1h-1zM63 98h1v1h-1zM64 98h1v1h-1zM65 98h1v1h-1zM66 98h1v1h-1zM67 98h1v1h-1zM68 98h1v1h-1zM69 98h1v1h-1zM70 98h1v1h-1zM71 98h1v1h-1zM72 98h1v1h-1z"/><path fill="#7e4949" d="M73 98h1v1h-1zM74 98h1v1h-1z"/><path fill="#864e4e" d="M75 98h1v1h-1zM76 98h1v1h-1zM77 98h1v1h-1z"/><path fill="#8e5252" d="M78 98h1v1h-1zM79 98h1v1h-1zM80 98h1v1h-1zM81 98h1v1h-1z"/><path fill="#915959" d="M82 98h1v1h-1zM83 98h1v1h-1z"/><path fill="#9d6a6a" d="M84 98h1v1h-1z"/><path fill="#7e4949" d="M7 99h1v1H7zM8 99h1v1H8z"/><path fill="#864e4e" d="M9 99h1v1H9zM10 99h1v1h-1z"/><path fill="#8e5252" d="M11 99h1v1h-1zM12 99h1v1h-1zM13 99h1v1h-1zM14 99h1v1h-1zM15 99h1v1h-1zM16 99h1v1h-1z"/><path fill="#7e4949" d="M17 99h1v1h-1z"/><path fill="#864e4e" d="M18 99h1v1h-1z"/><path fill="#8e5252" d="M19 99h1v1h-1zM20 99h1v1h-1zM21 99h1v1h-1zM22 99h1v1h-1zM23 99h1v1h-1zM24 99h1v1h-1zM25 99h1v1h-1zM26 99h1v1h-1zM27 99h1v1h-1zM28 99h1v1h-1zM29 99h1v1h-1zM30 99h1v1h-1z"/><path fill="#864e4e" d="M31 99h1v1h-1z"/><path fill="#8e5252" d="M32 99h1v1h-1zM33 99h1v1h-1zM34 99h1v1h-1zM35 99h1v1h-1z"/><path fill="#864e4e" d="M36 99h1v1h-1zM37 99h1v1h-1z"/><path fill="#8e5252" d="M38 99h1v1h-1zM39 99h1v1h-1zM40 99h1v1h-1zM41 99h1v1h-1zM42 99h1v1h-1zM43 99h1v1h-1zM44 99h1v1h-1zM45 99h1v1h-1zM46 99h1v1h-1z"/><path fill="#7e4949" d="M47 99h1v1h-1z"/><path fill="#8e5252" d="M48 99h1v1h-1zM49 99h1v1h-1z"/><path fill="#925858" d="M50 99h1v1h-1zM51 99h1v1h-1z"/><path fill="#8e5252" d="M52 99h1v1h-1zM53 99h1v1h-1zM54 99h1v1h-1zM55 99h1v1h-1zM56 99h1v1h-1zM57 99h1v1h-1zM58 99h1v1h-1zM59 99h1v1h-1zM60 99h1v1h-1zM61 99h1v1h-1zM62 99h1v1h-1zM63 99h1v1h-1zM64 99h1v1h-1zM65 99h1v1h-1zM66 99h1v1h-1zM67 99h1v1h-1zM68 99h1v1h-1zM69 99h1v1h-1zM70 99h1v1h-1zM71 99h1v1h-1zM72 99h1v1h-1zM73 99h1v1h-1zM74 99h1v1h-1zM75 99h1v1h-1zM76 99h1v1h-1zM77 99h1v1h-1zM78 99h1v1h-1zM79 99h1v1h-1zM80 99h1v1h-1z"/><path fill="#915959" d="M81 99h1v1h-1zM82 99h1v1h-1zM83 99h1v1h-1z"/><path fill="#7e4949" d="M8 100h1v1H8z"/><path fill="#864e4e" d="M9 100h1v1H9zM10 100h1v1h-1zM11 100h1v1h-1zM12 100h1v1h-1zM13 100h1v1h-1z"/><path fill="#8e5252" d="M14 100h1v1h-1z"/><path fill="#864e4e" d="M15 100h1v1h-1zM16 100h1v1h-1zM17 100h1v1h-1z"/><path fill="#8e5252" d="M18 100h1v1h-1zM19 100h1v1h-1zM20 100h1v1h-1zM21 100h1v1h-1zM22 100h1v1h-1zM23 100h1v1h-1zM24 100h1v1h-1zM25 100h1v1h-1zM26 100h1v1h-1zM27 100h1v1h-1zM28 100h1v1h-1zM29 100h1v1h-1zM30 100h1v1h-1zM31 100h1v1h-1zM32 100h1v1h-1z"/><path fill="#925858" d="M33 100h1v1h-1z"/><path fill="#955c5c" d="M34 100h1v1h-1zM35 100h1v1h-1z"/><path fill="#8e5252" d="M36 100h1v1h-1z"/><path fill="#864e4e" d="M37 100h1v1h-1zM38 100h1v1h-1z"/><path fill="#8e5252" d="M39 100h1v1h-1zM40 100h1v1h-1zM41 100h1v1h-1zM42 100h1v1h-1zM43 100h1v1h-1zM44 100h1v1h-1zM45 100h1v1h-1zM46 100h1v1h-1z"/><path fill="#7e4949" d="M47 100h1v1h-1z"/><path fill="#864e4e" d="M48 100h1v1h-1z"/><path fill="#8e5252" d="M49 100h1v1h-1zM50 100h1v1h-1zM51 100h1v1h-1z"/><path fill="#864e4e" d="M52 100h1v1h-1z"/><path fill="#8e5252" d="M53 100h1v1h-1zM54 100h1v1h-1zM55 100h1v1h-1zM56 100h1v1h-1zM57 100h1v1h-1zM58 100h1v1h-1z"/><path fill="#864e4e" d="M59 100h1v1h-1zM60 100h1v1h-1zM61 100h1v1h-1z"/><path fill="#8e5252" d="M62 100h1v1h-1zM63 100h1v1h-1zM64 100h1v1h-1zM65 100h1v1h-1zM66 100h1v1h-1zM67 100h1v1h-1zM68 100h1v1h-1zM69 100h1v1h-1zM70 100h1v1h-1zM71 100h1v1h-1zM72 100h1v1h-1zM73 100h1v1h-1zM74 100h1v1h-1zM75 100h1v1h-1zM76 100h1v1h-1zM77 100h1v1h-1zM78 100h1v1h-1zM79 100h1v1h-1z"/><path fill="#864e4e" d="M80 100h1v1h-1z"/><path fill="#915959" d="M81 100h1v1h-1z"/><path fill="#9d6a6a" d="M82 100h1v1h-1z"/><path fill="#7e4949" d="M9 101h1v1H9zM10 101h1v1h-1z"/><path fill="#864e4e" d="M11 101h1v1h-1zM12 101h1v1h-1zM13 101h1v1h-1zM14 101h1v1h-1zM15 101h1v1h-1zM16 101h1v1h-1zM17 101h1v1h-1zM18 101h1v1h-1zM19 101h1v1h-1z"/><path fill="#8e5252" d="M20 101h1v1h-1zM21 101h1v1h-1zM22 101h1v1h-1zM23 101h1v1h-1zM24 101h1v1h-1zM25 101h1v1h-1zM26 101h1v1h-1zM27 101h1v1h-1zM28 101h1v1h-1zM29 101h1v1h-1zM30 101h1v1h-1zM31 101h1v1h-1zM32 101h1v1h-1z"/><path fill="#925858" d="M33 101h1v1h-1zM34 101h1v1h-1z"/><path fill="#8e5252" d="M35 101h1v1h-1zM36 101h1v1h-1zM37 101h1v1h-1zM38 101h1v1h-1zM39 101h1v1h-1zM40 101h1v1h-1z"/><path fill="#864e4e" d="M41 101h1v1h-1zM42 101h1v1h-1zM43 101h1v1h-1z"/><path fill="#8e5252" d="M44 101h1v1h-1zM45 101h1v1h-1zM46 101h1v1h-1zM47 101h1v1h-1z"/><path fill="#7e4949" d="M48 101h1v1h-1z"/><path fill="#864e4e" d="M49 101h1v1h-1zM50 101h1v1h-1zM51 101h1v1h-1z"/><path fill="#8e5252" d="M52 101h1v1h-1zM53 101h1v1h-1zM54 101h1v1h-1zM55 101h1v1h-1zM56 101h1v1h-1zM57 101h1v1h-1z"/><path fill="#864e4e" d="M58 101h1v1h-1z"/><path fill="#8e5252" d="M59 101h1v1h-1zM60 101h1v1h-1zM61 101h1v1h-1z"/><path fill="#864e4e" d="M62 101h1v1h-1z"/><path fill="#8e5252" d="M63 101h1v1h-1zM64 101h1v1h-1zM65 101h1v1h-1zM66 101h1v1h-1z"/><path fill="#864e4e" d="M67 101h1v1h-1zM68 101h1v1h-1zM69 101h1v1h-1zM70 101h1v1h-1zM71 101h1v1h-1z"/><path fill="#8e5252" d="M72 101h1v1h-1zM73 101h1v1h-1zM74 101h1v1h-1z"/><path fill="#864e4e" d="M75 101h1v1h-1zM76 101h1v1h-1zM77 101h1v1h-1zM78 101h1v1h-1zM79 101h1v1h-1zM80 101h1v1h-1z"/><path fill="#915959" d="M81 101h1v1h-1z"/><path fill="#7e4949" d="M11 102h1v1h-1zM12 102h1v1h-1zM13 102h1v1h-1zM14 102h1v1h-1z"/><path fill="#864e4e" d="M15 102h1v1h-1zM16 102h1v1h-1zM17 102h1v1h-1zM18 102h1v1h-1zM19 102h1v1h-1zM20 102h1v1h-1z"/><path fill="#7e4949" d="M21 102h1v1h-1zM22 102h1v1h-1z"/><path fill="#864e4e" d="M23 102h1v1h-1zM24 102h1v1h-1zM25 102h1v1h-1z"/><path fill="#8e5252" d="M26 102h1v1h-1zM27 102h1v1h-1z"/><path fill="#864e4e" d="M28 102h1v1h-1zM29 102h1v1h-1z"/><path fill="#7e4949" d="M30 102h1v1h-1z"/><path fill="#864e4e" d="M31 102h1v1h-1z"/><path fill="#8e5252" d="M32 102h1v1h-1zM33 102h1v1h-1zM34 102h1v1h-1z"/><path fill="#864e4e" d="M35 102h1v1h-1zM36 102h1v1h-1zM37 102h1v1h-1zM38 102h1v1h-1zM39 102h1v1h-1zM40 102h1v1h-1zM41 102h1v1h-1z"/><path fill="#7e4949" d="M42 102h1v1h-1z"/><path fill="#864e4e" d="M43 102h1v1h-1zM44 102h1v1h-1z"/><path fill="#8e5252" d="M45 102h1v1h-1zM46 102h1v1h-1zM47 102h1v1h-1zM48 102h1v1h-1zM49 102h1v1h-1zM50 102h1v1h-1zM51 102h1v1h-1zM52 102h1v1h-1zM53 102h1v1h-1zM54 102h1v1h-1zM55 102h1v1h-1z"/><path fill="#864e4e" d="M56 102h1v1h-1z"/><path fill="#7e4949" d="M57 102h1v1h-1z"/><path fill="#8e5252" d="M58 102h1v1h-1zM59 102h1v1h-1z"/><path fill="#925858" d="M60 102h1v1h-1z"/><path fill="#955c5c" d="M61 102h1v1h-1z"/><path fill="#8e5252" d="M62 102h1v1h-1zM63 102h1v1h-1z"/><path fill="#864e4e" d="M64 102h1v1h-1zM65 102h1v1h-1zM66 102h1v1h-1zM67 102h1v1h-1zM68 102h1v1h-1zM69 102h1v1h-1zM70 102h1v1h-1zM71 102h1v1h-1zM72 102h1v1h-1zM73 102h1v1h-1zM74 102h1v1h-1zM75 102h1v1h-1zM76 102h1v1h-1z"/><path fill="#7e4949" d="M77 102h1v1h-1zM78 102h1v1h-1zM79 102h1v1h-1zM15 103h1v1h-1zM16 103h1v1h-1zM17 103h1v1h-1zM18 103h1v1h-1zM19 103h1v1h-1zM20 103h1v1h-1zM21 103h1v1h-1zM22 103h1v1h-1z"/><path fill="#864e4e" d="M23 103h1v1h-1zM24 103h1v1h-1zM25 103h1v1h-1zM26 103h1v1h-1zM27 103h1v1h-1zM28 103h1v1h-1zM29 103h1v1h-1z"/><path fill="#7e4949" d="M30 103h1v1h-1zM31 103h1v1h-1z"/><path fill="#864e4e" d="M32 103h1v1h-1zM33 103h1v1h-1zM34 103h1v1h-1z"/><path fill="#7e4949" d="M35 103h1v1h-1zM36 103h1v1h-1zM37 103h1v1h-1zM38 103h1v1h-1z"/><path fill="#864e4e" d="M39 103h1v1h-1zM40 103h1v1h-1z"/><path fill="#7e4949" d="M41 103h1v1h-1zM42 103h1v1h-1zM43 103h1v1h-1z"/><path fill="#864e4e" d="M44 103h1v1h-1zM45 103h1v1h-1zM46 103h1v1h-1zM47 103h1v1h-1zM48 103h1v1h-1zM49 103h1v1h-1zM50 103h1v1h-1zM51 103h1v1h-1zM52 103h1v1h-1zM53 103h1v1h-1zM54 103h1v1h-1zM55 103h1v1h-1zM56 103h1v1h-1z"/><path fill="#7e4949" d="M57 103h1v1h-1zM58 103h1v1h-1z"/><path fill="#864e4e" d="M59 103h1v1h-1z"/><path fill="#8e5252" d="M60 103h1v1h-1zM61 103h1v1h-1z"/><path fill="#864e4e" d="M62 103h1v1h-1zM63 103h1v1h-1zM64 103h1v1h-1zM65 103h1v1h-1zM66 103h1v1h-1zM67 103h1v1h-1z"/><path fill="#7e4949" d="M68 103h1v1h-1zM69 103h1v1h-1zM70 103h1v1h-1zM71 103h1v1h-1zM72 103h1v1h-1zM73 103h1v1h-1zM74 103h1v1h-1zM75 103h1v1h-1zM76 103h1v1h-1zM22 104h1v1h-1zM23 104h1v1h-1zM24 104h1v1h-1zM25 104h1v1h-1zM26 104h1v1h-1z"/><path fill="#864e4e" d="M27 104h1v1h-1zM28 104h1v1h-1z"/><path fill="#7e4949" d="M29 104h1v1h-1zM30 104h1v1h-1zM31 104h1v1h-1zM32 104h1v1h-1zM33 104h1v1h-1zM34 104h1v1h-1zM35 104h1v1h-1zM36 104h1v1h-1zM37 104h1v1h-1zM38 104h1v1h-1zM39 104h1v1h-1zM40 104h1v1h-1zM41 104h1v1h-1zM42 104h1v1h-1zM43 104h1v1h-1zM44 104h1v1h-1z"/><path fill="#864e4e" d="M45 104h1v1h-1zM46 104h1v1h-1z"/><path fill="#7e4949" d="M47 104h1v1h-1zM48 104h1v1h-1zM49 104h1v1h-1zM50 104h1v1h-1zM51 104h1v1h-1z"/><path fill="#864e4e" d="M52 104h1v1h-1zM53 104h1v1h-1zM54 104h1v1h-1zM55 104h1v1h-1z"/><path fill="#7e4949" d="M56 104h1v1h-1zM57 104h1v1h-1zM58 104h1v1h-1zM59 104h1v1h-1z"/><path fill="#864e4e" d="M60 104h1v1h-1zM61 104h1v1h-1z"/><path fill="#7e4949" d="M62 104h1v1h-1zM63 104h1v1h-1zM64 104h1v1h-1zM65 104h1v1h-1zM66 104h1v1h-1zM67 104h1v1h-1zM25 105h1v1h-1zM26 105h1v1h-1zM27 105h1v1h-1zM28 105h1v1h-1zM29 105h1v1h-1zM42 105h1v1h-1zM43 105h1v1h-1zM44 105h1v1h-1zM45 105h1v1h-1zM46 105h1v1h-1zM47 105h1v1h-1zM48 105h1v1h-1zM49 105h1v1h-1zM50 105h1v1h-1zM57 105h1v1h-1zM58 105h1v1h-1zM59 105h1v1h-1zM60 105h1v1h-1zM61 105h1v1h-1zM62 105h1v1h-1zM63 105h1v1h-1zM26 106h1v1h-1zM27 106h1v1h-1zM28 106h1v1h-1zM46 106h1v1h-1zM47 106h1v1h-1zM48 106h1v1h-1zM49 106h1v1h-1zM58 106h1v1h-1zM59 106h1v1h-1zM60 106h1v1h-1zM61 106h1v1h-1z"/></svg>