<svg xmlns="http://www.w3.org/2000/svg" width="64" height="64" shape-rendering="crispEdges" viewBox="0 0 64 64"><path fill="#3b1b09" d="M29 6h1v1h-1zM30 6h1v1h-1zM31 6h1v1h-1zM32 6h1v1h-1zM33 6h1v1h-1zM34 6h1v1h-1zM35 6h1v1h-1zM24 7h1v1h-1zM25 7h1v1h-1zM26 7h1v1h-1zM27 7h1v1h-1zM28 7h1v1h-1zM29 7h1v1h-1zM30 7h1v1h-1z"/><path fill="#411f0c" d="M31 7h1v1h-1z"/><path fill="#3b1b09" d="M32 7h1v1h-1zM33 7h1v1h-1zM34 7h1v1h-1zM35 7h1v1h-1zM36 7h1v1h-1zM37 7h1v1h-1zM38 7h1v1h-1zM22 8h1v1h-1zM23 8h1v1h-1zM24 8h1v1h-1z"/><path fill="#411f0c" d="M25 8h1v1h-1z"/><path fill="#46220e" d="M26 8h1v1h-1z"/><path fill="#3b1b09" d="M27 8h1v1h-1zM28 8h1v1h-1zM29 8h1v1h-1zM30 8h1v1h-1z"/><path fill="#411f0c" d="M31 8h1v1h-1z"/><path fill="#46220e" d="M32 8h1v1h-1z"/><path fill="#411f0c" d="M33 8h1v1h-1z"/><path fill="#3b1b09" d="M34 8h1v1h-1zM35 8h1v1h-1zM36 8h1v1h-1zM37 8h1v1h-1zM38 8h1v1h-1zM39 8h1v1h-1zM21 9h1v1h-1zM22 9h1v1h-1z"/><path fill="#411f0c" d="M23 9h1v1h-1z"/><path fill="#46220e" d="M24 9h1v1h-1zM25 9h1v1h-1zM26 9h1v1h-1z"/><path fill="#3b1b09" d="M27 9h1v1h-1zM28 9h1v1h-1zM29 9h1v1h-1z"/><path fill="#411f0c" d="M30 9h1v1h-1z"/><path fill="#46220e" d="M31 9h1v1h-1zM32 9h1v1h-1z"/><path fill="#3b1b09" d="M33 9h1v1h-1zM34 9h1v1h-1zM35 9h1v1h-1zM36 9h1v1h-1zM37 9h1v1h-1zM38 9h1v1h-1zM39 9h1v1h-1zM40 9h1v1h-1zM20 10h1v1h-1zM21 10h1v1h-1zM22 10h1v1h-1z"/><path fill="#411f0c" d="M23 10h1v1h-1z"/><path fill="#46220e" d="M24 10h1v1h-1zM25 10h1v1h-1z"/><path fill="#3b1b09" d="M26 10h1v1h-1zM27 10h1v1h-1zM28 10h1v1h-1zM29 10h1v1h-1zM30 10h1v1h-1z"/><path fill="#46220e" d="M31 10h1v1h-1z"/><path fill="#3b1b09" d="M32 10h1v1h-1zM33 10h1v1h-1zM34 10h1v1h-1zM35 10h1v1h-1zM36 10h1v1h-1zM37 10h1v1h-1zM38 10h1v1h-1zM39 10h1v1h-1zM40 10h1v1h-1zM41 10h1v1h-1zM19 11h1v1h-1zM20 11h1v1h-1zM21 11h1v1h-1zM22 11h1v1h-1zM23 11h1v1h-1zM24 11h1v1h-1zM25 11h1v1h-1zM26 11h1v1h-1zM27 11h1v1h-1zM28 11h1v1h-1zM29 11h1v1h-1zM30 11h1v1h-1zM31 11h1v1h-1zM32 11h1v1h-1zM33 11h1v1h-1zM34 11h1v1h-1zM35 11h1v1h-1zM36 11h1v1h-1zM37 11h1v1h-1zM38 11h1v1h-1zM39 11h1v1h-1zM40 11h1v1h-1zM41 11h1v1h-1zM42 11h1v1h-1zM18 12h1v1h-1zM19 12h1v1h-1z"/><path fill="#411f0c" d="M20 12h1v1h-1z"/><path fill="#3b1b09" d="M21 12h1v1h-1zM22 12h1v1h-1zM23 12h1v1h-1zM24 12h1v1h-1zM25 12h1v1h-1zM26 12h1v1h-1zM27 12h1v1h-1zM28 12h1v1h-1zM29 12h1v1h-1zM30 12h1v1h-1zM31 12h1v1h-1zM32 12h1v1h-1zM33 12h1v1h-1zM34 12h1v1h-1z"/><path fill="#341606" d="M35 12h1v1h-1z"/><path fill="#3b1b09" d="M36 12h1v1h-1zM37 12h1v1h-1zM38 12h1v1h-1zM39 12h1v1h-1zM40 12h1v1h-1zM41 12h1v1h-1zM42 12h1v1h-1zM43 12h1v1h-1zM18 13h1v1h-1z"/><path fill="#411f0c" d="M19 13h1v1h-1zM20 13h1v1h-1zM21 13h1v1h-1z"/><path fill="#3b1b09" d="M22 13h1v1h-1z"/><path fill="#411f0c" d="M23 13h1v1h-1zM24 13h1v1h-1z"/><path fill="#3b1b09" d="M25 13h1v1h-1zM26 13h1v1h-1z"/><path fill="#411f0c" d="M27 13h1v1h-1z"/><path fill="#3b1b09" d="M28 13h1v1h-1zM29 13h1v1h-1zM30 13h1v1h-1zM31 13h1v1h-1zM32 13h1v1h-1z"/><path fill="#341606" d="M33 13h1v1h-1z"/><path fill="#3b1b09" d="M34 13h1v1h-1z"/><path fill="#2e1305" d="M35 13h1v1h-1z"/><path fill="#3b1b09" d="M36 13h1v1h-1zM37 13h1v1h-1z"/><path fill="#341606" d="M38 13h1v1h-1z"/><path fill="#3b1b09" d="M39 13h1v1h-1zM40 13h1v1h-1zM41 13h1v1h-1zM42 13h1v1h-1zM43 13h1v1h-1zM44 13h1v1h-1zM17 14h1v1h-1zM18 14h1v1h-1z"/><path fill="#46220e" d="M19 14h1v1h-1zM20 14h1v1h-1zM21 14h1v1h-1zM22 14h1v1h-1zM23 14h1v1h-1zM24 14h1v1h-1z"/><path fill="#411f0c" d="M25 14h1v1h-1z"/><path fill="#46220e" d="M26 14h1v1h-1z"/><path fill="#411f0c" d="M27 14h1v1h-1z"/><path fill="#3b1b09" d="M28 14h1v1h-1zM29 14h1v1h-1zM30 14h1v1h-1zM31 14h1v1h-1zM32 14h1v1h-1z"/><path fill="#2e1305" d="M33 14h1v1h-1z"/><path fill="#3b1b09" d="M34 14h1v1h-1z"/><path fill="#341606" d="M35 14h1v1h-1z"/><path fill="#2e1305" d="M36 14h1v1h-1z"/><path fill="#341606" d="M37 14h1v1h-1z"/><path fill="#2e1305" d="M38 14h1v1h-1z"/><path fill="#3b1b09" d="M39 14h1v1h-1z"/><path fill="#341606" d="M40 14h1v1h-1z"/><path fill="#3b1b09" d="M41 14h1v1h-1zM42 14h1v1h-1zM43 14h1v1h-1zM44 14h1v1h-1zM17 15h1v1h-1z"/><path fill="#411f0c" d="M18 15h1v1h-1z"/><path fill="#46220e" d="M19 15h1v1h-1zM20 15h1v1h-1z"/><path fill="#411f0c" d="M21 15h1v1h-1z"/><path fill="#46220e" d="M22 15h1v1h-1zM23 15h1v1h-1zM24 15h1v1h-1zM25 15h1v1h-1zM26 15h1v1h-1zM27 15h1v1h-1z"/><path fill="#3b1b09" d="M28 15h1v1h-1zM29 15h1v1h-1zM30 15h1v1h-1z"/><path fill="#341606" d="M31 15h1v1h-1z"/><path fill="#3b1b09" d="M32 15h1v1h-1z"/><path fill="#2e1305" d="M33 15h1v1h-1z"/><path fill="#341606" d="M34 15h1v1h-1z"/><path fill="#2e1305" d="M35 15h1v1h-1zM36 15h1v1h-1z"/><path fill="#341606" d="M37 15h1v1h-1z"/><path fill="#2e1305" d="M38 15h1v1h-1zM39 15h1v1h-1z"/><path fill="#341606" d="M40 15h1v1h-1z"/><path fill="#3b1b09" d="M41 15h1v1h-1zM42 15h1v1h-1zM43 15h1v1h-1zM44 15h1v1h-1zM17 16h1v1h-1zM18 16h1v1h-1zM19 16h1v1h-1z"/><path fill="#46220e" d="M20 16h1v1h-1z"/><path fill="#411f0c" d="M21 16h1v1h-1z"/><path fill="#46220e" d="M22 16h1v1h-1zM23 16h1v1h-1zM24 16h1v1h-1z"/><path fill="#411f0c" d="M25 16h1v1h-1z"/><path fill="#3b1b09" d="M26 16h1v1h-1zM27 16h1v1h-1zM28 16h1v1h-1zM29 16h1v1h-1zM30 16h1v1h-1z"/><path fill="#341606" d="M31 16h1v1h-1zM32 16h1v1h-1z"/><path fill="#2e1305" d="M33 16h1v1h-1z"/><path fill="#341606" d="M34 16h1v1h-1z"/><path fill="#2e1305" d="M35 16h1v1h-1zM36 16h1v1h-1zM37 16h1v1h-1zM38 16h1v1h-1zM39 16h1v1h-1zM40 16h1v1h-1z"/><path fill="#3b1b09" d="M41 16h1v1h-1z"/><path fill="#341606" d="M42 16h1v1h-1z"/><path fill="#3b1b09" d="M43 16h1v1h-1zM44 16h1v1h-1zM45 16h1v1h-1zM16 17h1v1h-1zM17 17h1v1h-1zM18 17h1v1h-1z"/><path fill="#eec39a" d="M19 17h1v1h-1z"/><path fill="#3b1b09" d="M20 17h1v1h-1zM21 17h1v1h-1z"/><path fill="#eec39a" d="M22 17h1v1h-1z"/><path fill="#3b1b09" d="M23 17h1v1h-1zM24 17h1v1h-1z"/><path fill="#411f0c" d="M25 17h1v1h-1z"/><path fill="#3b1b09" d="M26 17h1v1h-1z"/><path fill="#ffe0b7" d="M27 17h1v1h-1z"/><path fill="#3b1b09" d="M28 17h1v1h-1zM29 17h1v1h-1zM30 17h1v1h-1z"/><path fill="#341606" d="M31 17h1v1h-1z"/><path fill="#2e1305" d="M32 17h1v1h-1zM33 17h1v1h-1zM34 17h1v1h-1zM35 17h1v1h-1zM36 17h1v1h-1zM37 17h1v1h-1zM38 17h1v1h-1zM39 17h1v1h-1zM40 17h1v1h-1zM41 17h1v1h-1z"/><path fill="#341606" d="M42 17h1v1h-1z"/><path fill="#3b1b09" d="M43 17h1v1h-1zM44 17h1v1h-1zM45 17h1v1h-1zM16 18h1v1h-1zM17 18h1v1h-1z"/><path fill="#eec39a" d="M18 18h1v1h-1z"/><path fill="#ffe0b7" d="M19 18h1v1h-1z"/><path fill="#fff" d="M20 18h1v1h-1z"/><path fill="#ffe0b7" d="M21 18h1v1h-1zM22 18h1v1h-1zM23 18h1v1h-1z"/><path fill="#fff" d="M24 18h1v1h-1zM25 18h1v1h-1z"/><path fill="#ffefd8" d="M26 18h1v1h-1z"/><path fill="#ffe0b7" d="M27 18h1v1h-1zM28 18h1v1h-1z"/><path fill="#3b1b09" d="M29 18h1v1h-1z"/><path fill="#ffe0b7" d="M30 18h1v1h-1zM31 18h1v1h-1z"/><path fill="#341606" d="M32 18h1v1h-1z"/><path fill="#2e1305" d="M33 18h1v1h-1zM34 18h1v1h-1zM35 18h1v1h-1zM36 18h1v1h-1zM37 18h1v1h-1zM38 18h1v1h-1zM39 18h1v1h-1zM40 18h1v1h-1zM41 18h1v1h-1z"/><path fill="#341606" d="M42 18h1v1h-1z"/><path fill="#3b1b09" d="M43 18h1v1h-1zM44 18h1v1h-1zM45 18h1v1h-1zM16 19h1v1h-1zM17 19h1v1h-1z"/><path fill="#ffe0b7" d="M18 19h1v1h-1z"/><path fill="#fff" d="M19 19h1v1h-1zM20 19h1v1h-1zM21 19h1v1h-1zM22 19h1v1h-1zM23 19h1v1h-1zM24 19h1v1h-1zM25 19h1v1h-1zM26 19h1v1h-1z"/><path fill="#ffe0b7" d="M27 19h1v1h-1zM28 19h1v1h-1zM29 19h1v1h-1zM30 19h1v1h-1z"/><path fill="#fca570" d="M31 19h1v1h-1zM32 19h1v1h-1z"/><path fill="#2e1305" d="M33 19h1v1h-1zM34 19h1v1h-1zM35 19h1v1h-1zM36 19h1v1h-1zM37 19h1v1h-1zM38 19h1v1h-1zM39 19h1v1h-1zM40 19h1v1h-1zM41 19h1v1h-1zM42 19h1v1h-1z"/><path fill="#3b1b09" d="M43 19h1v1h-1zM44 19h1v1h-1zM45 19h1v1h-1zM46 19h1v1h-1z"/><path fill="#fca570" d="M16 20h1v1h-1z"/><path fill="#ffe0b7" d="M17 20h1v1h-1zM18 20h1v1h-1zM19 20h1v1h-1z"/><path fill="#fff" d="M20 20h1v1h-1zM21 20h1v1h-1zM22 20h1v1h-1z"/><path fill="#ffefd8" d="M23 20h1v1h-1zM24 20h1v1h-1z"/><path fill="#ffe0b7" d="M25 20h1v1h-1zM26 20h1v1h-1zM27 20h1v1h-1zM28 20h1v1h-1zM29 20h1v1h-1zM30 20h1v1h-1z"/><path fill="#fca570" d="M31 20h1v1h-1zM32 20h1v1h-1z"/><path fill="#2e1305" d="M33 20h1v1h-1zM34 20h1v1h-1zM35 20h1v1h-1zM36 20h1v1h-1zM37 20h1v1h-1zM38 20h1v1h-1zM39 20h1v1h-1zM40 20h1v1h-1zM41 20h1v1h-1zM42 20h1v1h-1z"/><path fill="#3b1b09" d="M43 20h1v1h-1zM44 20h1v1h-1zM45 20h1v1h-1zM46 20h1v1h-1z"/><path fill="#fca570" d="M16 21h1v1h-1z"/><path fill="#ffe0b7" d="M17 21h1v1h-1zM18 21h1v1h-1zM19 21h1v1h-1zM20 21h1v1h-1zM21 21h1v1h-1zM22 21h1v1h-1zM23 21h1v1h-1zM24 21h1v1h-1zM25 21h1v1h-1zM26 21h1v1h-1zM27 21h1v1h-1zM28 21h1v1h-1zM29 21h1v1h-1z"/><path fill="#fca570" d="M30 21h1v1h-1zM31 21h1v1h-1zM32 21h1v1h-1z"/><path fill="#2e1305" d="M33 21h1v1h-1zM34 21h1v1h-1zM35 21h1v1h-1zM36 21h1v1h-1zM37 21h1v1h-1zM38 21h1v1h-1zM39 21h1v1h-1zM40 21h1v1h-1zM41 21h1v1h-1zM42 21h1v1h-1zM43 21h1v1h-1z"/><path fill="#3b1b09" d="M44 21h1v1h-1zM45 21h1v1h-1zM46 21h1v1h-1z"/><path fill="#fca570" d="M16 22h1v1h-1z"/><path fill="#ffe0b7" d="M17 22h1v1h-1zM18 22h1v1h-1zM19 22h1v1h-1zM20 22h1v1h-1zM21 22h1v1h-1zM22 22h1v1h-1zM23 22h1v1h-1zM24 22h1v1h-1zM25 22h1v1h-1zM26 22h1v1h-1zM27 22h1v1h-1zM28 22h1v1h-1z"/><path fill="#fca570" d="M29 22h1v1h-1zM30 22h1v1h-1zM31 22h1v1h-1zM32 22h1v1h-1z"/><path fill="#2e1305" d="M33 22h1v1h-1z"/><path fill="#341606" d="M34 22h1v1h-1z"/><path fill="#2e1305" d="M35 22h1v1h-1zM36 22h1v1h-1zM37 22h1v1h-1zM38 22h1v1h-1zM39 22h1v1h-1zM40 22h1v1h-1zM41 22h1v1h-1zM42 22h1v1h-1zM43 22h1v1h-1z"/><path fill="#3b1b09" d="M44 22h1v1h-1zM45 22h1v1h-1zM46 22h1v1h-1z"/><path fill="#fca570" d="M16 23h1v1h-1z"/><path fill="#ffe0b7" d="M17 23h1v1h-1zM18 23h1v1h-1zM19 23h1v1h-1z"/><path fill="#fff" d="M20 23h1v1h-1zM21 23h1v1h-1zM22 23h1v1h-1zM23 23h1v1h-1z"/><path fill="#ffe0b7" d="M24 23h1v1h-1zM25 23h1v1h-1zM26 23h1v1h-1zM27 23h1v1h-1z"/><path fill="#fca570" d="M28 23h1v1h-1zM29 23h1v1h-1zM30 23h1v1h-1zM31 23h1v1h-1zM32 23h1v1h-1zM33 23h1v1h-1z"/><path fill="#341606" d="M34 23h1v1h-1z"/><path fill="#2e1305" d="M35 23h1v1h-1zM36 23h1v1h-1zM37 23h1v1h-1zM38 23h1v1h-1zM39 23h1v1h-1zM40 23h1v1h-1zM41 23h1v1h-1zM42 23h1v1h-1z"/><path fill="#341606" d="M43 23h1v1h-1z"/><path fill="#3b1b09" d="M44 23h1v1h-1zM45 23h1v1h-1zM46 23h1v1h-1z"/><path fill="#fca570" d="M16 24h1v1h-1z"/><path fill="#ffe0b7" d="M17 24h1v1h-1zM18 24h1v1h-1zM19 24h1v1h-1zM20 24h1v1h-1z"/><path fill="#fff" d="M21 24h1v1h-1z"/><path fill="#ffefd8" d="M22 24h1v1h-1z"/><path fill="#ffe0b7" d="M23 24h1v1h-1zM24 24h1v1h-1zM25 24h1v1h-1zM26 24h1v1h-1zM27 24h1v1h-1zM28 24h1v1h-1z"/><path fill="#fca570" d="M29 24h1v1h-1zM30 24h1v1h-1zM31 24h1v1h-1zM32 24h1v1h-1zM33 24h1v1h-1z"/><path fill="#341606" d="M34 24h1v1h-1z"/><path fill="#2e1305" d="M35 24h1v1h-1zM36 24h1v1h-1zM37 24h1v1h-1zM38 24h1v1h-1zM39 24h1v1h-1zM40 24h1v1h-1zM41 24h1v1h-1zM42 24h1v1h-1z"/><path fill="#341606" d="M43 24h1v1h-1z"/><path fill="#3b1b09" d="M44 24h1v1h-1zM45 24h1v1h-1zM46 24h1v1h-1z"/><path fill="#fca570" d="M17 25h1v1h-1z"/><path fill="#ffe0b7" d="M18 25h1v1h-1zM19 25h1v1h-1zM20 25h1v1h-1z"/><path fill="#ffefd8" d="M21 25h1v1h-1z"/><path fill="#ffe0b7" d="M22 25h1v1h-1zM23 25h1v1h-1zM24 25h1v1h-1zM25 25h1v1h-1zM26 25h1v1h-1zM27 25h1v1h-1zM28 25h1v1h-1zM29 25h1v1h-1zM30 25h1v1h-1z"/><path fill="#fca570" d="M31 25h1v1h-1zM32 25h1v1h-1zM33 25h1v1h-1zM34 25h1v1h-1z"/><path fill="#2e1305" d="M35 25h1v1h-1zM36 25h1v1h-1zM37 25h1v1h-1zM38 25h1v1h-1zM39 25h1v1h-1zM40 25h1v1h-1zM41 25h1v1h-1zM42 25h1v1h-1z"/><path fill="#3b1b09" d="M43 25h1v1h-1zM44 25h1v1h-1zM45 25h1v1h-1z"/><path fill="#fca570" d="M17 26h1v1h-1z"/><path fill="#ffe0b7" d="M18 26h1v1h-1zM19 26h1v1h-1zM20 26h1v1h-1zM21 26h1v1h-1zM22 26h1v1h-1zM23 26h1v1h-1zM24 26h1v1h-1zM25 26h1v1h-1zM26 26h1v1h-1zM27 26h1v1h-1zM28 26h1v1h-1zM29 26h1v1h-1zM30 26h1v1h-1z"/><path fill="#fca570" d="M31 26h1v1h-1zM32 26h1v1h-1zM33 26h1v1h-1zM34 26h1v1h-1z"/><path fill="#2e1305" d="M35 26h1v1h-1zM36 26h1v1h-1zM37 26h1v1h-1zM38 26h1v1h-1zM39 26h1v1h-1zM40 26h1v1h-1zM41 26h1v1h-1zM42 26h1v1h-1z"/><path fill="#3b1b09" d="M43 26h1v1h-1zM44 26h1v1h-1zM45 26h1v1h-1z"/><path fill="#fca570" d="M17 27h1v1h-1z"/><path fill="#ffe0b7" d="M18 27h1v1h-1zM19 27h1v1h-1zM20 27h1v1h-1zM21 27h1v1h-1zM22 27h1v1h-1zM23 27h1v1h-1zM24 27h1v1h-1zM25 27h1v1h-1zM26 27h1v1h-1zM27 27h1v1h-1zM28 27h1v1h-1zM29 27h1v1h-1zM30 27h1v1h-1zM31 27h1v1h-1zM32 27h1v1h-1zM33 27h1v1h-1z"/><path fill="#fca570" d="M34 27h1v1h-1z"/><path fill="#2e1305" d="M35 27h1v1h-1zM36 27h1v1h-1zM37 27h1v1h-1zM38 27h1v1h-1zM39 27h1v1h-1z"/><path fill="#341606" d="M40 27h1v1h-1z"/><path fill="#2e1305" d="M41 27h1v1h-1z"/><path fill="#341606" d="M42 27h1v1h-1z"/><path fill="#3b1b09" d="M43 27h1v1h-1zM44 27h1v1h-1zM45 27h1v1h-1z"/><path fill="#fca570" d="M17 28h1v1h-1z"/><path fill="#ffe0b7" d="M18 28h1v1h-1zM19 28h1v1h-1zM20 28h1v1h-1zM21 28h1v1h-1zM22 28h1v1h-1zM23 28h1v1h-1zM24 28h1v1h-1zM25 28h1v1h-1zM26 28h1v1h-1zM27 28h1v1h-1zM28 28h1v1h-1zM29 28h1v1h-1zM30 28h1v1h-1zM31 28h1v1h-1zM32 28h1v1h-1zM33 28h1v1h-1z"/><path fill="#fca570" d="M34 28h1v1h-1zM35 28h1v1h-1zM36 28h1v1h-1z"/><path fill="#341606" d="M37 28h1v1h-1z"/><path fill="#2e1305" d="M38 28h1v1h-1zM39 28h1v1h-1z"/><path fill="#341606" d="M40 28h1v1h-1z"/><path fill="#3b1b09" d="M41 28h1v1h-1z"/><path fill="#341606" d="M42 28h1v1h-1z"/><path fill="#3b1b09" d="M43 28h1v1h-1zM44 28h1v1h-1z"/><path fill="#fca570" d="M17 29h1v1h-1z"/><path fill="#ffe0b7" d="M18 29h1v1h-1zM19 29h1v1h-1zM20 29h1v1h-1zM21 29h1v1h-1zM22 29h1v1h-1zM23 29h1v1h-1zM24 29h1v1h-1zM25 29h1v1h-1zM26 29h1v1h-1zM27 29h1v1h-1zM28 29h1v1h-1zM29 29h1v1h-1zM30 29h1v1h-1zM31 29h1v1h-1zM32 29h1v1h-1zM33 29h1v1h-1z"/><path fill="#fca570" d="M34 29h1v1h-1zM35 29h1v1h-1zM36 29h1v1h-1z"/><path fill="#341606" d="M37 29h1v1h-1z"/><path fill="#fca570" d="M38 29h1v1h-1z"/><path fill="#2e1305" d="M39 29h1v1h-1zM40 29h1v1h-1z"/><path fill="#3b1b09" d="M41 29h1v1h-1zM42 29h1v1h-1zM43 29h1v1h-1z"/><path fill="#242234" d="M44 29h1v1h-1z"/><path fill="#fca570" d="M17 30h1v1h-1z"/><path fill="#ffe0b7" d="M18 30h1v1h-1zM19 30h1v1h-1zM20 30h1v1h-1zM21 30h1v1h-1zM22 30h1v1h-1zM23 30h1v1h-1zM24 30h1v1h-1zM25 30h1v1h-1zM26 30h1v1h-1zM27 30h1v1h-1zM28 30h1v1h-1zM29 30h1v1h-1zM30 30h1v1h-1zM31 30h1v1h-1zM32 30h1v1h-1z"/><path fill="#fca570" d="M33 30h1v1h-1zM34 30h1v1h-1zM35 30h1v1h-1zM36 30h1v1h-1zM37 30h1v1h-1zM38 30h1v1h-1z"/><path fill="#2e1305" d="M39 30h1v1h-1z"/><path fill="#fca570" d="M40 30h1v1h-1z"/><path fill="#3b1b09" d="M41 30h1v1h-1zM42 30h1v1h-1z"/><path fill="#242234" d="M43 30h1v1h-1z"/><path fill="#fca570" d="M17 31h1v1h-1z"/><path fill="#ffe0b7" d="M18 31h1v1h-1zM19 31h1v1h-1zM20 31h1v1h-1zM21 31h1v1h-1zM22 31h1v1h-1zM23 31h1v1h-1zM24 31h1v1h-1zM25 31h1v1h-1zM26 31h1v1h-1zM27 31h1v1h-1zM28 31h1v1h-1zM29 31h1v1h-1zM30 31h1v1h-1zM31 31h1v1h-1zM32 31h1v1h-1z"/><path fill="#fca570" d="M33 31h1v1h-1zM34 31h1v1h-1zM35 31h1v1h-1zM36 31h1v1h-1zM37 31h1v1h-1z"/><path fill="#ffe0b7" d="M38 31h1v1h-1zM39 31h1v1h-1zM40 31h1v1h-1z"/><path fill="#3b1b09" d="M41 31h1v1h-1z"/><path fill="#242234" d="M42 31h1v1h-1zM43 31h1v1h-1z"/><path fill="#fca570" d="M17 32h1v1h-1z"/><path fill="#ffe0b7" d="M18 32h1v1h-1zM19 32h1v1h-1zM20 32h1v1h-1zM21 32h1v1h-1zM22 32h1v1h-1zM23 32h1v1h-1zM24 32h1v1h-1zM25 32h1v1h-1zM26 32h1v1h-1zM27 32h1v1h-1zM28 32h1v1h-1zM29 32h1v1h-1zM30 32h1v1h-1zM31 32h1v1h-1zM32 32h1v1h-1z"/><path fill="#fca570" d="M33 32h1v1h-1zM34 32h1v1h-1zM35 32h1v1h-1zM36 32h1v1h-1z"/><path fill="#ffe0b7" d="M37 32h1v1h-1zM38 32h1v1h-1zM39 32h1v1h-1z"/><path fill="#3b1b09" d="M40 32h1v1h-1z"/><path fill="#242234" d="M41 32h1v1h-1zM42 32h1v1h-1zM43 32h1v1h-1z"/><path fill="#fca570" d="M18 33h1v1h-1z"/><path fill="#ffe0b7" d="M19 33h1v1h-1zM20 33h1v1h-1zM21 33h1v1h-1zM22 33h1v1h-1zM23 33h1v1h-1zM24 33h1v1h-1zM25 33h1v1h-1zM26 33h1v1h-1zM27 33h1v1h-1zM28 33h1v1h-1zM29 33h1v1h-1zM30 33h1v1h-1zM31 33h1v1h-1zM32 33h1v1h-1z"/><path fill="#fca570" d="M33 33h1v1h-1zM34 33h1v1h-1zM35 33h1v1h-1zM36 33h1v1h-1z"/><path fill="#ffe0b7" d="M37 33h1v1h-1zM38 33h1v1h-1zM39 33h1v1h-1z"/><path fill="#242234" d="M40 33h1v1h-1zM41 33h1v1h-1zM42 33h1v1h-1z"/><path fill="#fca570" d="M18 34h1v1h-1z"/><path fill="#ffe0b7" d="M19 34h1v1h-1zM20 34h1v1h-1zM21 34h1v1h-1zM22 34h1v1h-1zM23 34h1v1h-1zM24 34h1v1h-1zM25 34h1v1h-1zM26 34h1v1h-1zM27 34h1v1h-1zM28 34h1v1h-1zM29 34h1v1h-1zM30 34h1v1h-1zM31 34h1v1h-1zM32 34h1v1h-1z"/><path fill="#fca570" d="M33 34h1v1h-1zM34 34h1v1h-1zM35 34h1v1h-1z"/><path fill="#ffe0b7" d="M36 34h1v1h-1zM37 34h1v1h-1zM38 34h1v1h-1z"/><path fill="#242234" d="M39 34h1v1h-1zM40 34h1v1h-1z"/><path fill="#fca570" d="M18 35h1v1h-1z"/><path fill="#ffe0b7" d="M19 35h1v1h-1zM20 35h1v1h-1zM21 35h1v1h-1zM22 35h1v1h-1zM23 35h1v1h-1zM24 35h1v1h-1zM25 35h1v1h-1zM26 35h1v1h-1zM27 35h1v1h-1z"/><path fill="#fca570" d="M28 35h1v1h-1zM29 35h1v1h-1zM30 35h1v1h-1z"/><path fill="#ffe0b7" d="M31 35h1v1h-1zM32 35h1v1h-1zM33 35h1v1h-1z"/><path fill="#fca570" d="M34 35h1v1h-1z"/><path fill="#ffe0b7" d="M35 35h1v1h-1zM36 35h1v1h-1z"/><path fill="#fca570" d="M37 35h1v1h-1zM38 35h1v1h-1z"/><path fill="#242234" d="M39 35h1v1h-1z"/><path fill="#fca570" d="M18 36h1v1h-1z"/><path fill="#ffe0b7" d="M19 36h1v1h-1zM20 36h1v1h-1zM21 36h1v1h-1zM22 36h1v1h-1zM23 36h1v1h-1zM24 36h1v1h-1zM25 36h1v1h-1zM26 36h1v1h-1zM27 36h1v1h-1zM28 36h1v1h-1z"/><path fill="#fca570" d="M29 36h1v1h-1zM30 36h1v1h-1zM31 36h1v1h-1z"/><path fill="#ffe0b7" d="M32 36h1v1h-1zM33 36h1v1h-1zM34 36h1v1h-1zM35 36h1v1h-1z"/><path fill="#fca570" d="M36 36h1v1h-1zM37 36h1v1h-1z"/><path fill="#ffe0b7" d="M38 36h1v1h-1z"/><path fill="#242234" d="M39 36h1v1h-1z"/><path fill="#fca570" d="M18 37h1v1h-1z"/><path fill="#ffe0b7" d="M19 37h1v1h-1zM20 37h1v1h-1zM21 37h1v1h-1zM22 37h1v1h-1zM23 37h1v1h-1zM24 37h1v1h-1zM25 37h1v1h-1zM26 37h1v1h-1zM27 37h1v1h-1zM28 37h1v1h-1z"/><path fill="#fca570" d="M29 37h1v1h-1zM30 37h1v1h-1z"/><path fill="#ffe0b7" d="M31 37h1v1h-1zM32 37h1v1h-1zM33 37h1v1h-1zM34 37h1v1h-1z"/><path fill="#fca570" d="M35 37h1v1h-1zM36 37h1v1h-1z"/><path fill="#ffe0b7" d="M37 37h1v1h-1z"/><path fill="#fff" d="M38 37h1v1h-1z"/><path fill="#fca570" d="M19 38h1v1h-1z"/><path fill="#ffe0b7" d="M20 38h1v1h-1zM21 38h1v1h-1zM22 38h1v1h-1zM23 38h1v1h-1zM24 38h1v1h-1zM25 38h1v1h-1zM26 38h1v1h-1zM27 38h1v1h-1zM28 38h1v1h-1zM29 38h1v1h-1zM30 38h1v1h-1zM31 38h1v1h-1zM32 38h1v1h-1zM33 38h1v1h-1z"/><path fill="#fca570" d="M34 38h1v1h-1zM35 38h1v1h-1zM36 38h1v1h-1z"/><path fill="#ffe0b7" d="M37 38h1v1h-1z"/><path fill="#fff" d="M38 38h1v1h-1z"/><path fill="#fca570" d="M19 39h1v1h-1z"/><path fill="#ffe0b7" d="M20 39h1v1h-1zM21 39h1v1h-1zM22 39h1v1h-1zM23 39h1v1h-1zM24 39h1v1h-1zM25 39h1v1h-1zM26 39h1v1h-1zM27 39h1v1h-1zM28 39h1v1h-1zM29 39h1v1h-1zM30 39h1v1h-1zM31 39h1v1h-1zM32 39h1v1h-1z"/><path fill="#fca570" d="M33 39h1v1h-1zM34 39h1v1h-1zM35 39h1v1h-1zM36 39h1v1h-1zM37 39h1v1h-1z"/><path fill="#fff" d="M38 39h1v1h-1z"/><path fill="#fca570" d="M19 40h1v1h-1z"/><path fill="#ffe0b7" d="M20 40h1v1h-1zM21 40h1v1h-1zM22 40h1v1h-1zM23 40h1v1h-1zM24 40h1v1h-1zM25 40h1v1h-1zM26 40h1v1h-1zM27 40h1v1h-1zM28 40h1v1h-1zM29 40h1v1h-1zM30 40h1v1h-1z"/><path fill="#fca570" d="M31 40h1v1h-1zM32 40h1v1h-1zM33 40h1v1h-1zM34 40h1v1h-1z"/><path fill="#ffe0b7" d="M35 40h1v1h-1z"/><path fill="#fca570" d="M36 40h1v1h-1zM37 40h1v1h-1z"/><path fill="#fff" d="M38 40h1v1h-1z"/><path fill="#fca570" d="M20 41h1v1h-1zM21 41h1v1h-1z"/><path fill="#ffe0b7" d="M22 41h1v1h-1zM23 41h1v1h-1zM24 41h1v1h-1zM25 41h1v1h-1zM26 41h1v1h-1zM27 41h1v1h-1zM28 41h1v1h-1z"/><path fill="#fca570" d="M29 41h1v1h-1zM30 41h1v1h-1zM31 41h1v1h-1zM32 41h1v1h-1zM33 41h1v1h-1z"/><path fill="#ffe0b7" d="M34 41h1v1h-1z"/><path fill="#fca570" d="M35 41h1v1h-1zM36 41h1v1h-1zM37 41h1v1h-1z"/><path fill="#fff" d="M38 41h1v1h-1z"/><path fill="#fca570" d="M22 42h1v1h-1zM23 42h1v1h-1zM24 42h1v1h-1zM25 42h1v1h-1zM26 42h1v1h-1zM27 42h1v1h-1zM28 42h1v1h-1zM29 42h1v1h-1zM30 42h1v1h-1z"/><path fill="#ffe0b7" d="M31 42h1v1h-1z"/><path fill="#fca570" d="M32 42h1v1h-1z"/><path fill="#ffe0b7" d="M33 42h1v1h-1zM34 42h1v1h-1zM35 42h1v1h-1z"/><path fill="#fca570" d="M36 42h1v1h-1zM37 42h1v1h-1z"/><path fill="#fff" d="M38 42h1v1h-1zM39 42h1v1h-1z"/><path fill="#ffe0b7" d="M23 43h1v1h-1zM24 43h1v1h-1zM25 43h1v1h-1zM26 43h1v1h-1zM27 43h1v1h-1zM28 43h1v1h-1zM29 43h1v1h-1z"/><path fill="#fca570" d="M30 43h1v1h-1zM31 43h1v1h-1zM32 43h1v1h-1zM33 43h1v1h-1z"/><path fill="#ffe0b7" d="M34 43h1v1h-1zM35 43h1v1h-1z"/><path fill="#fca570" d="M36 43h1v1h-1zM37 43h1v1h-1z"/><path fill="#fff" d="M38 43h1v1h-1zM39 43h1v1h-1z"/><path fill="#ffe0b7" d="M23 44h1v1h-1zM24 44h1v1h-1zM25 44h1v1h-1zM26 44h1v1h-1zM27 44h1v1h-1zM28 44h1v1h-1zM29 44h1v1h-1zM30 44h1v1h-1z"/><path fill="#fca570" d="M31 44h1v1h-1zM32 44h1v1h-1zM33 44h1v1h-1z"/><path fill="#ffe0b7" d="M34 44h1v1h-1zM35 44h1v1h-1z"/><path fill="#fca570" d="M36 44h1v1h-1zM37 44h1v1h-1z"/><path fill="#fff" d="M38 44h1v1h-1zM39 44h1v1h-1zM40 44h1v1h-1z"/><path fill="#ffe0b7" d="M23 45h1v1h-1zM24 45h1v1h-1zM25 45h1v1h-1zM26 45h1v1h-1zM27 45h1v1h-1zM28 45h1v1h-1zM29 45h1v1h-1zM30 45h1v1h-1z"/><path fill="#fca570" d="M31 45h1v1h-1zM32 45h1v1h-1zM33 45h1v1h-1z"/><path fill="#ffe0b7" d="M34 45h1v1h-1zM35 45h1v1h-1zM36 45h1v1h-1z"/><path fill="#fca570" d="M37 45h1v1h-1zM38 45h1v1h-1z"/><path fill="#fff" d="M39 45h1v1h-1zM40 45h1v1h-1z"/><path fill="#8a0e1a" d="M41 45h1v1h-1z"/><path fill="#ffe0b7" d="M23 46h1v1h-1zM24 46h1v1h-1zM25 46h1v1h-1zM26 46h1v1h-1z"/><path fill="#fff" d="M27 46h1v1h-1zM28 46h1v1h-1z"/><path fill="#ffe0b7" d="M29 46h1v1h-1zM30 46h1v1h-1z"/><path fill="#fca570" d="M31 46h1v1h-1zM32 46h1v1h-1zM33 46h1v1h-1z"/><path fill="#ffe0b7" d="M34 46h1v1h-1zM35 46h1v1h-1zM36 46h1v1h-1z"/><path fill="#fca570" d="M37 46h1v1h-1zM38 46h1v1h-1zM39 46h1v1h-1zM40 46h1v1h-1z"/><path fill="#8a0e1a" d="M41 46h1v1h-1zM42 46h1v1h-1zM43 46h1v1h-1z"/><path fill="#ffe0b7" d="M23 47h1v1h-1zM24 47h1v1h-1zM25 47h1v1h-1zM26 47h1v1h-1z"/><path fill="#fff" d="M27 47h1v1h-1zM28 47h1v1h-1z"/><path fill="#ffe0b7" d="M29 47h1v1h-1zM30 47h1v1h-1zM31 47h1v1h-1z"/><path fill="#fca570" d="M32 47h1v1h-1zM33 47h1v1h-1z"/><path fill="#ffe0b7" d="M34 47h1v1h-1zM35 47h1v1h-1zM36 47h1v1h-1z"/><path fill="#fca570" d="M37 47h1v1h-1zM38 47h1v1h-1zM39 47h1v1h-1zM40 47h1v1h-1z"/><path fill="#8a0e1a" d="M41 47h1v1h-1zM42 47h1v1h-1zM43 47h1v1h-1zM44 47h1v1h-1z"/><path fill="#ffe0b7" d="M23 48h1v1h-1zM24 48h1v1h-1zM25 48h1v1h-1zM26 48h1v1h-1zM27 48h1v1h-1zM28 48h1v1h-1zM29 48h1v1h-1zM30 48h1v1h-1zM31 48h1v1h-1z"/><path fill="#fca570" d="M32 48h1v1h-1z"/><path fill="#ffe0b7" d="M33 48h1v1h-1zM34 48h1v1h-1zM35 48h1v1h-1zM36 48h1v1h-1zM37 48h1v1h-1z"/><path fill="#fca570" d="M38 48h1v1h-1zM39 48h1v1h-1zM40 48h1v1h-1zM41 48h1v1h-1z"/><path fill="#8a0e1a" d="M42 48h1v1h-1zM43 48h1v1h-1zM44 48h1v1h-1zM45 48h1v1h-1z"/><path fill="#ab2734" d="M46 48h1v1h-1zM21 49h1v1h-1z"/><path fill="#c43d4a" d="M22 49h1v1h-1z"/><path fill="#ffe0b7" d="M23 49h1v1h-1zM24 49h1v1h-1zM25 49h1v1h-1zM26 49h1v1h-1zM27 49h1v1h-1zM28 49h1v1h-1zM29 49h1v1h-1zM30 49h1v1h-1zM31 49h1v1h-1z"/><path fill="#fca570" d="M32 49h1v1h-1z"/><path fill="#ffe0b7" d="M33 49h1v1h-1zM34 49h1v1h-1zM35 49h1v1h-1zM36 49h1v1h-1zM37 49h1v1h-1z"/><path fill="#fca570" d="M38 49h1v1h-1zM39 49h1v1h-1zM40 49h1v1h-1zM41 49h1v1h-1zM42 49h1v1h-1z"/><path fill="#8a0e1a" d="M43 49h1v1h-1zM44 49h1v1h-1zM45 49h1v1h-1zM46 49h1v1h-1zM47 49h1v1h-1z"/><path fill="#ab2734" d="M48 49h1v1h-1zM19 50h1v1h-1zM20 50h1v1h-1zM21 50h1v1h-1z"/><path fill="#9a1a27" d="M22 50h1v1h-1z"/><path fill="#ab2734" d="M23 50h1v1h-1z"/><path fill="#ffe0b7" d="M24 50h1v1h-1zM25 50h1v1h-1zM26 50h1v1h-1zM27 50h1v1h-1zM28 50h1v1h-1zM29 50h1v1h-1zM30 50h1v1h-1zM31 50h1v1h-1zM32 50h1v1h-1zM33 50h1v1h-1zM34 50h1v1h-1zM35 50h1v1h-1zM36 50h1v1h-1zM37 50h1v1h-1zM38 50h1v1h-1zM39 50h1v1h-1z"/><path fill="#fca570" d="M40 50h1v1h-1zM41 50h1v1h-1zM42 50h1v1h-1z"/><path fill="#8a0e1a" d="M43 50h1v1h-1zM44 50h1v1h-1zM45 50h1v1h-1zM46 50h1v1h-1zM47 50h1v1h-1zM48 50h1v1h-1z"/><path fill="#c43d4a" d="M49 50h1v1h-1zM50 50h1v1h-1z"/><path fill="#ab2734" d="M18 51h1v1h-1z"/><path fill="#8a0e1a" d="M19 51h1v1h-1z"/><path fill="#ab2734" d="M20 51h1v1h-1z"/><path fill="#9a1a27" d="M21 51h1v1h-1zM22 51h1v1h-1z"/><path fill="#c43d4a" d="M23 51h1v1h-1z"/><path fill="#ffe0b7" d="M24 51h1v1h-1zM25 51h1v1h-1zM26 51h1v1h-1zM27 51h1v1h-1zM28 51h1v1h-1zM29 51h1v1h-1zM30 51h1v1h-1zM31 51h1v1h-1zM32 51h1v1h-1zM33 51h1v1h-1zM34 51h1v1h-1zM35 51h1v1h-1zM36 51h1v1h-1zM37 51h1v1h-1zM38 51h1v1h-1zM39 51h1v1h-1zM40 51h1v1h-1z"/><path fill="#fca570" d="M41 51h1v1h-1zM42 51h1v1h-1z"/><path fill="#8a0e1a" d="M43 51h1v1h-1zM44 51h1v1h-1zM45 51h1v1h-1zM46 51h1v1h-1zM47 51h1v1h-1zM48 51h1v1h-1z"/><path fill="#9a1a27" d="M49 51h1v1h-1z"/><path fill="#ab2734" d="M50 51h1v1h-1z"/><path fill="#c43d4a" d="M51 51h1v1h-1zM52 51h1v1h-1z"/><path fill="#8a0e1a" d="M16 52h1v1h-1z"/><path fill="#ab2734" d="M17 52h1v1h-1z"/><path fill="#8a0e1a" d="M18 52h1v1h-1z"/><path fill="#ab2734" d="M19 52h1v1h-1zM20 52h1v1h-1z"/><path fill="#9a1a27" d="M21 52h1v1h-1z"/><path fill="#c43d4a" d="M22 52h1v1h-1z"/><path d="M23 52h1v1h-1z"/><path fill="#ffe0b7" d="M24 52h1v1h-1zM25 52h1v1h-1zM26 52h1v1h-1zM27 52h1v1h-1zM28 52h1v1h-1zM29 52h1v1h-1zM30 52h1v1h-1zM31 52h1v1h-1zM32 52h1v1h-1zM33 52h1v1h-1zM34 52h1v1h-1zM35 52h1v1h-1zM36 52h1v1h-1zM37 52h1v1h-1zM38 52h1v1h-1zM39 52h1v1h-1zM40 52h1v1h-1z"/><path fill="#fca570" d="M41 52h1v1h-1zM42 52h1v1h-1z"/><path fill="#8a0e1a" d="M43 52h1v1h-1zM44 52h1v1h-1zM45 52h1v1h-1zM46 52h1v1h-1zM47 52h1v1h-1z"/><path fill="#ab2734" d="M48 52h1v1h-1z"/><path fill="#9a1a27" d="M49 52h1v1h-1z"/><path fill="#ab2734" d="M50 52h1v1h-1zM51 52h1v1h-1zM52 52h1v1h-1z"/><path fill="#c43d4a" d="M53 52h1v1h-1z"/><path fill="#ab2734" d="M54 52h1v1h-1zM55 52h1v1h-1z"/><path fill="#8a0e1a" d="M14 53h1v1h-1zM15 53h1v1h-1zM16 53h1v1h-1z"/><path fill="#ab2734" d="M17 53h1v1h-1z"/><path fill="#8a0e1a" d="M18 53h1v1h-1zM19 53h1v1h-1z"/><path fill="#ab2734" d="M20 53h1v1h-1z"/><path fill="#9a1a27" d="M21 53h1v1h-1z"/><path fill="#ab2734" d="M22 53h1v1h-1z"/><path d="M23 53h1v1h-1z"/><path fill="#ffe0b7" d="M24 53h1v1h-1zM25 53h1v1h-1zM26 53h1v1h-1zM27 53h1v1h-1zM28 53h1v1h-1zM29 53h1v1h-1zM30 53h1v1h-1zM31 53h1v1h-1zM32 53h1v1h-1zM33 53h1v1h-1zM34 53h1v1h-1zM35 53h1v1h-1zM36 53h1v1h-1zM37 53h1v1h-1zM38 53h1v1h-1zM39 53h1v1h-1zM40 53h1v1h-1zM41 53h1v1h-1z"/><path fill="#8a0e1a" d="M42 53h1v1h-1zM43 53h1v1h-1zM44 53h1v1h-1zM45 53h1v1h-1zM46 53h1v1h-1zM47 53h1v1h-1zM48 53h1v1h-1z"/><path fill="#9a1a27" d="M49 53h1v1h-1z"/><path fill="#ab2734" d="M50 53h1v1h-1zM51 53h1v1h-1zM52 53h1v1h-1zM53 53h1v1h-1zM54 53h1v1h-1zM55 53h1v1h-1zM56 53h1v1h-1zM12 54h1v1h-1zM13 54h1v1h-1z"/><path fill="#8a0e1a" d="M14 54h1v1h-1zM15 54h1v1h-1zM16 54h1v1h-1zM17 54h1v1h-1z"/><path fill="#c43d4a" d="M18 54h1v1h-1z"/><path fill="#ab2734" d="M19 54h1v1h-1z"/><path fill="#9a1a27" d="M20 54h1v1h-1z"/><path fill="#ab2734" d="M21 54h1v1h-1zM22 54h1v1h-1z"/><path d="M23 54h1v1h-1z"/><path fill="#ffe0b7" d="M24 54h1v1h-1zM25 54h1v1h-1z"/><path fill="#fff" d="M26 54h1v1h-1z"/><path fill="#ffe0b7" d="M27 54h1v1h-1zM28 54h1v1h-1zM29 54h1v1h-1zM30 54h1v1h-1zM31 54h1v1h-1zM32 54h1v1h-1zM33 54h1v1h-1zM34 54h1v1h-1zM35 54h1v1h-1zM36 54h1v1h-1zM37 54h1v1h-1zM38 54h1v1h-1zM39 54h1v1h-1zM40 54h1v1h-1z"/><path d="M41 54h1v1h-1z"/><path fill="#8a0e1a" d="M42 54h1v1h-1zM43 54h1v1h-1zM44 54h1v1h-1zM45 54h1v1h-1z"/><path fill="#ab2734" d="M46 54h1v1h-1z"/><path fill="#8a0e1a" d="M47 54h1v1h-1zM48 54h1v1h-1zM49 54h1v1h-1z"/><path fill="#9a1a27" d="M50 54h1v1h-1zM51 54h1v1h-1z"/><path fill="#ab2734" d="M52 54h1v1h-1zM53 54h1v1h-1zM54 54h1v1h-1z"/><path fill="#8a0e1a" d="M55 54h1v1h-1zM56 54h1v1h-1zM57 54h1v1h-1zM58 54h1v1h-1zM9 55h1v1H9z"/><path fill="#ab2734" d="M10 55h1v1h-1z"/><path fill="#8a0e1a" d="M11 55h1v1h-1zM12 55h1v1h-1zM13 55h1v1h-1zM14 55h1v1h-1zM15 55h1v1h-1zM16 55h1v1h-1zM17 55h1v1h-1z"/><path fill="#ab2734" d="M18 55h1v1h-1zM19 55h1v1h-1z"/><path fill="#8a0e1a" d="M20 55h1v1h-1z"/><path fill="#9a1a27" d="M21 55h1v1h-1z"/><path fill="#c43d4a" d="M22 55h1v1h-1z"/><path d="M23 55h1v1h-1zM24 55h1v1h-1z"/><path fill="#ffe0b7" d="M25 55h1v1h-1z"/><path fill="#fff" d="M26 55h1v1h-1zM27 55h1v1h-1z"/><path fill="#ffe0b7" d="M28 55h1v1h-1zM29 55h1v1h-1zM30 55h1v1h-1zM31 55h1v1h-1zM32 55h1v1h-1zM33 55h1v1h-1zM34 55h1v1h-1zM35 55h1v1h-1zM36 55h1v1h-1zM37 55h1v1h-1zM38 55h1v1h-1zM39 55h1v1h-1z"/><path d="M40 55h1v1h-1zM41 55h1v1h-1z"/><path fill="#8a0e1a" d="M42 55h1v1h-1zM43 55h1v1h-1zM44 55h1v1h-1zM45 55h1v1h-1zM46 55h1v1h-1z"/><path fill="#ab2734" d="M47 55h1v1h-1z"/><path fill="#8a0e1a" d="M48 55h1v1h-1z"/><path fill="#ab2734" d="M49 55h1v1h-1z"/><path fill="#8a0e1a" d="M50 55h1v1h-1zM51 55h1v1h-1z"/><path fill="#9a1a27" d="M52 55h1v1h-1z"/><path fill="#ab2734" d="M53 55h1v1h-1zM54 55h1v1h-1z"/><path fill="#8a0e1a" d="M55 55h1v1h-1zM56 55h1v1h-1zM57 55h1v1h-1zM58 55h1v1h-1zM59 55h1v1h-1zM60 55h1v1h-1z"/><path fill="#ab2734" d="M8 56h1v1H8z"/><path fill="#8a0e1a" d="M9 56h1v1H9zM10 56h1v1h-1zM11 56h1v1h-1zM12 56h1v1h-1zM13 56h1v1h-1zM14 56h1v1h-1zM15 56h1v1h-1zM16 56h1v1h-1zM17 56h1v1h-1zM18 56h1v1h-1z"/><path fill="#ab2734" d="M19 56h1v1h-1z"/><path fill="#9a1a27" d="M20 56h1v1h-1z"/><path fill="#a52431" d="M21 56h1v1h-1z"/><path d="M22 56h1v1h-1zM23 56h1v1h-1zM24 56h1v1h-1zM25 56h1v1h-1z"/><path fill="#fff" d="M26 56h1v1h-1zM27 56h1v1h-1z"/><path fill="#ffe0b7" d="M28 56h1v1h-1zM29 56h1v1h-1zM30 56h1v1h-1zM31 56h1v1h-1z"/><path fill="#fff" d="M32 56h1v1h-1zM33 56h1v1h-1z"/><path fill="#ffe0b7" d="M34 56h1v1h-1zM35 56h1v1h-1zM36 56h1v1h-1zM37 56h1v1h-1zM38 56h1v1h-1z"/><path d="M39 56h1v1h-1zM40 56h1v1h-1zM41 56h1v1h-1z"/><path fill="#8a0e1a" d="M42 56h1v1h-1zM43 56h1v1h-1zM44 56h1v1h-1zM45 56h1v1h-1zM46 56h1v1h-1zM47 56h1v1h-1z"/><path fill="#c43d4a" d="M48 56h1v1h-1zM49 56h1v1h-1z"/><path fill="#ab2734" d="M50 56h1v1h-1z"/><path fill="#9a1a27" d="M51 56h1v1h-1z"/><path fill="#ab2734" d="M52 56h1v1h-1z"/><path fill="#c43d4a" d="M53 56h1v1h-1z"/><path fill="#a52431" d="M54 56h1v1h-1z"/><path fill="#9a1a27" d="M55 56h1v1h-1z"/><path fill="#8a0e1a" d="M56 56h1v1h-1zM57 56h1v1h-1zM58 56h1v1h-1zM59 56h1v1h-1zM60 56h1v1h-1zM61 56h1v1h-1zM7 57h1v1H7zM8 57h1v1H8zM9 57h1v1H9zM10 57h1v1h-1zM11 57h1v1h-1zM12 57h1v1h-1zM13 57h1v1h-1zM14 57h1v1h-1z"/><path fill="#c43d4a" d="M15 57h1v1h-1z"/><path fill="#8a0e1a" d="M16 57h1v1h-1zM17 57h1v1h-1z"/><path fill="#ab2734" d="M18 57h1v1h-1zM19 57h1v1h-1z"/><path fill="#9a1a27" d="M20 57h1v1h-1z"/><path fill="#c43d4a" d="M21 57h1v1h-1z"/><path d="M22 57h1v1h-1zM23 57h1v1h-1zM24 57h1v1h-1zM25 57h1v1h-1zM26 57h1v1h-1zM27 57h1v1h-1z"/><path fill="#ffe0b7" d="M28 57h1v1h-1zM29 57h1v1h-1zM30 57h1v1h-1z"/><path fill="#fff" d="M31 57h1v1h-1zM32 57h1v1h-1zM33 57h1v1h-1z"/><path fill="#ffe0b7" d="M34 57h1v1h-1zM35 57h1v1h-1zM36 57h1v1h-1z"/><path d="M37 57h1v1h-1zM38 57h1v1h-1zM39 57h1v1h-1zM40 57h1v1h-1z"/><path fill="#8a0e1a" d="M41 57h1v1h-1zM42 57h1v1h-1zM43 57h1v1h-1zM44 57h1v1h-1zM45 57h1v1h-1zM46 57h1v1h-1zM47 57h1v1h-1zM48 57h1v1h-1z"/><path fill="#ab2734" d="M49 57h1v1h-1zM50 57h1v1h-1zM51 57h1v1h-1zM52 57h1v1h-1zM53 57h1v1h-1z"/><path fill="#8a0e1a" d="M54 57h1v1h-1z"/><path fill="#c43d4a" d="M55 57h1v1h-1z"/><path fill="#8a0e1a" d="M56 57h1v1h-1zM57 57h1v1h-1zM58 57h1v1h-1zM59 57h1v1h-1zM60 57h1v1h-1zM61 57h1v1h-1zM62 57h1v1h-1zM6 58h1v1H6zM7 58h1v1H7zM8 58h1v1H8zM9 58h1v1H9zM10 58h1v1h-1zM11 58h1v1h-1zM12 58h1v1h-1zM13 58h1v1h-1z"/><path fill="#c43d4a" d="M14 58h1v1h-1z"/><path fill="#ab2734" d="M15 58h1v1h-1z"/><path fill="#8a0e1a" d="M16 58h1v1h-1z"/><path fill="#ab2734" d="M17 58h1v1h-1zM18 58h1v1h-1z"/><path fill="#9a1a27" d="M19 58h1v1h-1z"/><path fill="#ab2734" d="M20 58h1v1h-1zM21 58h1v1h-1z"/><path d="M22 58h1v1h-1zM23 58h1v1h-1zM24 58h1v1h-1zM25 58h1v1h-1zM26 58h1v1h-1zM27 58h1v1h-1zM28 58h1v1h-1zM29 58h1v1h-1zM30 58h1v1h-1zM31 58h1v1h-1zM32 58h1v1h-1zM33 58h1v1h-1zM34 58h1v1h-1zM35 58h1v1h-1zM36 58h1v1h-1zM37 58h1v1h-1zM38 58h1v1h-1zM39 58h1v1h-1zM40 58h1v1h-1z"/><path fill="#9a1a27" d="M41 58h1v1h-1z"/><path fill="#8a0e1a" d="M42 58h1v1h-1zM43 58h1v1h-1zM44 58h1v1h-1zM45 58h1v1h-1zM46 58h1v1h-1zM47 58h1v1h-1z"/><path fill="#ab2734" d="M48 58h1v1h-1z"/><path fill="#c43d4a" d="M49 58h1v1h-1zM50 58h1v1h-1z"/><path fill="#8a0e1a" d="M51 58h1v1h-1zM52 58h1v1h-1z"/><path fill="#9a1a27" d="M53 58h1v1h-1z"/><path fill="#8a0e1a" d="M54 58h1v1h-1z"/><path fill="#ab2734" d="M55 58h1v1h-1z"/><path fill="#9a1a27" d="M56 58h1v1h-1z"/><path fill="#8a0e1a" d="M57 58h1v1h-1zM58 58h1v1h-1zM59 58h1v1h-1zM60 58h1v1h-1zM61 58h1v1h-1zM62 58h1v1h-1zM63 58h1v1h-1zM6 59h1v1H6zM7 59h1v1H7zM8 59h1v1H8zM9 59h1v1H9zM10 59h1v1h-1zM11 59h1v1h-1zM12 59h1v1h-1z"/><path fill="#c43d4a" d="M13 59h1v1h-1z"/><path fill="#ab2734" d="M14 59h1v1h-1z"/><path fill="#9a1a27" d="M15 59h1v1h-1zM16 59h1v1h-1z"/><path fill="#c43d4a" d="M17 59h1v1h-1z"/><path fill="#9a1a27" d="M18 59h1v1h-1zM19 59h1v1h-1z"/><path fill="#8a0e1a" d="M20 59h1v1h-1zM21 59h1v1h-1z"/><path d="M22 59h1v1h-1zM23 59h1v1h-1zM24 59h1v1h-1zM25 59h1v1h-1zM26 59h1v1h-1zM27 59h1v1h-1zM28 59h1v1h-1zM29 59h1v1h-1zM30 59h1v1h-1zM31 59h1v1h-1zM32 59h1v1h-1zM33 59h1v1h-1zM34 59h1v1h-1zM35 59h1v1h-1zM36 59h1v1h-1zM37 59h1v1h-1zM38 59h1v1h-1zM39 59h1v1h-1zM40 59h1v1h-1z"/><path fill="#ab2734" d="M41 59h1v1h-1z"/><path fill="#8a0e1a" d="M42 59h1v1h-1zM43 59h1v1h-1zM44 59h1v1h-1zM45 59h1v1h-1zM46 59h1v1h-1zM47 59h1v1h-1z"/><path fill="#ab2734" d="M48 59h1v1h-1z"/><path fill="#9a1a27" d="M49 59h1v1h-1z"/><path fill="#ab2734" d="M50 59h1v1h-1z"/><path fill="#9a1a27" d="M51 59h1v1h-1z"/><path fill="#8a0e1a" d="M52 59h1v1h-1z"/><path fill="#c43d4a" d="M53 59h1v1h-1z"/><path fill="#8a0e1a" d="M54 59h1v1h-1zM55 59h1v1h-1zM56 59h1v1h-1zM57 59h1v1h-1zM58 59h1v1h-1z"/><path fill="#ab2734" d="M59 59h1v1h-1z"/><path fill="#8a0e1a" d="M60 59h1v1h-1zM61 59h1v1h-1zM62 59h1v1h-1zM63 59h1v1h-1zM4 60h1v1H4zM5 60h1v1H5zM6 60h1v1H6zM7 60h1v1H7zM8 60h1v1H8zM9 60h1v1H9zM10 60h1v1h-1zM11 60h1v1h-1z"/><path fill="#9a1a27" d="M12 60h1v1h-1z"/><path fill="#ab2734" d="M13 60h1v1h-1z"/><path fill="#8a0e1a" d="M14 60h1v1h-1z"/><path fill="#ab2734" d="M15 60h1v1h-1zM16 60h1v1h-1z"/><path fill="#c43d4a" d="M17 60h1v1h-1z"/><path fill="#8a0e1a" d="M18 60h1v1h-1z"/><path fill="#ab2734" d="M19 60h1v1h-1z"/><path fill="#8a0e1a" d="M20 60h1v1h-1zM21 60h1v1h-1z"/><path d="M22 60h1v1h-1zM23 60h1v1h-1zM24 60h1v1h-1zM25 60h1v1h-1zM26 60h1v1h-1zM27 60h1v1h-1zM28 60h1v1h-1zM29 60h1v1h-1zM30 60h1v1h-1zM31 60h1v1h-1zM32 60h1v1h-1zM33 60h1v1h-1zM34 60h1v1h-1zM35 60h1v1h-1zM36 60h1v1h-1zM37 60h1v1h-1zM38 60h1v1h-1zM39 60h1v1h-1z"/><path fill="#ab2734" d="M40 60h1v1h-1zM41 60h1v1h-1z"/><path fill="#8a0e1a" d="M42 60h1v1h-1zM43 60h1v1h-1zM44 60h1v1h-1zM45 60h1v1h-1zM46 60h1v1h-1zM47 60h1v1h-1zM48 60h1v1h-1z"/><path fill="#ab2734" d="M49 60h1v1h-1z"/><path fill="#9a1a27" d="M50 60h1v1h-1z"/><path fill="#ab2734" d="M51 60h1v1h-1z"/><path fill="#8a0e1a" d="M52 60h1v1h-1zM53 60h1v1h-1zM54 60h1v1h-1zM55 60h1v1h-1zM56 60h1v1h-1zM57 60h1v1h-1zM58 60h1v1h-1zM59 60h1v1h-1zM60 60h1v1h-1zM61 60h1v1h-1zM62 60h1v1h-1zM63 60h1v1h-1z"/><path fill="#ab2734" d="M3 61h1v1H3z"/><path fill="#8a0e1a" d="M4 61h1v1H4zM5 61h1v1H5zM6 61h1v1H6zM7 61h1v1H7z"/><path fill="#ab2734" d="M8 61h1v1H8z"/><path fill="#8a0e1a" d="M9 61h1v1H9zM10 61h1v1h-1zM11 61h1v1h-1zM12 61h1v1h-1z"/><path fill="#ab2734" d="M13 61h1v1h-1zM14 61h1v1h-1z"/><path fill="#8a0e1a" d="M15 61h1v1h-1zM16 61h1v1h-1zM17 61h1v1h-1z"/><path fill="#ab2734" d="M18 61h1v1h-1zM19 61h1v1h-1z"/><path fill="#9a1a27" d="M20 61h1v1h-1z"/><path fill="#8a0e1a" d="M21 61h1v1h-1z"/><path d="M22 61h1v1h-1zM23 61h1v1h-1zM24 61h1v1h-1zM25 61h1v1h-1zM26 61h1v1h-1zM27 61h1v1h-1zM28 61h1v1h-1zM29 61h1v1h-1zM30 61h1v1h-1zM31 61h1v1h-1zM32 61h1v1h-1zM33 61h1v1h-1zM34 61h1v1h-1zM35 61h1v1h-1zM36 61h1v1h-1zM37 61h1v1h-1zM38 61h1v1h-1zM39 61h1v1h-1z"/><path fill="#8a0e1a" d="M40 61h1v1h-1z"/><path fill="#ab2734" d="M41 61h1v1h-1zM42 61h1v1h-1z"/><path fill="#8a0e1a" d="M43 61h1v1h-1zM44 61h1v1h-1zM45 61h1v1h-1zM46 61h1v1h-1zM47 61h1v1h-1zM48 61h1v1h-1zM49 61h1v1h-1z"/><path fill="#9a1a27" d="M50 61h1v1h-1z"/><path fill="#ab2734" d="M51 61h1v1h-1zM52 61h1v1h-1z"/><path fill="#8a0e1a" d="M53 61h1v1h-1zM54 61h1v1h-1zM55 61h1v1h-1zM56 61h1v1h-1zM57 61h1v1h-1zM58 61h1v1h-1zM59 61h1v1h-1zM60 61h1v1h-1zM61 61h1v1h-1zM62 61h1v1h-1zM63 61h1v1h-1z"/><path fill="#ab2734" d="M2 62h1v1H2z"/><path fill="#8a0e1a" d="M3 62h1v1H3zM4 62h1v1H4z"/><path fill="#ab2734" d="M5 62h1v1H5z"/><path fill="#8a0e1a" d="M6 62h1v1H6zM7 62h1v1H7zM8 62h1v1H8zM9 62h1v1H9zM10 62h1v1h-1zM11 62h1v1h-1zM12 62h1v1h-1zM13 62h1v1h-1zM14 62h1v1h-1zM15 62h1v1h-1zM16 62h1v1h-1zM17 62h1v1h-1z"/><path fill="#ab2734" d="M18 62h1v1h-1z"/><path fill="#9a1a27" d="M19 62h1v1h-1zM20 62h1v1h-1z"/><path fill="#8a0e1a" d="M21 62h1v1h-1z"/><path d="M22 62h1v1h-1zM23 62h1v1h-1zM24 62h1v1h-1zM25 62h1v1h-1zM26 62h1v1h-1zM27 62h1v1h-1zM28 62h1v1h-1zM29 62h1v1h-1zM30 62h1v1h-1zM31 62h1v1h-1zM32 62h1v1h-1zM33 62h1v1h-1zM34 62h1v1h-1zM35 62h1v1h-1zM36 62h1v1h-1zM37 62h1v1h-1zM38 62h1v1h-1zM39 62h1v1h-1z"/><path fill="#8a0e1a" d="M40 62h1v1h-1z"/><path fill="#ab2734" d="M41 62h1v1h-1z"/><path fill="#9a1a27" d="M42 62h1v1h-1z"/><path fill="#8a0e1a" d="M43 62h1v1h-1zM44 62h1v1h-1zM45 62h1v1h-1zM46 62h1v1h-1zM47 62h1v1h-1zM48 62h1v1h-1zM49 62h1v1h-1zM50 62h1v1h-1z"/><path fill="#ab2734" d="M51 62h1v1h-1zM52 62h1v1h-1z"/><path fill="#8a0e1a" d="M53 62h1v1h-1zM54 62h1v1h-1z"/><path fill="#ab2734" d="M55 62h1v1h-1z"/><path fill="#8a0e1a" d="M56 62h1v1h-1zM57 62h1v1h-1zM58 62h1v1h-1zM59 62h1v1h-1zM60 62h1v1h-1zM61 62h1v1h-1zM62 62h1v1h-1zM63 62h1v1h-1zM1 63h1v1H1zM2 63h1v1H2zM3 63h1v1H3zM4 63h1v1H4z"/><path fill="#ab2734" d="M5 63h1v1H5z"/><path fill="#8a0e1a" d="M6 63h1v1H6zM7 63h1v1H7z"/><path fill="#9a1a27" d="M8 63h1v1H8z"/><path fill="#ab2734" d="M9 63h1v1H9z"/><path fill="#8a0e1a" d="M10 63h1v1h-1zM11 63h1v1h-1zM12 63h1v1h-1zM13 63h1v1h-1zM14 63h1v1h-1zM15 63h1v1h-1zM16 63h1v1h-1z"/><path fill="#ab2734" d="M17 63h1v1h-1z"/><path fill="#9a1a27" d="M18 63h1v1h-1z"/><path fill="#ab2734" d="M19 63h1v1h-1zM20 63h1v1h-1z"/><path fill="#8a0e1a" d="M21 63h1v1h-1z"/><path d="M22 63h1v1h-1zM23 63h1v1h-1zM24 63h1v1h-1zM25 63h1v1h-1zM26 63h1v1h-1zM27 63h1v1h-1zM28 63h1v1h-1zM29 63h1v1h-1zM30 63h1v1h-1zM31 63h1v1h-1zM32 63h1v1h-1zM33 63h1v1h-1zM34 63h1v1h-1zM35 63h1v1h-1zM36 63h1v1h-1zM37 63h1v1h-1zM38 63h1v1h-1zM39 63h1v1h-1z"/><path fill="#8a0e1a" d="M40 63h1v1h-1z"/><path fill="#ab2734" d="M41 63h1v1h-1z"/><path fill="#9a1a27" d="M42 63h1v1h-1z"/><path fill="#8a0e1a" d="M43 63h1v1h-1zM44 63h1v1h-1zM45 63h1v1h-1zM46 63h1v1h-1zM47 63h1v1h-1zM48 63h1v1h-1zM49 63h1v1h-1zM50 63h1v1h-1zM51 63h1v1h-1z"/><path fill="#ab2734" d="M52 63h1v1h-1z"/><path fill="#8a0e1a" d="M53 63h1v1h-1zM54 63h1v1h-1z"/><path fill="#ab2734" d="M55 63h1v1h-1z"/><path fill="#8a0e1a" d="M56 63h1v1h-1zM57 63h1v1h-1zM58 63h1v1h-1zM59 63h1v1h-1zM60 63h1v1h-1zM61 63h1v1h-1zM62 63h1v1h-1zM63 63h1v1h-1z"/></svg>