<?xml version="1.0" encoding="UTF-8" standalone="no"?>
<!-- Created with Inkscape (http://www.inkscape.org/) -->

<svg
   xmlns:dc="http://purl.org/dc/elements/1.1/"
   xmlns:cc="http://creativecommons.org/ns#"
   xmlns:rdf="http://www.w3.org/1999/02/22-rdf-syntax-ns#"
   xmlns:svg="http://www.w3.org/2000/svg"
   xmlns="http://www.w3.org/2000/svg"
   xmlns:sodipodi="http://sodipodi.sourceforge.net/DTD/sodipodi-0.dtd"
   xmlns:inkscape="http://www.inkscape.org/namespaces/inkscape"
   id="svg8"
   version="1.1"
   viewBox="0 0 52.57143 52.57143"
   height="52.57143mm"
   width="52.57143mm"
   inkscape:version="0.92.4 (5da689c313, 2019-01-14)"
   sodipodi:docname="icon.svg">
  <defs
     id="defs2" />
  <sodipodi:namedview
     id="base"
     pagecolor="#ffffff"
     bordercolor="#666666"
     borderopacity="1.0"
     inkscape:pageopacity="0.0"
     inkscape:pageshadow="2"
     inkscape:zoom="0.49177593"
     inkscape:cx="-309.45457"
     inkscape:cy="358.41855"
     inkscape:document-units="mm"
     inkscape:current-layer="layer1"
     showgrid="false"
     inkscape:window-width="1600"
     inkscape:window-height="900"
     inkscape:window-x="0"
     inkscape:window-y="0"
     inkscape:window-maximized="0" />
  <metadata
     id="metadata5">
    <rdf:RDF>
      <cc:Work
         rdf:about="">
        <dc:format>image/svg+xml</dc:format>
        <dc:type
           rdf:resource="http://purl.org/dc/dcmitype/StillImage" />
        <dc:title />
      </cc:Work>
    </rdf:RDF>
  </metadata>
  <g
     inkscape:label="Calque 1"
     inkscape:groupmode="layer"
     id="layer1"
     transform="translate(-62.325809,-183.17879)">
    <path
       id="path1455"
       style="fill:none;fill-opacity:1;stroke:#b8bb26;stroke-width:4;stroke-miterlimit:4;stroke-dasharray:none;stroke-opacity:1"
       d="M 112.89724,209.4645 A 24.285712,24.285714 0 0 1 88.611521,233.75022 24.285712,24.285714 0 0 1 64.325809,209.4645 24.285712,24.285714 0 0 1 88.611521,185.17879 24.285712,24.285714 0 0 1 112.89724,209.4645 Z m -46.957773,8.72587 h 45.134643 m -14.831073,14.58447 v -45.99477 m -28.650462,10.63871 c 0.01943,0.0552 0.03888,0.13075 0.05831,0.14047 0.02972,0.0149 0.05944,0.18279 0.08916,0.1976 0.02972,0.0148 0.05944,0.182 0.08916,0.19676 0.02972,0.0147 0.05944,0.18123 0.08916,0.19593 0.02972,0.0147 0.05944,0.18043 0.08917,0.19509 0.02972,0.0147 0.05944,0.17966 0.08916,0.19429 0.02972,0.0146 0.05944,0.17884 0.08916,0.19342 0.02972,0.0146 0.05944,0.17808 0.08916,0.1926 0.02972,0.0145 0.05944,0.17728 0.08916,0.19177 0.02972,0.0145 0.05944,0.17648 0.08916,0.19091 0.02972,0.0144 0.05944,0.17572 0.08917,0.19011 0.02972,0.0144 0.05944,0.17491 0.08916,0.18925 0.02972,0.0143 0.05944,0.17414 0.08916,0.18844 0.02972,0.0143 0.05944,0.17332 0.08916,0.18759 0.02972,0.0143 0.05944,0.17256 0.08916,0.18677 0.02972,0.0142 0.05944,0.17176 0.08916,0.18592 0.02972,0.0141 0.05944,0.17099 0.08917,0.18509 0.02972,0.0141 0.05944,0.1702 0.08916,0.18427 0.02972,0.0141 0.05944,0.16941 0.08916,0.18343 0.02972,0.014 0.05944,0.16862 0.08916,0.18259 0.02972,0.014 0.05944,0.16783 0.08916,0.18175 0.02972,0.0139 0.05944,0.16705 0.08917,0.18093 0.02972,0.0139 0.05944,0.16625 0.08916,0.18009 0.02972,0.0138 0.05944,0.16547 0.08916,0.17926 0.02972,0.0138 0.05944,0.16467 0.08917,0.17841 0.02972,0.0137 0.05944,0.16392 0.08916,0.17761 0.02972,0.0137 0.05944,0.16309 0.08916,0.17673 0.02972,0.0137 0.05944,0.16234 0.08917,0.17594 0.02972,0.0136 0.05944,0.16151 0.08916,0.17508 0.02972,0.0135 0.05944,0.16076 0.08916,0.17426 0.02972,0.0135 0.05944,0.15995 0.08916,0.17343 0.02972,0.0135 0.05944,0.15916 0.08916,0.17259 0.02972,0.0134 0.05944,0.15837 0.08916,0.17175 0.02972,0.0134 0.05944,0.15759 0.08917,0.17093 0.02972,0.0133 0.05944,0.15679 0.08916,0.17008 0.02972,0.0133 0.05944,0.15602 0.08916,0.16926 0.02972,0.0132 0.05944,0.15521 0.08916,0.16841 0.02972,0.0132 0.05944,0.15444 0.08917,0.16759 0.02972,0.0131 0.05944,0.15364 0.08916,0.16674 0.02972,0.0131 0.05944,0.15286 0.08916,0.16593 0.02972,0.0131 0.05944,0.15206 0.08917,0.16507 0.02972,0.013 0.05944,0.15129 0.08916,0.16426 0.02972,0.0129 0.05944,0.15047 0.08916,0.16339 0.02972,0.0129 0.05944,0.14974 0.08916,0.1626 0.02972,0.0129 0.05944,0.14892 0.08916,0.16173 0.02972,0.0128 0.05944,0.14817 0.08917,0.16093 0.02972,0.0128 0.05944,0.14736 0.08916,0.16007 0.02972,0.0127 0.05944,0.1466 0.08916,0.15927 0.02972,0.0127 0.05944,0.14578 0.08917,0.15841 0.02972,0.0126 0.05944,0.145 0.08916,0.15759 0.02972,0.0126 0.05944,0.1442 0.08916,0.15674 0.02972,0.0125 0.05944,0.1434 0.08916,0.15589 0.02972,0.0125 0.05944,0.14266 0.08916,0.1551 0.02972,0.0125 0.05944,0.14184 0.08916,0.15423 0.02972,0.0124 0.05944,0.14107 0.08917,0.15342 0.02972,0.0123 0.05944,0.14028 0.08916,0.15259 0.02972,0.0123 0.05944,0.13947 0.08917,0.15173 0.02972,0.0123 0.05945,0.13868 0.08917,0.15088 0.02972,0.0122 0.05945,0.13795 0.08917,0.15011 0.02972,0.0121 0.05945,0.13712 0.08917,0.14923 0.02972,0.0121 0.05945,0.13634 0.08917,0.14843 0.02972,0.0121 0.05945,0.13554 0.08917,0.14757 0.02972,0.0121 0.05945,0.13475 0.08917,0.14672 0.02972,0.0119 0.05945,0.134 0.08917,0.14593 0.02972,0.0119 0.05945,0.13318 0.08917,0.14506 0.02972,0.0119 0.05945,0.13241 0.08917,0.14425 0.02972,0.0118 0.05945,0.1316 0.08917,0.14339 0.02972,0.0118 0.05945,0.13082 0.08917,0.14257 0.02972,0.0117 0.05945,0.13005 0.08917,0.14176 0.02972,0.0117 0.05945,0.12923 0.08917,0.14089 0.02972,0.0117 0.05945,0.12847 0.08917,0.14008 0.02972,0.0116 0.05945,0.12765 0.08917,0.13923 0.02972,0.0115 0.05945,0.12691 0.08917,0.13842 0.02972,0.0115 0.05945,0.1261 0.08917,0.13756 0.02972,0.0115 0.05945,0.1253 0.08917,0.13674 0.02972,0.0114 0.05945,0.12451 0.08917,0.1359 0.02972,0.0114 0.05945,0.12372 0.08917,0.13507 0.02972,0.0113 0.05945,0.12295 0.08917,0.13424 0.02972,0.0113 0.05945,0.12216 0.08917,0.13339 0.02972,0.0112 0.05945,0.12137 0.08917,0.13257 0.02972,0.0112 0.05945,0.12058 0.08917,0.13172 0.02972,0.0111 0.05945,0.11981 0.08916,0.1309 0.02972,0.0111 0.05945,0.11902 0.08917,0.13009 0.02972,0.0111 0.05945,0.11823 0.08917,0.12924 0.02972,0.011 0.05945,0.11741 0.08917,0.12838 0.02972,0.011 0.05945,0.11666 0.08917,0.12757 0.02972,0.0109 0.05945,0.11585 0.08916,0.12672 0.02972,0.0108 0.05945,0.11507 0.08917,0.1259 0.02972,0.0108 0.05945,0.11427 0.08917,0.12506 0.02972,0.0108 0.05945,0.11349 0.08917,0.12423 0.02972,0.0107 0.05945,0.1127 0.08917,0.12339 0.02972,0.0107 0.05945,0.11196 0.08917,0.12259 0.02972,0.0106 0.05945,0.11112 0.08916,0.1217 0.02972,0.0106 0.05945,0.11037 0.08917,0.12093 0.02972,0.0105 0.05945,0.10954 0.08917,0.12004 0.02972,0.0105 0.05945,0.10877 0.08917,0.11922 0.02972,0.0105 0.05945,0.108 0.08917,0.1184 0.02972,0.0104 0.05945,0.1072 0.08916,0.11755 0.02972,0.0103 0.05945,0.10642 0.08917,0.11673 0.02972,0.0103 0.05945,0.10563 0.08916,0.11589 0.02972,0.0103 0.05945,0.10484 0.08917,0.11506 0.02972,0.0102 0.05945,0.10405 0.08916,0.11423 0.02972,0.0102 0.05945,0.10326 0.08917,0.11338 0.02972,0.0101 0.05945,0.10248 0.08917,0.11256 0.02972,0.0101 0.05945,0.1017 0.08917,0.11173 0.02972,0.01 0.05945,0.1009 0.08917,0.11088 0.02972,0.01 0.05945,0.10012 0.08917,0.11006 0.02972,0.01 0.05945,0.0993 0.08917,0.10923 0.02972,0.01 0.05945,0.0985 0.08917,0.10838 0.02972,0.01 0.05945,0.0978 0.08917,0.10756 0.02972,0.01 0.05945,0.097 0.08917,0.10673 0.02972,0.01 0.05945,0.0962 0.08917,0.10588 0.02972,0.01 0.05945,0.0954 0.08917,0.10506 0.02972,0.01 0.05945,0.0946 0.08917,0.1042 0.02972,0.01 0.05945,0.0938 0.08917,0.1034 0.02972,0.01 0.05945,0.093 0.08917,0.10257 0.02972,0.01 0.05945,0.0922 0.08917,0.10169 0.02972,0.01 0.05945,0.0914 0.08917,0.10088 0.02972,0.009 0.05945,0.0907 0.08917,0.10006 0.02972,0.009 0.05945,0.0899 0.08917,0.0992 0.02972,0.009 0.05945,0.0891 0.08917,0.0984 0.02972,0.009 0.05945,0.0883 0.08917,0.0975 0.02972,0.009 0.05945,0.0875 0.08917,0.0967 0.02972,0.009 0.05945,0.0867 0.08917,0.0959 0.02972,0.009 0.05945,0.0859 0.08917,0.095 0.02972,0.009 0.05945,0.0852 0.08916,0.0942 0.02972,0.009 0.05945,0.0844 0.08917,0.0934 0.02972,0.009 0.05945,0.0836 0.08916,0.0925 0.02972,0.009 0.05945,0.0828 0.08917,0.0917 0.02972,0.009 0.05945,0.082 0.08917,0.0909 0.02972,0.009 0.05945,0.0812 0.08917,0.09 0.02972,0.009 0.05945,0.0804 0.08917,0.0892 0.02972,0.009 0.05945,0.0796 0.08916,0.0884 0.02972,0.009 0.05945,0.0789 0.08917,0.0875 0.02972,0.009 0.05945,0.0781 0.08917,0.0867 0.02972,0.009 0.05945,0.0773 0.08917,0.0859 0.02972,0.009 0.05945,0.0765 0.08916,0.0851 0.02972,0.009 0.05945,0.0757 0.08917,0.0842 0.02972,0.008 0.05945,0.0749 0.08917,0.0834 0.02972,0.008 0.05945,0.0741 0.08917,0.0825 0.02972,0.008 0.05945,0.0734 0.08916,0.0817 0.02972,0.008 0.05945,0.0726 0.08917,0.0809 0.02972,0.008 0.05945,0.0717 0.08917,0.08 0.02972,0.008 0.05945,0.071 0.08917,0.0792 0.02972,0.008 0.05945,0.0702 0.08917,0.0784 0.02972,0.008 0.05945,0.0694 0.08916,0.0776 0.02972,0.008 0.05945,0.0686 0.08917,0.0767 0.02972,0.008 0.05945,0.0678 0.08917,0.0759 0.02972,0.008 0.05945,0.067 0.08917,0.075 0.02972,0.008 0.05945,0.0663 0.08916,0.0742 0.02972,0.008 0.05945,0.0655 0.08917,0.0734 0.02972,0.008 0.05945,0.0647 0.08916,0.0725 0.02972,0.008 0.05945,0.0639 0.08917,0.0717 0.02972,0.008 0.05945,0.0631 0.08917,0.0709 0.02972,0.008 0.05945,0.0623 0.08916,0.07 0.02972,0.008 0.05945,0.0615 0.08917,0.0692 0.02972,0.008 0.05945,0.0607 0.08917,0.0684 0.02972,0.008 0.05945,0.0599 0.08916,0.0675 0.02972,0.008 0.05945,0.0592 0.08917,0.0667 0.02972,0.008 0.05944,0.0584 0.08916,0.0659 0.02972,0.007 0.05945,0.0576 0.08917,0.065 0.02972,0.007 0.05945,0.0568 0.08917,0.0642 0.02972,0.007 0.05945,0.056 0.08916,0.0634 0.02972,0.007 0.05945,0.0552 0.08917,0.0625 0.02972,0.007 0.05945,0.0544 0.08917,0.0617 0.02972,0.007 0.05945,0.0537 0.08917,0.0609 0.02972,0.007 0.05945,0.0529 0.08916,0.06 0.02972,0.007 0.05945,0.0521 0.08917,0.0592 0.02972,0.007 0.05945,0.0513 0.08917,0.0584 0.02972,0.007 0.05945,0.0505 0.08917,0.0575 0.02972,0.007 0.05945,0.0497 0.08916,0.0567 0.02972,0.007 0.05945,0.0489 0.08916,0.0559 0.02972,0.007 0.05945,0.0481 0.08917,0.055 0.02972,0.007 0.05945,0.0473 0.08916,0.0542 0.02972,0.007 0.05945,0.0466 0.08917,0.0534 0.02972,0.007 0.05945,0.0458 0.08916,0.0525 0.02972,0.007 0.05945,0.045 0.08917,0.0517 0.02972,0.007 0.05945,0.0442 0.08916,0.0509 0.02972,0.007 0.05945,0.0434 0.08916,0.05 0.02972,0.007 0.05945,0.0426 0.08917,0.0492 0.02972,0.007 0.05945,0.0418 0.08917,0.0483 0.02972,0.006 0.05945,0.0411 0.08916,0.0475 0.02972,0.006 0.05945,0.0403 0.08917,0.0467 0.02972,0.006 0.05945,0.0395 0.08917,0.0459 0.02972,0.006 0.05945,0.0387 0.08917,0.045 0.02972,0.006 0.05945,0.0379 0.08916,0.0442 0.02972,0.006 0.05945,0.0371 0.08917,0.0434 0.02972,0.006 0.05945,0.0363 0.08916,0.0425 0.02972,0.006 0.05945,0.0355 0.08917,0.0417 0.02972,0.006 0.05945,0.0347 0.08917,0.0408 0.02972,0.006 0.05945,0.034 0.08917,0.04 0.02972,0.006 0.05945,0.0332 0.08917,0.0392 0.02972,0.006 0.05945,0.0324 0.08916,0.0383 0.02972,0.006 0.05945,0.0316 0.08917,0.0375 0.02972,0.006 0.05945,0.0308 0.08916,0.0367 0.02972,0.006 0.05945,0.03 0.08917,0.0358 0.02972,0.006 0.05945,0.0292 0.08917,0.035 0.02972,0.006 0.05945,0.0285 0.08917,0.0342 0.02972,0.006 0.05945,0.0276 0.08916,0.0333 0.02972,0.006 0.05945,0.0269 0.08917,0.0325 0.02972,0.006 0.05945,0.0261 0.08916,0.0317 0.02972,0.006 0.05945,0.0253 0.08917,0.0308 0.02972,0.006 0.05945,0.0245 0.08916,0.03 0.02972,0.005 0.05945,0.0237 0.08916,0.0292 0.02972,0.005 0.05945,0.0229 0.08917,0.0283 0.02972,0.005 0.05945,0.0221 0.08917,0.0275 0.02972,0.005 0.05945,0.0214 0.08917,0.0267 0.02972,0.005 0.05945,0.0206 0.08917,0.0258 0.02972,0.005 0.05944,0.0198 0.08916,0.025 0.02972,0.005 0.05945,0.019 0.08916,0.0242 0.02972,0.005 0.05945,0.0182 0.08917,0.0233 0.02972,0.005 0.05945,0.0174 0.08916,0.0225 0.02972,0.005 0.05945,0.0166 0.08917,0.0217 0.02972,0.005 0.05945,0.0159 0.08917,0.0208 0.02972,0.005 0.05945,0.0151 0.08917,0.02 0.02972,0.005 0.05945,0.0143 0.08917,0.0192 0.02972,0.005 0.05945,0.0135 0.08916,0.0183 0.02972,0.005 0.05945,0.0127 0.08917,0.0175 0.02972,0.005 0.05945,0.0119 0.08917,0.0167 0.02972,0.005 0.05945,0.0111 0.08916,0.0158 0.02972,0.005 0.05945,0.0103 0.08917,0.015 0.02972,0.005 0.05945,0.01 0.08916,0.0142 0.02972,0.005 0.05945,0.009 0.08917,0.0133 0.02972,0.005 0.05945,0.008 0.08916,0.0125 0.02972,0.005 0.05945,0.007 0.08917,0.0117 0.02972,0.004 0.05945,0.006 0.08917,0.0108 0.02972,0.004 0.05945,0.006 0.08916,0.01 0.02972,0.004 0.05945,0.005 0.08917,0.009 0.02972,0.004 0.05945,0.004 0.08917,0.008 0.02972,0.004 0.05945,0.003 0.08916,0.007 0.02972,0.004 0.05945,0.003 0.08917,0.007 0.02972,0.004 0.05945,0.002 0.08917,0.006 0.02972,0.004 0.05944,9.8e-4 0.08916,0.005 0.02972,0.004 0.05945,1.1e-4 0.08916,0.004 0.02972,0.004 0.05945,-6.6e-4 0.08917,0.003 0.02972,0.004 0.05945,-0.001 0.08916,0.003 0.02972,0.004 0.05945,-0.002 0.08917,0.002 0.02972,0.004 0.05945,-0.003 0.08916,9.8e-4 0.02972,0.004 0.05945,-0.004 0.08917,0 0.02972,0.004 0.05945,-0.005 0.08917,-9.8e-4 0.02972,0.004 0.05945,-0.005 0.08916,-0.002 0.02972,0.004 0.05945,-0.006 0.08917,-0.003 0.02972,0.004 0.05945,-0.007 0.08917,-0.003 0.02972,0.004 0.05945,-0.008 0.08916,-0.004 0.02972,0.004 0.05945,-0.009 0.08917,-0.005 0.02972,0.004 0.05945,-0.009 0.08917,-0.006 0.02972,0.003 0.05945,-0.0101 0.08916,-0.007 0.02972,0.003 0.05945,-0.0109 0.08917,-0.007 0.02972,0.003 0.05945,-0.0117 0.08916,-0.008 0.02972,0.003 0.05945,-0.0125 0.08917,-0.009 0.02972,0.003 0.05945,-0.0133 0.08917,-0.01 0.02972,0.003 0.05945,-0.0141 0.08916,-0.0108 0.02972,0.003 0.05945,-0.0149 0.08917,-0.0117 0.02972,0.003 0.05944,-0.0156 0.08917,-0.0125 0.02972,0.003 0.05945,-0.0164 0.08916,-0.0133 0.02972,0.003 0.05945,-0.0172 0.08917,-0.0142 0.02972,0.003 0.05944,-0.018 0.08917,-0.015 0.02972,0.003 0.05945,-0.0188 0.08916,-0.0158 0.02972,0.003 0.05945,-0.0196 0.08917,-0.0167 0.02972,0.003 0.05945,-0.0204 0.08917,-0.0175 0.02972,0.003 0.05945,-0.0211 0.08916,-0.0183 0.02972,0.003 0.05945,-0.0219 0.08917,-0.0192 0.02972,0.003 0.05945,-0.0228 0.08917,-0.02 0.02972,0.003 0.05945,-0.0235 0.08917,-0.0208 0.02972,0.003 0.05945,-0.0243 0.08917,-0.0217 0.02972,0.003 0.05945,-0.0251 0.08917,-0.0225 0.02972,0.003 0.05945,-0.0259 0.08916,-0.0233 0.02972,0.003 0.05945,-0.0266 0.08917,-0.0242 0.02971,0.003 0.05944,-0.0274 0.08917,-0.025 0.02971,0.003 0.05944,-0.0283 0.08916,-0.0258 0.02972,0.002 0.05945,-0.029 0.08917,-0.0267 0.02972,0.002 0.05945,-0.0298 0.08916,-0.0275 0.02972,0.002 0.05945,-0.0306 0.08917,-0.0283 0.02972,0.002 0.05945,-0.0314 0.08917,-0.0292 0.02972,0.002 0.05945,-0.0322 0.08916,-0.03 0.02972,0.002 0.05945,-0.033 0.08917,-0.0308 0.02972,0.002 0.05945,-0.0337 0.08917,-0.0317 0.02971,0.002 0.05943,-0.0345 0.08915,-0.0325 0.02972,0.002 0.05945,-0.0353 0.08917,-0.0333 0.02972,0.002 0.05945,-0.0361 0.08917,-0.0342 0.02971,0.002 0.05944,-0.0369 0.08916,-0.035 0.02972,0.002 0.05944,-0.0377 0.08916,-0.0358 0.02972,0.002 0.05945,-0.0385 0.08917,-0.0367 0.02973,0.002 0.05945,-0.0393 0.08917,-0.0375 0.02973,0.002 0.05945,-0.0401 0.08917,-0.0383 0.0297,0.002 0.05942,-0.0409 0.08914,-0.0392 0.02973,0.002 0.05946,-0.0416 0.08918,-0.04 0.02973,0.002 0.05945,-0.0424 0.08916,-0.0408 0.02973,0.001 0.05944,-0.0432 0.08916,-0.0417 0.02973,0.001 0.05945,-0.044 0.08917,-0.0425 0.02973,0.001 0.05945,-0.0448 0.08916,-0.0434 0.02973,10e-4 0.05944,-0.0456 0.08916,-0.0442 0.02973,0.001 0.05945,-0.0464 0.08916,-0.045 0.02973,0.001 0.05945,-0.0471 0.08917,-0.0459 0.02973,9.9e-4 0.05945,-0.0479 0.08917,-0.0467 0.02973,9.9e-4 0.05946,-0.0487 0.08917,-0.0475 0.0297,9.9e-4 0.05943,-0.0495 0.08915,-0.0483 0.02973,9.8e-4 0.05945,-0.0503 0.08917,-0.0492 0.02973,9.8e-4 0.05944,-0.0511 0.08916,-0.05 0.02973,9.9e-4 0.05943,-0.0519 0.08915,-0.0509 0.02973,9.9e-4 0.05946,-0.0527 0.08918,-0.0517 0.02973,9.9e-4 0.05944,-0.0534 0.08915,-0.0525 0.02973,9.9e-4 0.05945,-0.0542 0.08917,-0.0534 0.02973,9.8e-4 0.05945,-0.055 0.08917,-0.0542 0.02973,9.9e-4 0.05945,-0.0558 0.08917,-0.055 0.02973,9.9e-4 0.05946,-0.0566 0.08918,-0.0559 0.02973,9.8e-4 0.05944,-0.0574 0.08915,-0.0567 0.02973,6.5e-4 0.05945,-0.0581 0.08917,-0.0575 0.02973,6.6e-4 0.05945,-0.059 0.08916,-0.0584 0.02973,6.6e-4 0.05945,-0.0597 0.08917,-0.0592 0.02973,6.5e-4 0.05944,-0.0605 0.08915,-0.06 0.02973,6.6e-4 0.05946,-0.0613 0.08917,-0.0609 0.02973,6.6e-4 0.05944,-0.0621 0.08916,-0.0617 0.02973,2.9e-4 0.05944,-0.0629 0.08916,-0.0625 0.02973,2.8e-4 0.05945,-0.0637 0.08917,-0.0634 0.02973,2.8e-4 0.05945,-0.0644 0.08917,-0.0642 0.02973,2.6e-4 0.05945,-0.0653 0.08918,-0.065 0.02973,2.1e-4 0.05943,-0.066 0.08915,-0.0659 0.02973,1.7e-4 0.05945,-0.0668 0.08917,-0.0667 0.02973,1.2e-4 0.05943,-0.0676 0.08916,-0.0675 0.02973,8e-5 0.05945,-0.0684 0.08917,-0.0684 0.02973,3e-5 0.05944,-0.0692 0.08916,-0.0692 0.02973,-2e-5 0.05945,-0.07 0.08916,-0.07 0.02973,-6e-5 0.05945,-0.0707 0.08917,-0.0709 0.02973,-1.1e-4 0.05944,-0.0716 0.08916,-0.0717 0.02973,-1.5e-4 0.05945,-0.0723 0.08917,-0.0725 0.02973,-2e-4 0.05945,-0.0731 0.08917,-0.0734 0.02973,-2.4e-4 0.05945,-0.0739 0.08917,-0.0742 0.02973,-2.8e-4 0.05944,-0.0747 0.08915,-0.075 0.02973,-2.8e-4 0.05945,-0.0755 0.08916,-0.0759 0.02973,-2.9e-4 0.05945,-0.0763 0.08917,-0.0767 0.02973,-6.6e-4 0.05945,-0.0771 0.08917,-0.0776 0.02973,-6.6e-4 0.05945,-0.0778 0.08916,-0.0784 0.02973,-6.5e-4 0.05944,-0.0786 0.08916,-0.0792 0.02973,-6.6e-4 0.05945,-0.0794 0.08917,-0.08 0.02973,-6.6e-4 0.05944,-0.0802 0.08916,-0.0809 0.02973,-6.6e-4 0.05946,-0.081 0.08918,-0.0817 0.02973,-6.6e-4 0.05945,-0.0818 0.08917,-0.0825 0.02973,-9.9e-4 0.05944,-0.0826 0.08916,-0.0834 0.02973,-9.8e-4 0.05945,-0.0834 0.08916,-0.0842 0.02973,-9.9e-4 0.05943,-0.0842 0.08915,-0.0851 0.02973,-9.9e-4 0.05946,-0.0849 0.08918,-0.0859 0.02973,-9.9e-4 0.05944,-0.0857 0.08916,-0.0867 0.02973,-9.8e-4 0.05944,-0.0865 0.08916,-0.0875 0.02973,-9.9e-4 0.05945,-0.0873 0.08917,-0.0884 0.02973,-9.9e-4 0.05945,-0.0881 0.08917,-0.0892 0.02973,-9.9e-4 0.05944,-0.0889 0.08916,-0.09 0.02973,-9.9e-4 0.05946,-0.0897 0.08918,-0.0909 0.02973,-9.8e-4 0.05945,-0.0904 0.08917,-0.0917 0.02973,-9.9e-4 0.05943,-0.0912 0.08915,-0.0925 0.02973,-0.001 0.05945,-0.092 0.08916,-0.0934 0.02973,-0.001 0.05944,-0.0928 0.08917,-0.0942 0.02973,-0.001 0.05945,-0.0936 0.08917,-0.095 0.02973,-0.001 0.05944,-0.0944 0.08916,-0.0959 0.02973,-0.001 0.05944,-0.0952 0.08916,-0.0967 0.02973,-0.001 0.05945,-0.096 0.08917,-0.0975 0.02973,-0.002 0.05945,-0.0968 0.08917,-0.0984 0.02973,-0.002 0.05944,-0.0975 0.08916,-0.0992 0.02973,-0.002 0.05946,-0.0983 0.08918,-0.10006 0.02973,-0.002 0.05945,-0.0991 0.08916,-0.10088 0.02973,-0.002 0.05944,-0.0999 0.08916,-0.10169 0.02973,-0.002 0.05944,-0.10071 0.08915,-0.10257 0.02973,-0.002 0.05945,-0.10149 0.08918,-0.1034 0.02973,-0.002 0.05945,-0.10224 0.08916,-0.1042 0.0297,-0.002 0.0594,-0.10305 0.0892,-0.10506 0.0297,-0.002 0.0594,-0.10383 0.0892,-0.10588 0.0297,-0.002 0.0594,-0.10463 0.0892,-0.10673 0.0297,-0.002 0.0594,-0.10541 0.0892,-0.10756 0.0297,-0.002 0.0594,-0.10619 0.0892,-0.10838 0.0297,-0.002 0.0594,-0.10699 0.0892,-0.10923 0.0297,-0.002 0.0594,-0.10778 0.0892,-0.11006 0.0297,-0.002 0.0594,-0.10855 0.0892,-0.11088 0.0297,-0.002 0.0594,-0.10935 0.0892,-0.11173 0.0297,-0.002 0.0595,-0.11014 0.0892,-0.11256 0.0297,-0.002 0.0594,-0.11091 0.0892,-0.11338 0.0297,-0.003 0.0594,-0.11171 0.0892,-0.11423 0.0297,-0.003 0.0594,-0.1125 0.0892,-0.11506 0.0297,-0.003 0.0594,-0.11328 0.0892,-0.11589 0.0297,-0.003 0.0594,-0.11407 0.0892,-0.11673 0.0297,-0.003 0.0594,-0.11485 0.0892,-0.11755 0.0297,-0.003 0.0594,-0.11564 0.0892,-0.1184 0.0297,-0.003 0.0594,-0.11643 0.0892,-0.11922 0.0297,-0.003 0.0594,-0.11721 0.0892,-0.12004 0.0297,-0.003 0.0594,-0.11804 0.0892,-0.12093 0.0297,-0.003 0.0594,-0.11877 0.0892,-0.1217 0.0297,-0.003 0.0594,-0.11961 0.0892,-0.12259 0.0297,-0.003 0.0594,-0.12036 0.0892,-0.12339 0.0297,-0.003 0.0594,-0.12115 0.0892,-0.12423 0.0297,-0.003 0.0595,-0.12195 0.0892,-0.12506 0.0297,-0.003 0.0594,-0.12274 0.0892,-0.1259 0.0297,-0.003 0.0594,-0.12351 0.0892,-0.12672 0.0297,-0.003 0.0594,-0.12432 0.0892,-0.12757 0.0297,-0.003 0.0594,-0.12508 0.0892,-0.12838 0.0297,-0.003 0.0594,-0.12589 0.0892,-0.12924 0.0297,-0.003 0.0594,-0.12669 0.0892,-0.13009 0.0297,-0.003 0.0595,-0.12744 0.0892,-0.1309 0.0297,-0.003 0.0594,-0.12823 0.0892,-0.13172 0.0297,-0.003 0.0594,-0.12903 0.0892,-0.13257 0.0297,-0.004 0.0595,-0.12982 0.0892,-0.13339 0.0297,-0.004 0.0594,-0.13062 0.0892,-0.13424 0.0297,-0.004 0.0594,-0.1314 0.0892,-0.13507 0.0297,-0.004 0.0594,-0.13219 0.0892,-0.1359 0.0297,-0.004 0.0594,-0.13297 0.0892,-0.13674 0.0297,-0.004 0.0594,-0.13375 0.0892,-0.13756 0.0297,-0.004 0.0594,-0.13455 0.0892,-0.13842 0.0297,-0.004 0.0594,-0.13531 0.0892,-0.13923 0.0297,-0.004 0.0594,-0.13612 0.0892,-0.14008 0.0297,-0.004 0.0594,-0.13688 0.0892,-0.14089 0.0297,-0.004 0.0594,-0.1377 0.0892,-0.14176 0.0297,-0.004 0.0594,-0.13848 0.0892,-0.14257 0.0297,-0.004 0.0594,-0.13925 0.0892,-0.14339 0.0297,-0.004 0.0594,-0.14007 0.0892,-0.14425 0.0297,-0.004 0.0594,-0.14083 0.0892,-0.14506 0.0297,-0.004 0.0594,-0.14165 0.0892,-0.14593 0.0297,-0.004 0.0594,-0.14239 0.0892,-0.14672 0.0297,-0.004 0.0594,-0.14321 0.0892,-0.14757 0.0297,-0.004 0.0594,-0.14401 0.0892,-0.14843 0.0297,-0.004 0.0594,-0.14477 0.0892,-0.14923 0.0297,-0.004 0.0594,-0.14559 0.0892,-0.15011 0.0297,-0.005 0.0594,-0.14632 0.0892,-0.15088 0.0297,-0.005 0.0594,-0.14714 0.0892,-0.15173 0.0297,-0.005 0.0595,-0.14794 0.0892,-0.15259 0.0297,-0.005 0.0594,-0.14873 0.0892,-0.15342 0.0297,-0.005 0.0594,-0.14949 0.0892,-0.15423 0.0297,-0.005 0.0594,-0.15029 0.0891,-0.1551 0.0297,-0.005 0.0594,-0.15106 0.0892,-0.15589 0.0297,-0.005 0.0594,-0.15186 0.0892,-0.15674 0.0297,-0.005 0.0594,-0.15267 0.0892,-0.15759 0.0297,-0.005 0.0595,-0.15344 0.0892,-0.15841 0.0297,-0.005 0.0594,-0.15425 0.0891,-0.15927 0.0297,-0.005 0.0595,-0.155 0.0892,-0.16007 0.0297,-0.005 0.0594,-0.15582 0.0892,-0.16093 0.0297,-0.005 0.0594,-0.15658 0.0892,-0.16173 0.0297,-0.005 0.0594,-0.15739 0.0892,-0.1626 0.0297,-0.005 0.0594,-0.15814 0.0892,-0.16339 0.0297,-0.005 0.0594,-0.15896 0.0892,-0.16426 0.0297,-0.005 0.0594,-0.15973 0.0892,-0.16507 0.0297,-0.005 0.0594,-0.16054 0.0892,-0.16593 0.0297,-0.005 0.0594,-0.1613 0.0892,-0.16674 0.0297,-0.005 0.0594,-0.16212 0.0892,-0.16759 0.0297,-0.005 0.0594,-0.16289 0.0892,-0.16841 0.0297,-0.006 0.0594,-0.16369 0.0892,-0.16926 0.0297,-0.006 0.0594,-0.16446 0.0892,-0.17008 0.0297,-0.006 0.0595,-0.16527 0.0892,-0.17093 0.0297,-0.006 0.0594,-0.16604 0.0892,-0.17175 0.0297,-0.006 0.0594,-0.16683 0.0892,-0.17259 0.0297,-0.006 0.0594,-0.16761 0.0892,-0.17343 0.0297,-0.006 0.0595,-0.1684 0.0892,-0.17426 0.0297,-0.006 0.0594,-0.16918 0.0892,-0.17508 0.0297,-0.006 0.0594,-0.16999 0.0892,-0.17594 0.0297,-0.006 0.0594,-0.17074 0.0892,-0.17673 0.0297,-0.006 0.0594,-0.17158 0.0892,-0.17761 0.0297,-0.006 0.0595,-0.17232 0.0892,-0.17841 0.0297,-0.006 0.0594,-0.17314 0.0892,-0.17926 0.0297,-0.006 0.0594,-0.17391 0.0892,-0.18009 0.0297,-0.006 0.0594,-0.17471 0.0892,-0.18093 0.0297,-0.006 0.0594,-0.17549 0.0892,-0.18175 0.0297,-0.006 0.0594,-0.17628 0.0892,-0.18259 0.0297,-0.006 0.0594,-0.17706 0.0892,-0.18343 0.0297,-0.006 0.0594,-0.17785 0.0892,-0.18427 0.0297,-0.006 0.0594,-0.17863 0.0892,-0.18509 0.0297,-0.006 0.0594,-0.17942 0.0892,-0.18592 0.0297,-0.007 0.0594,-0.18023 0.0892,-0.18677 0.0297,-0.007 0.0594,-0.18099 0.0892,-0.18759 0.0297,-0.007 0.0595,-0.1818 0.0892,-0.18844 0.0297,-0.007 0.0594,-0.18257 0.0892,-0.18925 0.0297,-0.007 0.0594,-0.18337 0.0892,-0.19011 0.0297,-0.007 0.0594,-0.18413 0.0892,-0.19091 0.0297,-0.007 0.0594,-0.18495 0.0892,-0.19177 0.0297,-0.007 0.0594,-0.18573 0.0892,-0.1926 0.0297,-0.007 0.0594,-0.18651 0.0892,-0.19342 0.0297,-0.007 0.0594,-0.18733 0.0892,-0.19429 0.0296,-0.007 0.0593,-0.18697 0.0889,-0.19502"
       inkscape:connector-curvature="0" />
  </g>
</svg>
