<?xml version="1.0" encoding="UTF-8" standalone="no"?>
<!-- Created with Inkscape (http://www.inkscape.org/) -->

<svg
   xmlns:dc="http://purl.org/dc/elements/1.1/"
   xmlns:cc="http://creativecommons.org/ns#"
   xmlns:rdf="http://www.w3.org/1999/02/22-rdf-syntax-ns#"
   xmlns:svg="http://www.w3.org/2000/svg"
   xmlns="http://www.w3.org/2000/svg"
   xmlns:sodipodi="http://sodipodi.sourceforge.net/DTD/sodipodi-0.dtd"
   xmlns:inkscape="http://www.inkscape.org/namespaces/inkscape"
   width="139.25804mm"
   height="126.69588mm"
   viewBox="0 0 139.25804 126.69588"
   version="1.1"
   id="svg8"
   inkscape:version="0.92.4 (5da689c313, 2019-01-14)"
   sodipodi:docname="btrackeradmin.svg">
  <defs
     id="defs2" />
  <sodipodi:namedview
     id="base"
     pagecolor="#ffffff"
     bordercolor="#666666"
     borderopacity="1.0"
     inkscape:pageopacity="0.0"
     inkscape:pageshadow="2"
     inkscape:zoom="0.98994949"
     inkscape:cx="133.23181"
     inkscape:cy="229.09167"
     inkscape:document-units="mm"
     inkscape:current-layer="layer1"
     showgrid="false"
     inkscape:window-width="1598"
     inkscape:window-height="874"
     inkscape:window-x="0"
     inkscape:window-y="24"
     inkscape:window-maximized="0" />
  <metadata
     id="metadata5">
    <rdf:RDF>
      <cc:Work
         rdf:about="">
        <dc:format>image/svg+xml</dc:format>
        <dc:type
           rdf:resource="http://purl.org/dc/dcmitype/StillImage" />
        <dc:title></dc:title>
      </cc:Work>
    </rdf:RDF>
  </metadata>
  <g
     inkscape:label="Calque 1"
     inkscape:groupmode="layer"
     id="layer1"
     transform="translate(-38.748519,-25.716367)">
    <rect
       style="fill:#282828;fill-opacity:1;stroke:#cc1a1d;stroke-width:9.50300026;stroke-miterlimit:4;stroke-dasharray:none;stroke-opacity:1"
       id="rect1366"
       width="129.75504"
       height="117.19288"
       x="43.500019"
       y="30.467867"
       rx="8.5623322"
       ry="10.011011" />
    <g
       id="g1392"
       transform="translate(9.7189399,4.4642856)"
       style="fill:#cc241d;fill-opacity:1;stroke:#cc241d;stroke-opacity:1;stroke-width:1;stroke-miterlimit:4;stroke-dasharray:none">
      <g
         aria-label="B "
         transform="matrix(0.21831384,0.14947711,-0.14947711,0.21831384,53.024563,-42.846631)"
         style="font-style:normal;font-weight:normal;font-size:333.33334351px;line-height:1.25;font-family:sans-serif;letter-spacing:0px;word-spacing:0px;fill:#cc241d;fill-opacity:1;stroke:#cc241d;stroke-width:3.77952766;stroke-miterlimit:4;stroke-dasharray:none;stroke-opacity:1"
         id="flowRoot1368">
        <path
           d="m 303.98893,363.97136 v 89.02995 h 52.73438 q 26.52995,0 39.22526,-10.90495 12.85808,-11.06771 12.85808,-33.69141 0,-22.78645 -12.85808,-33.52864 -12.69531,-10.90495 -39.22526,-10.90495 z m 0,-99.9349 v 73.24219 h 48.66537 q 24.08854,0 35.80729,-8.95182 11.88151,-9.11459 11.88151,-27.66927 0,-18.39193 -11.88151,-27.50652 -11.71875,-9.11458 -35.80729,-9.11458 z m -32.8776,-27.01823 h 83.98438 q 37.59765,0 57.94271,15.625 20.34505,15.625 20.34505,44.4336 0,22.29817 -10.41667,35.48177 -10.41666,13.18359 -30.59896,16.4388 24.25131,5.20833 37.59766,21.8099 13.50912,16.4388 13.50912,41.17838 0,32.55209 -22.13542,50.29297 -22.13542,17.74089 -62.98828,17.74089 h -87.23959 z"
           style="stroke:#cc241d;stroke-opacity:1;fill:#cc241d;fill-opacity:1"
           id="path825" />
      </g>
      <g
         aria-label="T"
         transform="matrix(0.26458333,0,0,0.26458333,-49.156105,29.677662)"
         style="font-style:normal;font-weight:normal;font-size:333.33334351px;line-height:1.25;font-family:sans-serif;letter-spacing:0px;word-spacing:0px;fill:#cc241d;fill-opacity:1;stroke:#cc241d;stroke-width:3.77952766;stroke-miterlimit:4;stroke-dasharray:none;stroke-opacity:1"
         id="flowRoot1376">
        <path
           d="m 561.67773,100.64714 h 205.56642 v 27.66927 H 680.98112 V 343.64845 H 647.94076 V 128.31641 h -86.26303 z"
           style="stroke:#cc241d;stroke-opacity:1;fill:#cc241d;fill-opacity:1"
           id="path828" />
      </g>
    </g>
  </g>
</svg>
