<?xml version="1.0" encoding="UTF-8" standalone="no"?>
<!-- Created with Inkscape (http://www.inkscape.org/) -->

<svg
   xmlns:dc="http://purl.org/dc/elements/1.1/"
   xmlns:cc="http://creativecommons.org/ns#"
   xmlns:rdf="http://www.w3.org/1999/02/22-rdf-syntax-ns#"
   xmlns:svg="http://www.w3.org/2000/svg"
   xmlns="http://www.w3.org/2000/svg"
   xmlns:sodipodi="http://sodipodi.sourceforge.net/DTD/sodipodi-0.dtd"
   xmlns:inkscape="http://www.inkscape.org/namespaces/inkscape"
   id="svg8"
   version="1.1"
   viewBox="0 0 175 175"
   height="175mm"
   width="175mm"
   inkscape:version="0.92.4 (5da689c313, 2019-01-14)"
   sodipodi:docname="logo1.svg">
  <defs
     id="defs2" />
  <sodipodi:namedview
     id="base"
     pagecolor="#ffffff"
     bordercolor="#666666"
     borderopacity="1.0"
     inkscape:pageopacity="0.0"
     inkscape:pageshadow="2"
     inkscape:zoom="0.49177593"
     inkscape:cx="59.298286"
     inkscape:cy="589.91376"
     inkscape:document-units="mm"
     inkscape:current-layer="layer1"
     showgrid="false"
     inkscape:window-width="1600"
     inkscape:window-height="900"
     inkscape:window-x="0"
     inkscape:window-y="0"
     inkscape:window-maximized="0" />
  <metadata
     id="metadata5">
    <rdf:RDF>
      <cc:Work
         rdf:about="">
        <dc:format>image/svg+xml</dc:format>
        <dc:type
           rdf:resource="http://purl.org/dc/dcmitype/StillImage" />
        <dc:title></dc:title>
      </cc:Work>
    </rdf:RDF>
  </metadata>
  <g
     inkscape:label="Calque 1"
     inkscape:groupmode="layer"
     id="layer1"
     transform="translate(0,-122)">
    <path
       id="path1455"
       style="fill:none;fill-opacity:1;stroke:#ebdbb2;stroke-width:5;stroke-miterlimit:4;stroke-dasharray:none;stroke-opacity:1"
       d="m 172.50001,209.5 a 85,85 0 0 1 -85.00001,85 85,85 0 0 1 -85,-85 85,85 0 0 1 85,-85 85,85 0 0 1 85.00001,85 z M 8.147802,240.04049 H 166.11905 m -51.90873,51.04564 V 130.10451 m -100.276638,37.2354 c 0.06803,0.1934 0.136068,0.45768 0.204102,0.49168 0.104024,0.052 0.20805,0.63978 0.312076,0.6916 0.104026,0.0518 0.20805,0.63703 0.312076,0.68869 0.104026,0.0517 0.208053,0.63426 0.312076,0.68576 0.104026,0.0515 0.208053,0.63151 0.312079,0.68285 0.104023,0.0513 0.20805,0.62875 0.312076,0.67993 0.104023,0.0512 0.20805,0.62599 0.312076,0.67701 0.104023,0.051 0.20805,0.62324 0.312076,0.67409 0.104026,0.0508 0.20805,0.62048 0.312076,0.67117 0.104026,0.0507 0.208052,0.61773 0.312076,0.66826 0.104026,0.0505 0.208052,0.61497 0.312079,0.66533 0.104023,0.0504 0.20805,0.61222 0.312076,0.66242 0.104023,0.0502 0.20805,0.60947 0.312076,0.65951 0.104023,0.05 0.20805,0.6067 0.312076,0.65658 0.104026,0.0499 0.20805,0.60395 0.312076,0.65366 0.104026,0.0497 0.208052,0.6012 0.312076,0.65075 0.104026,0.0495 0.208052,0.59844 0.312079,0.64783 0.104023,0.0494 0.208049,0.59568 0.312076,0.64491 0.104026,0.0492 0.208049,0.59292 0.312076,0.64199 0.104026,0.0491 0.208049,0.59017 0.312076,0.63908 0.104026,0.0489 0.208049,0.58741 0.312076,0.63615 0.104026,0.0487 0.208052,0.58466 0.312076,0.63324 0.104026,0.0486 0.208052,0.5819 0.312078,0.63032 0.104024,0.0484 0.20805,0.57914 0.312076,0.6274 0.104027,0.0483 0.20805,0.57639 0.312077,0.62448 0.104026,0.0481 0.208049,0.57364 0.312076,0.62157 0.104026,0.0479 0.208052,0.57088 0.312076,0.61865 0.104026,0.0478 0.208052,0.56811 0.312078,0.61572 0.104024,0.0476 0.20805,0.56537 0.312076,0.61282 0.104027,0.0474 0.20805,0.5626 0.312076,0.60989 0.104027,0.0473 0.208053,0.55985 0.312076,0.60697 0.104027,0.0471 0.208053,0.5571 0.312076,0.60406 0.104027,0.047 0.208053,0.55434 0.312076,0.60114 0.104027,0.0468 0.208053,0.55158 0.312079,0.59822 0.104024,0.0466 0.20805,0.54882 0.312076,0.5953 0.104026,0.0465 0.20805,0.54607 0.312076,0.59238 0.104026,0.0463 0.208053,0.54332 0.312076,0.58947 0.104026,0.0461 0.208053,0.54056 0.312076,0.58655 0.104027,0.046 0.208053,0.5378 0.312076,0.58362 0.104027,0.0458 0.208053,0.53505 0.312079,0.58071 0.104024,0.0457 0.20805,0.5323 0.312076,0.5778 0.104026,0.0455 0.20805,0.52953 0.312076,0.57487 0.104026,0.0453 0.208053,0.52678 0.312076,0.57196 0.104026,0.0452 0.208053,0.52402 0.312079,0.56904 0.104023,0.045 0.20805,0.52127 0.312073,0.56612 0.104026,0.0448 0.208053,0.51851 0.312079,0.5632 0.104023,0.0447 0.20805,0.51576 0.312076,0.56028 0.104026,0.0445 0.20805,0.51301 0.312076,0.55737 0.104026,0.0444 0.208052,0.51024 0.312076,0.55445 0.104026,0.0442 0.208052,0.50749 0.312079,0.55153 0.104023,0.044 0.208049,0.50473 0.312076,0.54861 0.104023,0.0439 0.20805,0.50198 0.312076,0.54569 0.104023,0.0437 0.20805,0.49922 0.312076,0.54278 0.104026,0.0436 0.20805,0.49646 0.312076,0.53986 0.104026,0.0434 0.208052,0.4937 0.312076,0.53694 0.104026,0.0432 0.208052,0.49095 0.312079,0.53402 0.104023,0.0431 0.208049,0.48819 0.312076,0.5311 0.104023,0.0429 0.208049,0.48544 0.312076,0.52818 0.104023,0.0427 0.208049,0.48269 0.312076,0.52527 0.104026,0.0426 0.208049,0.47993 0.312076,0.52235 0.104026,0.0424 0.208052,0.47717 0.312076,0.51943 0.104026,0.0423 0.208052,0.47441 0.312078,0.51651 0.104024,0.0421 0.20805,0.47166 0.312076,0.51359 0.104027,0.0419 0.20805,0.46891 0.312077,0.51068 0.104026,0.0418 0.208049,0.46615 0.312076,0.50776 0.104026,0.0416 0.208052,0.46339 0.312076,0.50484 0.104026,0.0414 0.208052,0.46063 0.312078,0.50192 0.104024,0.0413 0.20805,0.45788 0.312076,0.499 0.104027,0.0411 0.20805,0.45512 0.312076,0.49609 0.104027,0.041 0.20805,0.45236 0.312076,0.49316 0.104027,0.0408 0.20805,0.44961 0.312076,0.49025 0.104027,0.0406 0.208053,0.44686 0.312076,0.48734 0.104027,0.0405 0.208053,0.44409 0.312079,0.48441 0.104024,0.0403 0.20805,0.44134 0.312076,0.48149 0.104026,0.0402 0.20805,0.43859 0.312076,0.47858 0.104026,0.04 0.208053,0.43583 0.312076,0.47566 0.104026,0.0398 0.20805,0.43307 0.312076,0.47274 0.104027,0.0397 0.208053,0.43031 0.312076,0.46982 0.104027,0.0395 0.208053,0.42756 0.312079,0.4669 0.104024,0.0393 0.20805,0.42481 0.312076,0.46399 0.104026,0.0392 0.20805,0.42205 0.312076,0.46106 0.104026,0.039 0.208053,0.4193 0.312076,0.45815 0.104026,0.0389 0.208053,0.41654 0.312076,0.45523 0.104026,0.0387 0.208053,0.41379 0.312076,0.45232 0.104026,0.0385 0.208053,0.41102 0.312079,0.44939 0.104023,0.0384 0.20805,0.40827 0.312076,0.44648 0.104026,0.0382 0.20805,0.40551 0.312076,0.44356 0.104026,0.038 0.208052,0.40275 0.312076,0.44064 0.104026,0.0379 0.208052,0.4 0.312076,0.43772 0.104026,0.0377 0.208052,0.39724 0.312076,0.4348 0.104026,0.0376 0.208053,0.39449 0.312079,0.43189 0.104023,0.0374 0.20805,0.39173 0.312076,0.42896 0.104026,0.0372 0.20805,0.38898 0.312076,0.42605 0.104026,0.0371 0.208052,0.38623 0.312076,0.42314 0.104026,0.0369 0.208052,0.38346 0.312079,0.42021 0.104023,0.0367 0.208049,0.38071 0.312076,0.41729 0.104023,0.0366 0.208049,0.37796 0.312076,0.41438 0.104023,0.0364 0.208049,0.3752 0.312076,0.41146 0.104026,0.0363 0.208049,0.37244 0.312076,0.40854 0.104026,0.0361 0.208052,0.36969 0.312076,0.40562 0.104026,0.0359 0.208052,0.36693 0.312078,0.40271 0.104024,0.0358 0.20805,0.36417 0.312076,0.39978 0.104024,0.0356 0.20805,0.36142 0.312076,0.39687 0.104027,0.0354 0.20805,0.35866 0.312077,0.39395 0.104026,0.0353 0.208052,0.35591 0.312076,0.39103 0.104026,0.0351 0.208052,0.35315 0.312078,0.38812 0.104024,0.035 0.20805,0.35039 0.312076,0.38519 0.104027,0.0348 0.20805,0.34764 0.312076,0.38228 0.104027,0.0346 0.20805,0.34488 0.312076,0.37936 0.104027,0.0345 0.20805,0.34212 0.312076,0.37644 0.104027,0.0343 0.208053,0.33937 0.312076,0.37352 0.104027,0.0341 0.208053,0.33661 0.312079,0.3706 0.104024,0.034 0.20805,0.33386 0.312076,0.36769 0.104026,0.0338 0.20805,0.3311 0.312076,0.36477 0.104026,0.0337 0.20805,0.32835 0.312076,0.36185 0.104026,0.0335 0.20805,0.32559 0.312076,0.35893 0.104027,0.0333 0.208053,0.32284 0.312076,0.35602 0.104027,0.0332 0.208053,0.32007 0.312079,0.35309 0.104024,0.033 0.20805,0.31732 0.312076,0.35018 0.104026,0.0329 0.20805,0.31456 0.312076,0.34726 0.104026,0.0327 0.20805,0.31181 0.312076,0.34434 0.104026,0.0325 0.20805,0.30905 0.312076,0.34142 0.104026,0.0324 0.208053,0.3063 0.312076,0.33851 0.104026,0.0322 0.208053,0.30354 0.312079,0.33558 0.104023,0.032 0.20805,0.30079 0.312076,0.33267 0.104026,0.0319 0.20805,0.29803 0.312076,0.32975 0.104026,0.0317 0.208052,0.29528 0.312076,0.32684 0.104026,0.0316 0.208052,0.29251 0.312076,0.32391 0.104026,0.0314 0.208052,0.28976 0.312076,0.321 0.104026,0.0312 0.208053,0.287 0.312079,0.31807 0.104023,0.0311 0.20805,0.28425 0.312076,0.31516 0.104026,0.0309 0.20805,0.2815 0.312076,0.31225 0.104026,0.0307 0.208052,0.27873 0.312076,0.30932 0.104026,0.0306 0.208052,0.27598 0.312076,0.30641 0.104026,0.0304 0.208052,0.27322 0.312076,0.30348 0.104026,0.0303 0.208052,0.27047 0.312079,0.30057 0.104023,0.0301 0.208049,0.26771 0.312076,0.29765 0.104026,0.0299 0.208049,0.26496 0.312076,0.29474 0.104026,0.0298 0.208052,0.2622 0.312076,0.29181 0.104026,0.0296 0.208052,0.25944 0.312078,0.2889 0.104024,0.0294 0.20805,0.25669 0.312076,0.28597 0.104024,0.0293 0.20805,0.25394 0.312076,0.28307 0.104027,0.0291 0.20805,0.25117 0.312077,0.28014 0.104026,0.029 0.208052,0.24842 0.312076,0.27722 0.104026,0.0288 0.208052,0.24567 0.312078,0.27431 0.104024,0.0286 0.20805,0.24291 0.312076,0.27138 0.104024,0.0285 0.20805,0.24016 0.312076,0.26847 0.104024,0.0283 0.20805,0.2374 0.312076,0.26556 0.104027,0.0282 0.20805,0.23464 0.312076,0.26263 0.104027,0.028 0.208053,0.23188 0.312076,0.25971 0.104027,0.0278 0.208053,0.22913 0.312079,0.2568 0.104024,0.0277 0.20805,0.22637 0.312076,0.25388 0.104026,0.0275 0.20805,0.22362 0.312076,0.25096 0.104024,0.0273 0.20805,0.22086 0.312076,0.24804 0.104026,0.0272 0.20805,0.21811 0.312076,0.24513 0.104026,0.027 0.208053,0.21535 0.312076,0.2422 0.104027,0.0269 0.208053,0.2126 0.312079,0.23929 0.104024,0.0267 0.20805,0.20984 0.312076,0.23637 0.104026,0.0265 0.20805,0.20708 0.312076,0.23345 0.104026,0.0264 0.20805,0.20433 0.312076,0.23054 0.104026,0.0262 0.20805,0.20156 0.312076,0.22761 0.104026,0.026 0.208053,0.19881 0.312076,0.2247 0.104026,0.0259 0.208053,0.19605 0.312079,0.22178 0.104023,0.0257 0.20805,0.1933 0.312076,0.21886 0.104026,0.0256 0.20805,0.19054 0.312076,0.21594 0.104026,0.0254 0.20805,0.18779 0.312076,0.21303 0.104026,0.0252 0.20805,0.18503 0.312076,0.2101 0.104026,0.0251 0.208052,0.18228 0.312076,0.20719 0.104026,0.0249 0.208053,0.17952 0.312079,0.20427 0.104023,0.0248 0.20805,0.17677 0.312076,0.20135 0.104026,0.0246 0.20805,0.17401 0.312076,0.19844 0.104026,0.0244 0.208052,0.17125 0.312076,0.19551 0.104026,0.0243 0.208052,0.1685 0.312076,0.1926 0.104026,0.0241 0.208052,0.16574 0.312076,0.18968 0.104026,0.0239 0.208052,0.16298 0.312079,0.18676 0.104023,0.0238 0.208049,0.16023 0.312076,0.18385 0.104026,0.0236 0.208049,0.15747 0.312076,0.18092 0.104026,0.0234 0.208052,0.15472 0.312076,0.17801 0.104026,0.0233 0.208052,0.15196 0.312076,0.17509 0.104026,0.0231 0.208052,0.1492 0.312078,0.17217 0.104024,0.023 0.20805,0.14644 0.312076,0.16925 0.104027,0.0228 0.20805,0.14369 0.312077,0.16633 0.104026,0.0226 0.208052,0.14094 0.312076,0.16342 0.104026,0.0225 0.208052,0.13818 0.312078,0.1605 0.104024,0.0223 0.20805,0.13542 0.312074,0.15758 0.104026,0.0222 0.208052,0.13267 0.312078,0.15466 0.104024,0.022 0.20805,0.12991 0.312076,0.15174 0.104027,0.0218 0.20805,0.12716 0.312076,0.14883 0.104027,0.0217 0.208053,0.1244 0.312076,0.14591 0.104027,0.0215 0.208053,0.12164 0.312079,0.14299 0.104024,0.0213 0.20805,0.11888 0.312076,0.14007 0.104024,0.0212 0.20805,0.11613 0.312076,0.13715 0.104024,0.021 0.20805,0.11337 0.312076,0.13423 0.104026,0.0209 0.20805,0.11062 0.312076,0.13132 0.104026,0.0207 0.208053,0.10786 0.312076,0.1284 0.104027,0.0205 0.208053,0.10511 0.312079,0.12548 0.104024,0.0204 0.20805,0.10235 0.312076,0.12256 0.104024,0.0202 0.20805,0.0996 0.312076,0.11965 0.104024,0.02 0.20805,0.0968 0.312076,0.11672 0.104026,0.0199 0.20805,0.0941 0.312076,0.11381 0.104026,0.0197 0.208053,0.0913 0.312076,0.11089 0.104026,0.0196 0.208053,0.0886 0.312079,0.10797 0.104023,0.0194 0.20805,0.0858 0.312076,0.10505 0.104026,0.0192 0.20805,0.0831 0.312076,0.10214 0.104026,0.0191 0.20805,0.0803 0.312076,0.0992 0.104026,0.0189 0.20805,0.0775 0.312076,0.0963 0.104026,0.0188 0.208052,0.0748 0.312076,0.0934 0.104026,0.0186 0.208053,0.072 0.312079,0.0905 0.104023,0.0184 0.20805,0.0693 0.312076,0.0875 0.104026,0.0183 0.20805,0.0665 0.312076,0.0846 0.104026,0.0181 0.20805,0.0638 0.312076,0.0817 0.104026,0.0179 0.20805,0.061 0.312076,0.0788 0.104026,0.0178 0.208052,0.0582 0.312076,0.0759 0.104026,0.0176 0.208052,0.0555 0.312079,0.0729 0.104023,0.0175 0.208049,0.0527 0.312076,0.07 0.104026,0.0173 0.208049,0.05 0.312076,0.0671 0.104026,0.0171 0.208052,0.0472 0.312076,0.0642 0.104026,0.017 0.208052,0.0445 0.312076,0.0613 0.104026,0.0168 0.208052,0.0417 0.312078,0.0584 0.104024,0.0166 0.20805,0.039 0.312076,0.0554 0.104027,0.0165 0.20805,0.0362 0.312077,0.0525 0.104026,0.0163 0.208052,0.0335 0.312076,0.0496 0.104026,0.0162 0.208052,0.0307 0.312076,0.0467 0.104026,0.016 0.208052,0.0279 0.312076,0.0438 0.104026,0.0158 0.208052,0.0252 0.312078,0.0409 0.104024,0.0157 0.20805,0.0224 0.312076,0.0379 0.104027,0.0155 0.20805,0.0197 0.312076,0.035 0.104027,0.0153 0.208053,0.0169 0.312076,0.0321 0.104027,0.0152 0.208053,0.0142 0.312076,0.0292 0.104027,0.015 0.208053,0.0114 0.312076,0.0263 0.104027,0.0149 0.208053,0.009 0.312079,0.0233 0.104024,0.0147 0.20805,0.006 0.312076,0.0204 0.104026,0.0145 0.20805,0.003 0.312076,0.0175 0.104026,0.0144 0.208053,3.8e-4 0.312076,0.0146 0.104027,0.0142 0.208053,-0.002 0.312079,0.0117 0.104024,0.014 0.20805,-0.005 0.312076,0.009 0.104024,0.0139 0.20805,-0.008 0.31208,0.006 0.10402,0.0137 0.20805,-0.0106 0.31207,0.003 0.10403,0.0136 0.20805,-0.0134 0.31208,0 0.10403,0.0134 0.20805,-0.0162 0.31208,-0.003 0.10402,0.0132 0.20805,-0.0189 0.31207,-0.006 0.10403,0.0131 0.20805,-0.0217 0.31208,-0.009 0.10402,0.0129 0.20805,-0.0244 0.31208,-0.0117 0.10402,0.0128 0.20805,-0.0272 0.31207,-0.0146 0.10403,0.0126 0.20805,-0.0299 0.31208,-0.0175 0.10402,0.0124 0.20805,-0.0327 0.31208,-0.0204 0.10402,0.0123 0.20805,-0.0354 0.31207,-0.0233 0.10403,0.0121 0.20805,-0.0382 0.31208,-0.0263 0.10402,0.0119 0.20805,-0.041 0.31207,-0.0292 0.10403,0.0118 0.20806,-0.0437 0.31208,-0.0321 0.10403,0.0116 0.20805,-0.0465 0.31208,-0.035 0.10402,0.0115 0.20805,-0.0492 0.31207,-0.0379 0.10403,0.0113 0.20806,-0.052 0.31208,-0.0409 0.10403,0.0111 0.20805,-0.0547 0.31208,-0.0438 0.10402,0.011 0.20805,-0.0575 0.31207,-0.0467 0.10403,0.0108 0.20805,-0.0603 0.31208,-0.0496 0.10403,0.0106 0.20805,-0.063 0.31208,-0.0525 0.10402,0.0105 0.20805,-0.0658 0.31207,-0.0554 0.10403,0.0103 0.20805,-0.0685 0.31208,-0.0584 0.10403,0.0102 0.20805,-0.0713 0.31208,-0.0613 0.10402,0.01 0.20805,-0.074 0.31207,-0.0642 0.10403,0.01 0.20805,-0.0768 0.31208,-0.0671 0.10403,0.01 0.20805,-0.0796 0.31208,-0.07 0.10402,0.01 0.20805,-0.0823 0.31207,-0.0729 0.10403,0.009 0.20805,-0.0851 0.31208,-0.0759 0.10402,0.009 0.20805,-0.0878 0.31208,-0.0788 0.10402,0.009 0.20805,-0.0906 0.31207,-0.0817 0.10403,0.009 0.20805,-0.0933 0.31208,-0.0846 0.10402,0.009 0.20805,-0.0961 0.31208,-0.0875 0.10402,0.009 0.20805,-0.0988 0.31207,-0.0905 0.10403,0.008 0.20805,-0.10159 0.31208,-0.0934 0.10402,0.008 0.20805,-0.10435 0.31207,-0.0963 0.10403,0.008 0.20806,-0.10711 0.31208,-0.0992 0.10403,0.008 0.20805,-0.10986 0.31208,-0.10214 0.10402,0.008 0.20805,-0.11262 0.312073,-0.10505 0.10403,0.008 0.20806,-0.11537 0.31208,-0.10797 0.104033,0.007 0.208053,-0.11813 0.312083,-0.11089 0.10402,0.007 0.20805,-0.12089 0.31207,-0.11381 0.10403,0.007 0.20805,-0.12364 0.31208,-0.11672 0.10403,0.007 0.20805,-0.1264 0.31208,-0.11965 0.10402,0.007 0.20805,-0.12915 0.31207,-0.12256 0.10403,0.007 0.20805,-0.13191 0.31208,-0.12548 0.10403,0.006 0.20805,-0.13467 0.31208,-0.1284 0.10402,0.006 0.20805,-0.13742 0.31207,-0.13132 0.10403,0.006 0.20805,-0.14018 0.31208,-0.13423 0.10402,0.006 0.20805,-0.14294 0.31208,-0.13715 0.10402,0.006 0.20805,-0.1457 0.31207,-0.14007 0.10403,0.006 0.20805,-0.14845 0.31208,-0.14299 0.10402,0.005 0.20805,-0.15121 0.31208,-0.14591 0.10402,0.005 0.20805,-0.15396 0.31207,-0.14883 0.10403,0.005 0.20805,-0.15671 0.31208,-0.15174 0.10402,0.005 0.20805,-0.15947 0.31207,-0.15466 0.10403,0.005 0.20806,-0.16223 0.31208,-0.15758 0.10403,0.005 0.20805,-0.16499 0.31208,-0.1605 0.10402,0.004 0.20805,-0.16774 0.31207,-0.16342 0.10403,0.004 0.20806,-0.17049 0.31208,-0.16633 0.10403,0.004 0.20805,-0.17325 0.31208,-0.16925 0.10402,0.004 0.20805,-0.17601 0.31207,-0.17217 0.10403,0.004 0.20806,-0.17877 0.31208,-0.17509 0.10403,0.004 0.20805,-0.18152 0.31208,-0.17801 0.10402,0.004 0.20805,-0.18428 0.31207,-0.18092 0.10403,0.003 0.20805,-0.18704 0.31208,-0.18385 0.10403,0.003 0.20805,-0.18979 0.31208,-0.18676 0.10402,0.003 0.20805,-0.19254 0.31207,-0.18968 0.10403,0.003 0.20805,-0.1953 0.31208,-0.1926 0.10403,0.003 0.20805,-0.19805 0.31208,-0.19551 0.10402,0.003 0.20805,-0.20081 0.31207,-0.19844 0.10403,0.002 0.20805,-0.20356 0.31208,-0.20135 0.10402,0.002 0.20805,-0.20632 0.31208,-0.20427 0.10402,0.002 0.20805,-0.20908 0.31207,-0.20719 0.10403,0.002 0.20805,-0.21183 0.31208,-0.2101 0.10402,0.002 0.20805,-0.2146 0.31208,-0.21303 0.10402,0.002 0.20805,-0.21735 0.31207,-0.21594 0.10403,0.001 0.20805,-0.22011 0.31208,-0.21886 0.10402,0.001 0.20805,-0.22286 0.31207,-0.22178 0.10403,0.001 0.20806,-0.22562 0.31208,-0.2247 0.10403,9.2e-4 0.20805,-0.22837 0.31208,-0.22761 0.10402,7.5e-4 0.20805,-0.23113 0.31207,-0.23054 0.10403,6e-4 0.20806,-0.23388 0.31208,-0.23345 0.10403,4.3e-4 0.20805,-0.23664 0.31208,-0.23637 0.10402,2.7e-4 0.20805,-0.2394 0.31207,-0.23929 0.10403,1.1e-4 0.20805,-0.24215 0.31208,-0.2422 0.10403,-6e-5 0.20805,-0.24491 0.31208,-0.24513 0.10402,-2.1e-4 0.20805,-0.24766 0.31207,-0.24804 0.10403,-3.8e-4 0.20805,-0.25042 0.31208,-0.25096 0.10403,-5.4e-4 0.20805,-0.25318 0.31208,-0.25388 0.10402,-7e-4 0.20805,-0.25593 0.31207,-0.2568 0.10403,-8.6e-4 0.20805,-0.25868 0.31208,-0.25971 0.10402,-0.001 0.20805,-0.26145 0.31208,-0.26263 0.10402,-0.001 0.20805,-0.2642 0.31207,-0.26556 0.10403,-0.001 0.20805,-0.26695 0.31208,-0.26847 0.10402,-0.002 0.20805,-0.26971 0.31208,-0.27138 0.10402,-0.002 0.20805,-0.27247 0.31207,-0.27431 0.10403,-0.002 0.20805,-0.27522 0.31208,-0.27722 0.10402,-0.002 0.20805,-0.27798 0.31208,-0.28014 0.10402,-0.002 0.20805,-0.28074 0.31207,-0.28307 0.10403,-0.002 0.20805,-0.28349 0.31208,-0.28597 0.10402,-0.002 0.20805,-0.28625 0.31207,-0.2889 0.10403,-0.003 0.20806,-0.289 0.31208,-0.29181 0.10403,-0.003 0.20805,-0.29177 0.31208,-0.29474 0.10402,-0.003 0.20805,-0.29451 0.31207,-0.29765 0.10403,-0.003 0.20806,-0.29727 0.31208,-0.30057 0.10403,-0.003 0.20805,-0.30003 0.31208,-0.30348 0.10402,-0.003 0.20805,-0.30279 0.31207,-0.30641 0.10403,-0.004 0.20805,-0.30554 0.31208,-0.30932 0.10403,-0.004 0.20805,-0.3083 0.31208,-0.31225 0.10402,-0.004 0.20805,-0.31105 0.31207,-0.31516 0.10403,-0.004 0.20805,-0.3138 0.31208,-0.31807 0.10403,-0.004 0.20805,-0.31657 0.31208,-0.321 0.10402,-0.004 0.20805,-0.31932 0.31207,-0.32391 0.10403,-0.005 0.20805,-0.32208 0.31208,-0.32684 0.10402,-0.005 0.20805,-0.32483 0.31208,-0.32975 0.10402,-0.005 0.20805,-0.32759 0.31207,-0.33267 0.10403,-0.005 0.20805,-0.33034 0.31208,-0.33558 0.10402,-0.005 0.20805,-0.3331 0.31208,-0.33851 0.10402,-0.005 0.20805,-0.33585 0.31207,-0.34142 0.10403,-0.006 0.20805,-0.33861 0.31208,-0.34434 0.10402,-0.006 0.20805,-0.34137 0.31207,-0.34726 0.10403,-0.006 0.20806,-0.34413 0.31208,-0.35018 0.10403,-0.006 0.20805,-0.34688 0.31208,-0.35309 0.10402,-0.006 0.20805,-0.34964 0.31207,-0.35602 0.10403,-0.006 0.20806,-0.35239 0.31208,-0.35893 0.10403,-0.007 0.20805,-0.35515 0.31208,-0.36185 0.10402,-0.007 0.20805,-0.35791 0.31207,-0.36477 0.10403,-0.007 0.20805,-0.36066 0.31208,-0.36769 0.10403,-0.007 0.20805,-0.36341 0.31208,-0.3706 0.10402,-0.007 0.20805,-0.36617 0.31207,-0.37352 0.10403,-0.007 0.20805,-0.36893 0.31208,-0.37644 0.10403,-0.008 0.20805,-0.37169 0.31208,-0.37936 0.10402,-0.008 0.20805,-0.37444 0.31207,-0.38228 0.10403,-0.008 0.20805,-0.3772 0.31208,-0.38519 0.10403,-0.008 0.20805,-0.37996 0.31208,-0.38812 0.10402,-0.008 0.20805,-0.38271 0.31207,-0.39103 0.10403,-0.008 0.20805,-0.38547 0.31208,-0.39395 0.10402,-0.008 0.20805,-0.38822 0.31208,-0.39687 0.10402,-0.009 0.20805,-0.39098 0.31207,-0.39978 0.10403,-0.009 0.20805,-0.39374 0.31208,-0.40271 0.10402,-0.009 0.20805,-0.39649 0.31208,-0.40562 0.10402,-0.009 0.20805,-0.39925 0.31207,-0.40854 0.10403,-0.009 0.20805,-0.402 0.31208,-0.41146 0.10402,-0.009 0.20805,-0.40476 0.31207,-0.41438 0.10403,-0.01 0.20806,-0.40751 0.31208,-0.41729 0.10403,-0.01 0.20805,-0.41027 0.31208,-0.42021 0.10402,-0.01 0.20805,-0.41303 0.31207,-0.42314 0.10403,-0.0101 0.20806,-0.41578 0.31208,-0.42605 0.10403,-0.0103 0.20805,-0.41853 0.31208,-0.42896 0.10402,-0.0104 0.20805,-0.4213 0.31207,-0.43189 0.10403,-0.0106 0.20805,-0.42405 0.31208,-0.4348 0.10403,-0.0108 0.20805,-0.42681 0.31208,-0.43772 0.10402,-0.0109 0.20805,-0.42957 0.31207,-0.44064 0.10403,-0.0111 0.20805,-0.43232 0.31208,-0.44356 0.10403,-0.0112 0.20805,-0.43508 0.31208,-0.44648 0.10402,-0.0114 0.20805,-0.43783 0.31207,-0.44939 0.10403,-0.0116 0.20805,-0.44059 0.31208,-0.45232 0.10402,-0.0117 0.20805,-0.44334 0.31208,-0.45523 0.10402,-0.0119 0.20805,-0.4461 0.31207,-0.45815 0.10403,-0.0121 0.20805,-0.44885 0.31208,-0.46106 0.10402,-0.0122 0.20805,-0.45161 0.31208,-0.46399 0.10402,-0.0124 0.20805,-0.45436 0.31207,-0.4669 0.10403,-0.0125 0.20805,-0.45712 0.31208,-0.46982 0.10402,-0.0127 0.20805,-0.45988 0.31207,-0.47274 0.10403,-0.0129 0.20806,-0.46264 0.31208,-0.47566 0.10403,-0.013 0.20805,-0.46539 0.31208,-0.47858 0.10402,-0.0132 0.20805,-0.46814 0.31207,-0.48149 0.10403,-0.0134 0.20806,-0.4709 0.31208,-0.48441 0.10403,-0.0135 0.20805,-0.47367 0.31208,-0.48734 0.10402,-0.0137 0.20805,-0.47641 0.31207,-0.49025 0.10403,-0.0138 0.20805,-0.47917 0.31208,-0.49316 0.10403,-0.014 0.20805,-0.48193 0.31208,-0.49609 0.10402,-0.0142 0.20805,-0.48468 0.31207,-0.499 0.10403,-0.0143 0.20805,-0.48744 0.31208,-0.50192 0.10403,-0.0145 0.20805,-0.4902 0.31208,-0.50484 0.10402,-0.0147 0.20805,-0.49295 0.31207,-0.50776 0.10403,-0.0148 0.20805,-0.49571 0.31208,-0.51068 0.10403,-0.015 0.20805,-0.49846 0.31208,-0.51359 0.10402,-0.0151 0.20805,-0.50122 0.31207,-0.51651 0.10403,-0.0153 0.20805,-0.50398 0.31208,-0.51943 0.10402,-0.0155 0.20805,-0.50673 0.31208,-0.52235 0.10402,-0.0156 0.20805,-0.50949 0.31207,-0.52527 0.10403,-0.0158 0.20805,-0.51224 0.31208,-0.52818 0.10402,-0.0159 0.20805,-0.515 0.31208,-0.5311 0.10402,-0.0161 0.20805,-0.51776 0.31207,-0.53402 0.10403,-0.0163 0.20805,-0.52052 0.31208,-0.53694 0.10402,-0.0164 0.20805,-0.52327 0.31207,-0.53986 0.10403,-0.0166 0.20806,-0.52602 0.31208,-0.54278 0.10403,-0.0168 0.20805,-0.52877 0.31208,-0.54569 0.10402,-0.0169 0.20805,-0.53153 0.31207,-0.54861 0.10403,-0.0171 0.20806,-0.53429 0.31208,-0.55153 0.10403,-0.0172 0.20805,-0.53705 0.31208,-0.55445 0.10402,-0.0174 0.20805,-0.5398 0.31207,-0.55737 0.10403,-0.0176 0.20805,-0.54255 0.31208,-0.56028 0.10403,-0.0177 0.20805,-0.54531 0.31208,-0.5632 0.10402,-0.0179 0.20805,-0.54807 0.31207,-0.56612 0.10403,-0.018 0.20805,-0.55083 0.31208,-0.56904 0.10403,-0.0182 0.20805,-0.55358 0.31208,-0.57196 0.10402,-0.0184 0.20805,-0.55633 0.31207,-0.57487 0.10403,-0.0185 0.20805,-0.5591 0.31208,-0.5778 0.10402,-0.0187 0.20805,-0.56185 0.31208,-0.58071 0.10402,-0.0189 0.20805,-0.5646 0.31207,-0.58362 0.10403,-0.019 0.20805,-0.56737 0.31208,-0.58655 0.10402,-0.0192 0.20805,-0.57012 0.31208,-0.58947 0.10402,-0.0194 0.20805,-0.57287 0.31207,-0.59238 0.10403,-0.0195 0.20805,-0.57563 0.31208,-0.5953 0.10402,-0.0197 0.20805,-0.57839 0.31207,-0.59822 0.10403,-0.0198 0.20806,-0.58115 0.31208,-0.60114 0.10403,-0.02 0.20805,-0.5839 0.31208,-0.60406 0.10402,-0.0202 0.20805,-0.58665 0.31207,-0.60697 0.10403,-0.0203 0.20806,-0.58941 0.31208,-0.60989 0.10403,-0.0205 0.20805,-0.59217 0.31208,-0.61282 0.10402,-0.0206 0.20805,-0.59492 0.31207,-0.61572 0.10403,-0.0208 0.20806,-0.59768 0.31208,-0.61865 0.10403,-0.021 0.20805,-0.60044 0.31208,-0.62157 0.10402,-0.0211 0.20805,-0.60319 0.31207,-0.62448 0.10403,-0.0213 0.20805,-0.60595 0.31208,-0.6274 0.10403,-0.0214 0.20805,-0.60871 0.31208,-0.63032 0.10402,-0.0216 0.20805,-0.61146 0.31207,-0.63324 0.10403,-0.0218 0.20805,-0.61422 0.31208,-0.63615 0.10403,-0.0219 0.20805,-0.61698 0.31208,-0.63908 0.10402,-0.0221 0.20805,-0.61973 0.31207,-0.64199 0.10403,-0.0223 0.20805,-0.62248 0.31208,-0.64491 0.10402,-0.0224 0.20805,-0.62524 0.31208,-0.64783 0.10402,-0.0226 0.20805,-0.628 0.31207,-0.65075 0.10403,-0.0228 0.20805,-0.63075 0.31208,-0.65366 0.10402,-0.0229 0.20805,-0.63351 0.31208,-0.65658 0.10402,-0.0231 0.20805,-0.63627 0.31207,-0.65951 0.10403,-0.0232 0.20805,-0.63902 0.31208,-0.66242 0.10402,-0.0234 0.20805,-0.64177 0.31207,-0.66533 0.10403,-0.0236 0.20806,-0.64453 0.31208,-0.66826 0.10403,-0.0237 0.20805,-0.64729 0.31208,-0.67117 0.10402,-0.0239 0.20805,-0.65005 0.31207,-0.67409 0.10403,-0.0241 0.20806,-0.6528 0.31208,-0.67701 0.10403,-0.0242 0.20805,-0.65556 0.31208,-0.67993 0.1037,-0.0243 0.20741,-0.65442 0.31111,-0.68261"
       inkscape:connector-curvature="0" />
  </g>
</svg>
